<svg xmlns="http://www.w3.org/2000/svg" viewBox="0 0 254.3786 40.2443"><title>did_logo</title><g id="Layer_2" data-name="Layer 2"><g id="Text"><path d="M-211.1823-71.4726a5.4471,5.4471,0,0,0-4.1387-1.9643,3.8234,3.8234,0,0,0-3.9549,2.6716,5.68,5.68,0,0,0-.3414,2.0431,4.8962,4.8962,0,0,0,1.2308,3.5364,4.0392,4.0392,0,0,0,3.0655,1.1783,5.4357,5.4357,0,0,0,4.1387-1.9643Zm0,7.7014a6.0811,6.0811,0,0,1-4.48,1.9906,6.019,6.019,0,0,1-4.347-1.78A6.932,6.932,0,0,1-222-68.7222a6.9461,6.9461,0,0,1,1.9906-5.1331,5.9219,5.9219,0,0,1,4.347-1.8085,6.0878,6.0878,0,0,1,4.48,1.9906V-80.09a1.1754,1.1754,0,0,1,.34-.8648,1.1612,1.1612,0,0,1,.8526-.34,1.16,1.16,0,0,1,.8509.34,1.17,1.17,0,0,1,.3414.8648v17a1.1411,1.1411,0,0,1-.3414.8386,1.1533,1.1533,0,0,1-.8509.34,1.1545,1.1545,0,0,1-.8526-.34,1.1465,1.1465,0,0,1-.34-.8386Z" transform="translate(222 96)" style="fill:#fff"/><path d="M-200.5479-75.1917a1.1588,1.1588,0,0,1,.8508-.3413,1.159,1.159,0,0,1,.8509.3413,1.1689,1.1689,0,0,1,.3414.8632v11.2378a1.1381,1.1381,0,0,1-.3414.8386,1.1506,1.1506,0,0,1-.8509.34,1.15,1.15,0,0,1-.8508-.34,1.1381,1.1381,0,0,1-.3414-.8386V-74.3285a1.1689,1.1689,0,0,1,.3414-.8632" transform="translate(222 96)" style="fill:#fff"/><path d="M-181.1126-71.5506a8.7809,8.7809,0,0,0-1.6772-1.3481,3.864,3.864,0,0,0-2.0939-.59,5.949,5.949,0,0,0-1.966.2872,4.0762,4.0762,0,0,0-1.4146.84,4.5816,4.5816,0,0,0-1.2833,3.5085q0,3.38,2.6979,4.3488a5.9078,5.9078,0,0,0,1.966.287,5.3153,5.3153,0,0,0,3.7711-1.938Zm0-2.122v-.6547a1.1829,1.1829,0,0,1,.3414-.8508,1.1136,1.1136,0,0,1,.8368-.3554,1.1552,1.1552,0,0,1,.8508.3554,1.1592,1.1592,0,0,1,.3537.8508v11.7088a7.3536,7.3536,0,0,1-1.5967,5.0947,5.83,5.83,0,0,1-4.5571,1.7681,11.3783,11.3783,0,0,1-5.6058-1.3619.8938.8938,0,0,1-.4727-.7985,1.2471,1.2471,0,0,1,.3011-.8526.8569.8569,0,0,1,.6285-.34,1.6094,1.6094,0,0,1,.59.1034,9.5076,9.5076,0,0,0,4.3226.9961q4.0074,0,4.0074-4.2683V-64.033a5.9125,5.9125,0,0,1-4.4784,1.9923,6.0131,6.0131,0,0,1-4.27-1.6772,6.6531,6.6531,0,0,1-2.0693-5.1348,6.6557,6.6557,0,0,1,2.0693-5.135,6.0919,6.0919,0,0,1,4.3348-1.6754,5.8432,5.8432,0,0,1,4.4136,1.99" transform="translate(222 96)" style="fill:#fff"/><path d="M-170.4788-75.1917a1.1631,1.1631,0,0,1,.8526-.3413,1.1617,1.1617,0,0,1,.8509.3413,1.176,1.176,0,0,1,.3414.8632v11.2378a1.145,1.145,0,0,1-.3414.8386,1.1533,1.1533,0,0,1-.8509.34,1.1546,1.1546,0,0,1-.8526-.34,1.142,1.142,0,0,1-.3378-.8386V-74.3285a1.1732,1.1732,0,0,1,.3378-.8632" transform="translate(222 96)" style="fill:#fff"/><path d="M-155.64-63.8752a2.9809,2.9809,0,0,0,.9962-.119,1.7758,1.7758,0,0,1,.6547-.1172.9388.9388,0,0,1,.6426.2625,1.011,1.011,0,0,1,.2871.7861.7888.7888,0,0,1-.5252.7581,4.7485,4.7485,0,0,1-1.9241.5252,12.23,12.23,0,0,1-1.4531-.0788,3.1225,3.1225,0,0,1-1.257-.4464,3.1046,3.1046,0,0,1-1.4408-2.9325v-8.1216h-1.861a.4393.4393,0,0,1-.4973-.4972.6.6,0,0,1,.2364-.4446l3.5627-3.484a.6561.6561,0,0,1,.4447-.2363.4694.4694,0,0,1,.3536.1575.525.525,0,0,1,.1436.366V-75.4h2.96a.9868.9868,0,0,1,.7318.2871.9922.9922,0,0,1,.2888.7335.9923.9923,0,0,1-.2888.7336.9868.9868,0,0,1-.7318.2871h-2.96v7.9116a1.4651,1.4651,0,0,0,.6022,1.3619,2.014,2.014,0,0,0,1.0347.21" transform="translate(222 96)" style="fill:#fff"/><path d="M-145.49-65.97q0,2.093,2.7766,2.0955a4.5606,4.5606,0,0,0,2.2935-.6039,6.7951,6.7951,0,0,0,1.74-1.3621V-68.04h-2.8537a7.2706,7.2706,0,0,0-2.9079.4692,1.634,1.634,0,0,0-1.0487,1.6m-.8106-8.75a11.4508,11.4508,0,0,1,4.5571-.9418,5.29,5.29,0,0,1,4.1387,1.6246,5.0048,5.0048,0,0,1,1.31,3.5348v7.4124a1.1225,1.1225,0,0,1-.3537.8386,1.1813,1.1813,0,0,1-.8508.34,1.1339,1.1339,0,0,1-.8386-.34,1.1381,1.1381,0,0,1-.3414-.8386v-.6809a7.3979,7.3979,0,0,1-1.8978,1.362,6.4383,6.4383,0,0,1-3.0252.63,4.43,4.43,0,0,1-3.013-1.0487,3.6428,3.6428,0,0,1-1.257-2.8817,3.5872,3.5872,0,0,1,1.4671-3.0393,7.46,7.46,0,0,1,4.5571-1.2044h3.1688v-.2084a3.1526,3.1526,0,0,0-.8631-2.5017,3.9756,3.9756,0,0,0-2.6453-.7476,11.58,11.58,0,0,0-3.484.63,1.9521,1.9521,0,0,1-.4709.0507.82.82,0,0,1-.55-.2731,1.1271,1.1271,0,0,1-.2907-.8526.9349.9349,0,0,1,.6828-.8649" transform="translate(222 96)" style="fill:#fff"/><path d="M-128.5695-80.9543a1.1549,1.1549,0,0,1,.8526-.34,1.1538,1.1538,0,0,1,.8509.34,1.1758,1.1758,0,0,1,.34.8649V-63.09a1.1465,1.1465,0,0,1-.34.8386,1.1535,1.1535,0,0,1-.8509.34,1.1545,1.1545,0,0,1-.8526-.34,1.1465,1.1465,0,0,1-.34-.8386V-80.0894a1.1758,1.1758,0,0,1,.34-.8649" transform="translate(222 96)" style="fill:#fff"/><path d="M-112.9111-63.987q2.3006,0,4.2876-2.5087v-7.8449a1.1141,1.1141,0,0,1,.3553-.8369,1.1763,1.1763,0,0,1,.8491-.3414,1.1371,1.1371,0,0,1,.8369.3414,1.14,1.14,0,0,1,.34.8369v11.2168a1.1745,1.1745,0,0,1-.34.8631,1.1407,1.1407,0,0,1-.8369.3379,1.18,1.18,0,0,1-.8491-.3379,1.1472,1.1472,0,0,1-.3553-.8631V-64.197a9.0562,9.0562,0,0,1-1.8033,1.5441,5.6931,5.6931,0,0,1-2.8362.8631,5.2244,5.2244,0,0,1-2.2111-.4062,4.311,4.311,0,0,1-1.4636-1.11,5.3647,5.3647,0,0,1-1.2273-3.61v-7.4247a1.111,1.111,0,0,1,.3519-.8369,1.1791,1.1791,0,0,1,.8491-.3414,1.1344,1.1344,0,0,1,.8369.3414,1.1327,1.1327,0,0,1,.34.8369v7.1639a3.6838,3.6838,0,0,0,.6688,2.339,2.6331,2.6331,0,0,0,2.2076.8507" transform="translate(222 96)" style="fill:#fff"/><path d="M-91.7844-73.4523q-2.3005,0-4.2875,2.51v7.8432a1.1146,1.1146,0,0,1-.3519.8369,1.1887,1.1887,0,0,1-.8509.34,1.142,1.142,0,0,1-.8368-.34,1.1366,1.1366,0,0,1-.34-.8369V-74.3154a1.1743,1.1743,0,0,1,.34-.8631,1.142,1.142,0,0,1,.8368-.34,1.1887,1.1887,0,0,1,.8509.34,1.1508,1.1508,0,0,1,.3519.8631v1.0733a8.8929,8.8929,0,0,1,1.8049-1.5442,5.6862,5.6862,0,0,1,2.8362-.8614,5.2231,5.2231,0,0,1,2.2094.4045,4.2808,4.2808,0,0,1,1.4654,1.1117,5.3657,5.3657,0,0,1,1.2272,3.6082v7.4247a1.1081,1.1081,0,0,1-.3519.8369,1.1883,1.1883,0,0,1-.8508.34,1.1326,1.1326,0,0,1-.8351-.34,1.13,1.13,0,0,1-.34-.8369v-7.1639a3.6908,3.6908,0,0,0-.6671-2.3389,2.6449,2.6449,0,0,0-2.2111-.8509" transform="translate(222 96)" style="fill:#fff"/><path d="M-69.7353-71.4652a5.4237,5.4237,0,0,0-4.13-1.9608,3.8189,3.8189,0,0,0-3.95,2.6663,5.6739,5.6739,0,0,0-.3414,2.04,4.883,4.883,0,0,0,1.2308,3.5312,4.0366,4.0366,0,0,0,3.06,1.1765,5.4293,5.4293,0,0,0,4.13-1.9608Zm0,7.6874a6.0633,6.0633,0,0,1-4.4714,1.987,6.0131,6.0131,0,0,1-4.34-1.7769A6.9158,6.9158,0,0,1-80.5338-68.72a6.9359,6.9359,0,0,1,1.9871-5.1244,5.9082,5.9082,0,0,1,4.34-1.8032,6.0618,6.0618,0,0,1,4.4714,1.9853v-6.4059a1.1744,1.1744,0,0,1,.34-.863,1.16,1.16,0,0,1,.8508-.34,1.1562,1.1562,0,0,1,.8491.34,1.1688,1.1688,0,0,1,.3414.863v16.97a1.1314,1.1314,0,0,1-.3414.8369,1.1559,1.1559,0,0,1-.8491.34,1.16,1.16,0,0,1-.8508-.34,1.1368,1.1368,0,0,1-.34-.8369Z" transform="translate(222 96)" style="fill:#fff"/><path d="M-58.7047-75.178a1.1572,1.1572,0,0,1,.8508-.34,1.1564,1.1564,0,0,1,.8491.34,1.1745,1.1745,0,0,1,.34.8631V-63.098a1.1425,1.1425,0,0,1-.34.8369,1.1564,1.1564,0,0,1-.8491.34,1.1572,1.1572,0,0,1-.8508-.34,1.1352,1.1352,0,0,1-.34-.8369V-74.3149a1.1672,1.1672,0,0,1,.34-.8631" transform="translate(222 96)" style="fill:#fff"/><path d="M-38.606-74.8379a1.1554,1.1554,0,0,1,1.152-.681,1.0314,1.0314,0,0,1,.7563.3537.9994.9994,0,0,1,.34.667,1.884,1.884,0,0,1-.1313.7318l-4.5484,10.8772a1.7979,1.7979,0,0,1-.5638.6811,1.4024,1.4024,0,0,1-.8736.2853h-.2626a1.411,1.411,0,0,1-.8753-.2853,1.8254,1.8254,0,0,1-.562-.6811l-4.55-10.8772a1.7318,1.7318,0,0,1-.13-.6793,1.0428,1.0428,0,0,1,.34-.7195,1.0321,1.0321,0,0,1,.758-.3537,1.1559,1.1559,0,0,1,1.15.681l3.9987,10.1455Z" transform="translate(222 96)" style="fill:#fff"/><path d="M-28.6486-75.178a1.1508,1.1508,0,0,1,.8491-.34,1.16,1.16,0,0,1,.8509.34,1.1732,1.1732,0,0,1,.3379.8631V-63.098a1.1411,1.1411,0,0,1-.3379.8369,1.16,1.16,0,0,1-.8509.34,1.1508,1.1508,0,0,1-.8491-.34,1.1355,1.1355,0,0,1-.34-.8369V-74.3149a1.1675,1.1675,0,0,1,.34-.8631" transform="translate(222 96)" style="fill:#fff"/><path d="M-8.725-71.4652a5.43,5.43,0,0,0-4.1317-1.9608A3.8168,3.8168,0,0,0-16.8046-70.76a5.6747,5.6747,0,0,0-.34,2.04,4.8826,4.8826,0,0,0,1.229,3.5312,4.0329,4.0329,0,0,0,3.0586,1.1765A5.4355,5.4355,0,0,0-8.725-65.9732Zm0,7.6874a6.0689,6.0689,0,0,1-4.4714,1.987,6.0229,6.0229,0,0,1-4.3418-1.7769A6.915,6.915,0,0,1-19.5235-68.72a6.935,6.935,0,0,1,1.9853-5.1244,5.9151,5.9151,0,0,1,4.3418-1.8032A6.0674,6.0674,0,0,1-8.725-73.6624v-6.4059a1.174,1.174,0,0,1,.34-.863,1.1574,1.1574,0,0,1,.8508-.34,1.1533,1.1533,0,0,1,.8491.34,1.1741,1.1741,0,0,1,.34.863v16.97a1.1365,1.1365,0,0,1-.34.8369,1.153,1.153,0,0,1-.8491.34,1.1571,1.1571,0,0,1-.8508-.34,1.1364,1.1364,0,0,1-.34-.8369Z" transform="translate(222 96)" style="fill:#fff"/><path d="M6.9117-73.636a3.5732,3.5732,0,0,0-3.4,2.0658,4.0865,4.0865,0,0,0-.4429,1.7526h7.7154a3.9734,3.9734,0,0,0-1.3621-2.929,3.7547,3.7547,0,0,0-2.5105-.8894m-2.51,8.5767a4.4265,4.4265,0,0,0,3.139,1.047,7.5154,7.5154,0,0,0,3.3736-.681,1.8812,1.8812,0,0,1,.8071-.2346.9682.9682,0,0,1,.6566.2871.8674.8674,0,0,1,.3116.6548,1.0236,1.0236,0,0,1-.56.9787c-.3746.2013-.7125.3728-1.0084.5112a7.0356,7.0356,0,0,1-.9664.3659,9.7856,9.7856,0,0,1-2.7206.34A6.6856,6.6856,0,0,1,2.44-63.5955,6.988,6.988,0,0,1,.6616-68.72a7.5359,7.5359,0,0,1,1.4916-4.7848,5.6837,5.6837,0,0,1,4.7585-2.1429,5.7783,5.7783,0,0,1,4.6289,1.9854A6.82,6.82,0,0,1,13.1338-69.06a1.1691,1.1691,0,0,1-.3239.8369,1.162,1.162,0,0,1-.8772.34H3.0689a4.3965,4.3965,0,0,0,1.3323,2.8238" transform="translate(222 96)" style="fill:#fff"/><path d="M29.9993-71.4652a5.4243,5.4243,0,0,0-4.1317-1.9608A3.8168,3.8168,0,0,0,21.92-70.76a5.7119,5.7119,0,0,0-.34,2.04,4.883,4.883,0,0,0,1.2308,3.5312,4.0339,4.0339,0,0,0,3.0567,1.1765,5.43,5.43,0,0,0,4.1317-1.9608Zm0,7.6874a6.0678,6.0678,0,0,1-4.47,1.987,6.0229,6.0229,0,0,1-4.3417-1.7769A6.9224,6.9224,0,0,1,19.2009-68.72a6.9426,6.9426,0,0,1,1.9871-5.1244A5.912,5.912,0,0,1,25.53-75.6477a6.0663,6.0663,0,0,1,4.47,1.9853v-6.4059a1.1758,1.1758,0,0,1,.3414-.863,1.1537,1.1537,0,0,1,.8491-.34,1.1576,1.1576,0,0,1,.8509.34,1.1731,1.1731,0,0,1,.3379.863v16.97a1.1353,1.1353,0,0,1-.3379.8369,1.1573,1.1573,0,0,1-.8509.34,1.1534,1.1534,0,0,1-.8491-.34,1.1383,1.1383,0,0,1-.3414-.8369Z" transform="translate(222 96)" style="fill:#fff"/><path d="M-168.1282-79.5135A16.5046,16.5046,0,0,0-184.6165-96a16.5042,16.5042,0,0,0-16.4866,16.4865h.0053v.0526a1.28,1.28,0,0,0,.3922.9419,1.2853,1.2853,0,0,0,.9436.3939h.1576a1.2813,1.2813,0,0,0,.9418-.3939,1.2814,1.2814,0,0,0,.394-.9419v-.0526h.161a13.5066,13.5066,0,0,1,13.4911-13.491,13.507,13.507,0,0,1,13.4928,13.491h.0963v.0526a1.2869,1.2869,0,0,0,.3921.9419,1.2855,1.2855,0,0,0,.9437.3939h.1558a1.2826,1.2826,0,0,0,.9436-.3939,1.2882,1.2882,0,0,0,.3939-.9419v-.0526Z" transform="translate(222 96)" style="fill:#fff"/><path d="M-26.3569-79.5135h.07A16.5041,16.5041,0,0,0-42.7734-96,16.5057,16.5057,0,0,0-59.2617-79.5135h.0053v.0526a1.3554,1.3554,0,0,0,.0262.27,1.2871,1.2871,0,0,0,.3694.6916,1.2782,1.2782,0,0,0,.94.3938h.1575a1.2782,1.2782,0,0,0,.94-.3938,1.2557,1.2557,0,0,0,.3694-.6951,1.3321,1.3321,0,0,0,.0245-.2661v-.0526h.1628a13.5081,13.5081,0,0,1,13.4928-13.491,13.5066,13.5066,0,0,1,13.4911,13.491h.084v.0736a1.2829,1.2829,0,0,0,.3922.94,1.2807,1.2807,0,0,0,.94.3938h.1576a1.2789,1.2789,0,0,0,.9418-.3938,1.3606,1.3606,0,0,0,.1716-.2066,1.2649,1.2649,0,0,0,.2381-.7546Z" transform="translate(222 96)" style="fill:#fff"/></g></g></svg>