<svg xmlns="http://www.w3.org/2000/svg" viewBox="0 0 1055.8246 14.9766"><title>header-separator</title><g id="Layer_2" data-name="Layer 2"><g id="BG"><g style="opacity:0.75"><path d="M1056.4383,3.0039c-.4565-.7729-1.0918-1.4961-1.5646-2.2646-.0388-.0606-.0837-.13-.1224-.1914L1040.2373,4.53l-16.6362-3.4981-16.3917,4.4986L990.5761,2.0322,974.191,6.53,957.5591,3.0322,941.1729,7.53,924.72,4.0552,908.2589,7.53,891.8662,3.0317,875.2325,6.53,858.8413,2.0317,842.214,5.53l-16.39-4.4981L809.1928,4.53,792.63,0,776.0611,4.5308,759.4239,1.0322,743.0327,5.53,726.4,2.0322,710.0159,6.53,693.3848,3.0322,677,7.53,660.5467,4.0552,644.0867,7.53,627.6949,3.0317,611.0616,6.53,594.6709,2.0317,578.0442,5.53,561.6553,1.0317,545.0242,4.53,528.4622,0,511.8931,4.5308,495.2559,1.0322,478.8653,5.53,462.2327,2.0322,445.8484,6.53,429.2173,3.0322,412.8321,7.53,396.3794,4.0552,379.92,7.53,363.5284,3.0317,346.8955,6.53l-16.39-4.4981L313.8792,5.53,297.4905,1.0317,280.86,4.53,264.2984,0,247.7293,4.5308,231.0921,1.0322,214.7012,5.53,198.0689,2.0322,181.6844,6.53,165.0535,3.0322,148.6682,7.53,132.2154,4.0552,115.7564,7.53,99.3653,3.0317,82.7329,6.53,66.3435,2.0317,49.7176,5.53,33.3294,1.0317,16.7012,4.53,1.1912.2725a9.4033,9.4033,0,0,0,.0144.9658c.0164.5137.376,1.1138-.1614,1.4805-.3159.1943.45.6528,1.7886,1.25A64.42,64.42,0,0,0,14.64,7.75q.9276.2175,1.9487.4985c1.4287-.3027,3.1216-.6079,4.603-.8618a63.3847,63.3847,0,0,0,7.8975-1.8354c.603-.1817,1.2576-.3658,1.9385-.5479.6745-.1811,1.3723-.3594,2.1987-.5586.1033.0249.2195.0532.3355.0811q2.4185.5859,4.8532,1.1762,2.398.6,4.8245,1.2066c1.2092.3105,2.3975.6435,3.5.9853,1.0884.3374,2.1726.7061,2.8763,1.0054.1916-.0166.3315-.0288.468-.041,1.1833-.2817,2.2527-.56,3.2414-.7651q6.1326-1.2685,12.2481-2.5342c.2263-.0464.4521-.0923.6677-.1367q1.2019.3281,2.3855.6513,1.1357.2982,2.2627.5943c1.5078.3842,3.0122.7675,4.5386,1.1567,2.386.6148,4.7822,1.2319,7.21,1.8569l12.7466-2.82c.51-.1147,1.0429-.1992,1.5717-.3051l2.3169-.4629,2.5476.7275,2.3653.6514c1.5749.4189,3.144.8007,4.6992,1.1059q1.7586.468,3.51.9336l3.2776.8374q1.43-.3128,2.8659-.626c1.04-.2148,2.0857-.4174,3.1406-.6.7645-.1313,1.6084-.2968,2.3633-.4736q2.06-.4812,4.0584-.8755,2.095-.394,4.115-.7744l4.5661,1.1357c1.7532.4253,3.5718.8667,5.3738,1.3038,2.1939.5141,4.39,1.0288,6.6162,1.55q.9921-.2628,1.9895-.5283,1.04-.2871,2.085-.5761,2.0863-.59,4.1738-1.2378c.2576-.0811.5176-.1524.7786-.2193q3.6741-.966,7.36-1.9355l2.9366.6577c2.6142.59,5.1169,1.2178,7.47,1.9043,2.0357.5742,4.1746,1.1782,6.25,1.7637l1.7146-.3487a55.3561,55.3561,0,0,1,7.5144-.9575c1.3022-.3442,2.5947-.6977,3.8577-1.06q.9455-.2784,1.87-.5513.46-.1413.914-.2808l.5472-.188c.572.083,1.1259.1636,1.6665.2417.6584.087,1.3.1714,1.9292.2544,1.8818.2217,3.8745.7369,5.7985,1.0884,2.3706.4424,4.7583.8877,7.221,1.3472.9661-.2876,1.978-.5884,2.9973-.8916l1.0361-.0464a82.1724,82.1724,0,0,1,9.0159-2.106c.6067-.1489,1.217-.3125,1.8328-.4848q.7533-.2205,1.5246-.4458.5925.11,1.1922.2212.7712.1545,1.5476.31c1.0324.2154,2.0639.4517,3.08.7325,1.7752.3408,3.6018.6919,5.384,1.0336l2.6307.4913c.9614.1626,1.8969.3208,2.7934.4721q.5394-.1728,1.0408-.334.3882-.1362.7522-.2636c.4685-.17.9082-.3379,1.3327-.5093,1.1316-.2695,2.1326-.5078,3.2479-.773.7773-.352,1.508-.6831,2.2231-1.0068,2.0879-.6709,4.7163-1.2822,5.4551-1.9009l2.3642-.5659,3.9339,1.21a15.6666,15.6666,0,0,1,3.45,1.3735c.5061.32,1.4094.7232,1.8335,1.0259a10.3127,10.3127,0,0,0,2.3147,1.1421q.7848.3,1.7813.6181.5.1539,1.0517.3247.6918.1986,1.45.4156l.5676.1255,1.2625-.3316.8428-.2427,1.6118-.4707c2.6106-.771,5.1853-1.5473,8.3923-2.184.2481-.05.5427-.1216.77-.1871.6714-.1923,1.3349-.3828,2.0036-.5742q.501-.1443,1.0079-.291c.2534-.0786.5087-.1577.7678-.2378q.2567.0432.522.0889.35.0709.71.1445.761.1677,1.5571.3433c2.5139.5825,5.0618,1.2334,7.3194,1.6045,1.3713.2231,3.0031.5815,5.0429.9829.2913.083.6485.185,1.2661.3618.5779-.1172,1.5447-.3135,2.5115-.51,2.7349-.5908,5.5393-1.1757,8.177-1.8188,1.9778-.4834,3.9158-.9365,5.9444-1.3789.604.164,1.2238.332,1.8474.5014,3.508.9732,7,1.9414,10.5075,2.9146l1.1714.3164q1.4337.359,2.865.7173c5.2315-1.1807,10.5872-2.169,15.8674-3.2266.2579-.0493.5147-.0991.7618-.1465,1.851.5542,3.6438,1.1792,5.4668,1.7627.8969.7422,2.6911,1.5288,5.8921,2.4737.97.2841,1.9043.6377,2.7268.9531.2871.1108.5691.22.8772.3389.1921.0693.3928.1416.6062.2187l.7785.2691c.4075-.0435.9051-.0967,1.4837-.1587.4392-.04.94-.086,1.4951-.1363a3.1494,3.1494,0,0,1,.864.584c.4507.5855,4.3874.3042,8.8838-.67l3.8938-.8345c-.3465-.0815.906.167,1.581.2788.7752.1329,1.5389.2486,2.2859.3389,1.8931.4146,3.7766.7539,5.6629,1.11q1.4121.279,2.833.5586.7081.1553,1.4211.31.8244.1956,1.6558.3921c.3945.0894.8213.1865,1.2358.2808.605-.16,1.2329-.3326,1.71-.4771,5.1787-1.6977,10.83-3.3921,13.877-4.8989.1282-.0469.2549-.0938.3774-.1387a.8117.8117,0,0,0,.1714-.082c.084-.0493.1582-.0928.2151-.1265q.1575.0008.3059.001a2.8883,2.8883,0,0,1,.2974.0317l.3632.0464c.4788.0606.9351.1182,1.3777.1738.885.1138,1.7146.2208,2.5577.3287,1.0217.1372,2.208.311,3.3127.5434,2.062.4312,3.813.7036,5.6248.9336.4052.0537.8186.1089,1.2309.1636.5147.0786,1.0283.1572,1.5293.2339q.6354-.21,1.2588-.416.4731-.1678.9331-.3316c.6116-.2207,1.2-.4409,1.7517-.6636a28.8722,28.8722,0,0,1,2.9468-.8525c2.813-.7031,5.5015-1.3491,8.44-2.23l1.0447-.2993c.4834.1133.9673.2266,1.4468.3394.5544.1445,1.1035.288,1.6421.4287,1.0734.2954,2.0976.6074,3.029.914a68.9275,68.9275,0,0,0,6.9932,1.7959c.7927.1695,1.5757.3316,2.39.4649.3869.0669.7739.1338,1.1506.1992l1.4568-.46,1.0757-.355q1.0745-.3567,2.1423-.71c1.4209-.48,2.83-.9561,4.2151-1.4238,1.5964-.5508,3.147-1.0147,4.8743-1.4707.893-.2456,1.7768-.4888,2.6074-.7178q1.11.2087,2.1863.4106l2.3567.4068q2.3214.3808,4.4909.666c2.4873.331,4.8758.6841,7.576,1.1758,1.6064-.4878,3.1662-.9336,4.8986-1.3892,1.8094-.4746,3.7083-1.0063,5.4129-1.5444,2.0515-.6441,4.1-1.2222,6.1364-1.7613,1.2872.3741,2.5557.7427,3.8243,1.1119,1.1145.3325,2.1643.7094,3.1508,1.0634.89.3208,1.7444.649,2.4978.96a30.1822,30.1822,0,0,0,5.0511,1.5278c.6179.1421,1.2385.2852,1.9055.439q2.26-.5442,4.5981-1.1069,2.2713-.523,4.6141-1.0122c1.1718-.2442,2.3886-.5176,3.5178-.7979.7588-.188,1.4753-.3515,2.1433-.4868q.5021-.0945.9641-.1812c.2817-.0473.5488-.0864.7976-.1167a13.35,13.35,0,0,1,1.9087.85c.2266.1308.635.2968.9453.4409,2.73.8144,5.3948,1.6093,8.6741,2.5879.3247.1557.9074.4511,1.6094.7588a17.3324,17.3324,0,0,0,1.8332.7055c.4553.1358.91.2715,1.3806.4116,2.0061-.3632,4.0127-.727,6.041-1.0942,1.8975-.3555,3.8106-.74,5.7527-1.1929.6568-.1533,1.3489-.3012,1.9175-.4638l1.6165-.45q.4012-.107.809-.2163l.492-.1436.4873.0981.8027.1905q.8273.2043,1.6624.4106,1.6633.438,3.353.8823c2.2461.6114,4.5117,1.2657,6.7842,1.9361.5173.1489,1.03.2959,1.5251.438.6184.1675,1.2156.33,1.7774.4819l2.5551-.5806q1.0807-.2651,2.1341-.5234c1.4028-.3628,2.779-.7183,4.1575-1.0747.7321-.2031,1.4157-.3921,2.2294-.6177,1.471-.2109,2.9256-.4189,4.5137-.647.5647-.1269.7666-.184,1.05-.2631.6975.1445,1.3653.2832,2.0191.4189.7548.1475,1.4936.2915,2.2351.4356,1.4843.2836,2.9792.5678,4.6181.9428,1.1585.3745,2.3672.7364,3.5987,1.1,1.2973.3848,2.6169.7759,3.9358,1.167.6079-.1074,1.2363-.2187,1.8613-.33a76.644,76.644,0,0,0,8.4922-1.873c1.2182-.3482,2.7956-.709,4.1994-.9951.7068-.149,1.4063-.2964,2.0486-.4322q1.1459.2242,2.2486.44,1.182.2088,2.3137.4077c1.5117.2481,2.96.4473,4.3374.5835a33.4853,33.4853,0,0,1,5.2507.99c.8093.2129,1.64.4317,2.4273.6387.2229-.0474.43-.0918.6345-.1357a69.5306,69.5306,0,0,0,7.2229-1.87c2.5886-.8257,5.3115-1.5987,8.019-2.2344.1638-.0391.3294-.0786.5149-.1231l.9885.2266c.3706.08.7464.16,1.1238.24l2.2742.46q4.3154.8525,8.6477,1.708.954.1933,1.83.41c.6174.1621,1.2077.3173,1.7671.4643.95-.2012,1.6845-.3242,2.3877-.4292a40.8516,40.8516,0,0,0,4.7212-1.0737q2.3649-.6687,4.737-1.34l2.3731-.66c.788-.2124,1.6472-.4366,2.1789-.5572l.7044.1827c.801.2036,1.8349.3632,2.7165.5131q4.6381.79,9.21,1.5694.9665.1692,1.94.34,1.0173.1971,2.0464.3965c2.3533-.6441,4.7344-1.2954,7.1016-1.9434.8938-.2451,1.8759-.4863,2.6435-.7456,2.1738-.7334,4.4663-1.4194,6.64-2.018,1.861.39,3.8855.8525,5.8335,1.3237.7534.1836,1.5649.3393,2.3545.5156,2.8178.6284,5.6469,1.2593,8.4541,1.8858.6355-.1626,1.2641-.3238,1.8918-.4839,2.4406-.5943,4.8324-1.1763,7.24-1.7627.6224-.1524,1.27-.3394,1.9022-.52.5179-.1495,1.1183-.3824,1.483-.4541.6984-.1343,1.3882-.2891,2.0726-.459l1.0231-.2652.8279-.2314q1.3915.3442,2.7913.69c1,.2437,2.0048.4907,3.0156.7627,1.089.3618,2.36.7608,3.474,1.16q1.6975.6078,3.4206,1.143l1.7283.522,1.9856.5615,2.3972-.518,2.1448-.4971q2.14-.5318,4.2875-1.0654l3.0478-.74c.6395-.1518,1.5208-.3022,1.9059-.436.4382-.1519.9043-.2964,1.4-.4375q.6929-.1867,1.4639-.3945c.7968.1748,1.9429.4682,2.9541.72,1.04.2588,2.0784.5117,3.0595.7158a21.5913,21.5913,0,0,1,2.2673.5889c2.2978.81,4.8328,1.4057,7.2171,2.1294.2949.0864.61.1787.8944.2617.2973-.0576.5659-.1065.81-.1411a89.0907,89.0907,0,0,0,11.39-2.4366q1.143-.31,2.2729-.5673c.7554-.1724,1.5109-.3287,2.1576-.4458q.817.263,1.6078.5171.8227.279,1.6107.5786c.43.1552.8906.3217,1.3516.4887a61.478,61.478,0,0,0,8.1775,2.3594c.58.1152,1.2483.291,2.0693.4834l1.5615.4844,4.7785-.8281c1.9043-.5518,3.8629-1.0557,5.865-1.5284q1.5043-.3405,3.0343-.687,1.47-.31,2.9613-.6245c1.3864.398,2.8106.8071,4.2414,1.2178,1.3746.4028,2.876.7915,4.2234,1.1025a57.2643,57.2643,0,0,1,5.955,1.7364c.29.0986.5816.1977.8787.2983.355.1147.7166.2319,1.09.352q1.3323-.2249,2.7009-.456l2.5708-.4844c1.7266-.3481,3.4747-.7485,5.2233-1.22,1.6461-.4429,3.3336-.7715,5.0131-1.1387l1.0907-.2485,3.0978.5771c1.0821.2139,2.1652.4522,3.25.7539.2762.0787.7475.1329,1.1292.2007.78.1416,1.5426.2808,2.3221.4224.6865.1382,1.6811.3384,2.8393.5713,1.1969.2558,2.5628.5473,3.9484.8432,2.9259-.768,5.9393-1.559,7.4045-1.9438,2.4027-.606,4.8631-1.32,7.2891-1.9678.5706-.1479,1.1384-.2949,1.6989-.44.74.1714,1.4717.3413,2.2034.5112l4.27.9839c1.9248.43,3.8657.8628,6.629,1.48.4444.0791.9173.1631,1.46.26.5994.1142,1.2755.2426,2.0734.3945.8276-.2412,1.8159-.53,2.8889-.8428,1.0045-.2754,2.0882-.5722,3.18-.8716,1.14-.3027,2.4372-.6714,3.4087-1.0151,1.15-.4072,2.3228-.7725,3.5026-1.106l1.7735-.4775q.8151-.2,1.6245-.3979c.2575.0659.51.1308.7613.1958,3.6135.916,7.2473,1.6528,10.9382,2.3632.761.1475,1.6408.3047,2.3086.4859.8184.2212,1.5442.4052,2.631.65q.68-.18,1.3653-.3614.5856-.1647,1.1795-.332c.7908-.2295,1.5921-.4751,2.4138-.7378,3.583-1.1445,7.2457-1.9985,10.7236-2.7612.2464-.0513.4909-.1026.7143-.1489.5411.15,1.5057.3745,2.33.5566q1.2659.279,2.5081.5151c1.6591.3169,3.2978.5835,4.95.8189.8357.1206,1.7835.2817,2.6747.4668q2.0819.43,4.1641.8594,3.369-.9222,6.7153-1.8389c2.1808-.5855,4.3464-1.1006,7.175-1.81.1923-.0644,1.0249-.3418,1.9533-.6513.203-.1529.5858-.35.5779-.4424A3.6485,3.6485,0,0,0,1056.4383,3.0039Z" transform="translate(-0.9733)" style="fill:#af51c3"/></g></g></g></svg>