<svg xmlns="http://www.w3.org/2000/svg" viewBox="0 0 103.602 124.661"><title>icon-purp2</title><g id="Layer_2" data-name="Layer 2"><g id="Text"><path d="M88.971,50.489A31.465,31.465,0,0,0,52.108,20.81c-7.316,1.231-13.84.912-20.891,3.688-6.481,2.551-12.322,6.464-18.1,10.345a29.377,29.377,0,0,0-6.546,5.379C3.455,44,2.436,49.024,1.573,53.838A73.946,73.946,0,0,0,.008,68.3c.307,15.439,10.427,30.056,24.456,36.51s31.26,4.832,44.3-3.442C78.9,94.937,86.707,84.285,88,72.349c.388-3.582.2-7.2.379-10.8.17-3.416.672-6.819.617-10.239Q88.989,50.9,88.971,50.489Z" fill="#af51c3" opacity="0.75"/><g opacity="0.15"><path d="M64.531,124.661a94.221,94.221,0,0,0,9.98-5.951,68.185,68.185,0,0,0,10.047-8.354A60.163,60.163,0,0,0,93.1,99.336a74.616,74.616,0,0,0,5.564-11.32,73.692,73.692,0,0,0,3.656-12.127c.226-1.084.424-2.187.593-3.316l.414-3.468c.153-1.153.155-2.329.217-3.5s.082-2.336.025-3.508A58.035,58.035,0,0,0,101.6,48.22a63.688,63.688,0,0,0-2.155-6.661,64.5,64.5,0,0,0-2.934-6.312A62.553,62.553,0,0,0,78.857,14.653,65.508,65.508,0,0,0,67.6,7.793,72.839,72.839,0,0,0,55.836,3.305,80.3,80.3,0,0,0,44,.818C42.029.511,40.077.382,38.115.2,36.167.111,34.209-.023,32.274,0A96.763,96.763,0,0,0,9.4,2.659L19.667,45.367c8.125-1.956,16.941-1.92,23.963.133a28.959,28.959,0,0,1,4.843,1.834,21.584,21.584,0,0,1,3.914,2.373,18.64,18.64,0,0,1,3.091,2.881,16.362,16.362,0,0,1,2.259,3.291c.339.561.548,1.167.829,1.743.18.608.446,1.189.566,1.8a14.154,14.154,0,0,1,.525,3.688,4.823,4.823,0,0,1-.009.938A6.96,6.96,0,0,1,59.6,65c-.047.315-.081.631-.1.95-.047.337-.111.7-.188,1.063a30.049,30.049,0,0,1-1.5,4.881,31.015,31.015,0,0,1-2.25,4.645,16.082,16.082,0,0,1-2.318,3.023A36.252,36.252,0,0,1,44.3,85.673Z" fill="none"/><path d="M15,25.962c-.013-.058.054-.062.091-.084a.668.668,0,0,1,.562-.441C15.386,25.579,15.327,25.861,15,25.962Z" fill="#fff" fill-rule="evenodd"/><path d="M18.069,28.566c.025-.146.313-.1.441-.167C18.361,28.51,18.221,28.725,18.069,28.566Z" fill="#fff" fill-rule="evenodd"/><path d="M18.792,27.972c-.026-.185.235-.147.386-.2C19.216,28.02,18.907,27.949,18.792,27.972Z" fill="#fff" fill-rule="evenodd"/><path d="M19.21,28.2c-.145-.068.292-.1.333-.186l.035.177c.357.015.353-.255.691-.255C20.138,28.379,19.559,28.247,19.21,28.2Z" fill="#fff" fill-rule="evenodd"/><path d="M19.241,27.825c-.044-.2.156-.21.325-.245A.975.975,0,0,1,19.241,27.825Z" fill="#fff" fill-rule="evenodd"/><path d="M19.509,27.836a.53.53,0,0,1,.654-.187C20.08,27.836,19.825,27.676,19.509,27.836Z" fill="#fff" fill-rule="evenodd"/><path d="M17.579,18.063c-.009-.142.27-.087.188-.28.047-.02.059.013.069.048l.118-.022C17.928,17.962,17.75,18.01,17.579,18.063Z" fill="#fff" fill-rule="evenodd"/><path d="M18.406,18.273c.03-.134.139-.213.317-.243C18.693,18.163,18.584,18.242,18.406,18.273Z" fill="#fff" fill-rule="evenodd"/><path d="M17.281,11.341c.178-.18.5-.167.686-.19C17.884,11.307,17.487,11.264,17.281,11.341Z" fill="#fff" fill-rule="evenodd"/><path d="M20.852,27.944c.162-.283.477-.116.621-.058C21.369,28.031,21.079,27.843,20.852,27.944Z" fill="#fff" fill-rule="evenodd"/><path d="M20.075,17.835c-.148-.109-.191.087-.408.077-.058-.149.4-.2.193-.28.02-.144.325-.083.461-.136C20.257,17.622,20.059,17.65,20.075,17.835Z" fill="#fff" fill-rule="evenodd"/><path d="M19.267,11.1c-.111-.042.861-.3.9-.071A6.406,6.406,0,0,0,19.267,11.1Z" fill="#fff" fill-rule="evenodd"/><path d="M22.04,17.306c.069-.1.282-.213.405-.12C22.437,17.323,22.157,17.253,22.04,17.306Z" fill="#fff" fill-rule="evenodd"/><path d="M23.674,27.919c-.022-.285.287-.077.314.015C23.924,28.139,23.834,27.8,23.674,27.919Z" fill="#fff" fill-rule="evenodd"/><path d="M26.7,27.565c-.166-.071.289-.119.308-.032C26.951,27.8,26.883,27.481,26.7,27.565Z" fill="#fff" fill-rule="evenodd"/><path d="M26.641,26.967c0-.087.153-.037.145-.136.089.1.62-.066.528.066Z" fill="#fff" fill-rule="evenodd"/><path d="M29.432,27.6c.057-.149.778-.2.825.069A2.1,2.1,0,0,0,29.432,27.6Z" fill="#fff" fill-rule="evenodd"/><path d="M30.512,17.576c-.214.226-.835-.061,0,0Z" fill="#fff" fill-rule="evenodd"/><path d="M32.1,28.053c.154-.317.444-.205.765-.133C32.7,28.2,32.341,27.921,32.1,28.053Z" fill="#fff" fill-rule="evenodd"/><path d="M33.225,18.917c.051-.089.088-.191.234-.183.133.131-.022.234,0,.42C33.162,19.169,33.444,18.951,33.225,18.917Z" fill="#fff" fill-rule="evenodd"/><path d="M37,19.081c.032-.132.287,0,.409-.029C37.341,19.275,37.172,19.078,37,19.081Z" fill="#fff" fill-rule="evenodd"/><path d="M36.5,28.492c.015-.1.388-.212.351.026C36.7,28.423,36.686,28.492,36.5,28.492Z" fill="#fff" fill-rule="evenodd"/><path d="M37.469,16.047c-.021-.214.484-.036.417.152C37.662,16.222,37.662,16.052,37.469,16.047Z" fill="#fff" fill-rule="evenodd"/><path d="M37.059,28.474c.423-.21.389-.1.97-.109C37.841,28.593,37.424,28.5,37.059,28.474Z" fill="#fff" fill-rule="evenodd"/><path d="M37.916,29.679c.109-.125.193.234.433.153C38.217,29.98,37.963,29.8,37.916,29.679Z" fill="#fff" fill-rule="evenodd"/><path d="M38.442,29.9c.026-.123.189-.044.215-.166.065.023.026.153.026.243A.275.275,0,0,0,38.442,29.9Z" fill="#fff" fill-rule="evenodd"/><path d="M38.647,28.29c.16.265.476.149.792.2C39.239,28.631,38.7,28.751,38.647,28.29Z" fill="#fff" fill-rule="evenodd"/><path d="M37.537,41.553c-.013-.213.138-.085.162-.04C38.061,41.544,37.55,41.648,37.537,41.553Z" fill="#fff" fill-rule="evenodd"/><path d="M40.049,19.555c-.162-.1.094-.238.25-.153C40.367,19.649,40.047,19.39,40.049,19.555Z" fill="#fff" fill-rule="evenodd"/><path d="M40.355,26.362c.047-.266.382-.218.543-.115C40.764,26.466,40.54,26.173,40.355,26.362Z" fill="#fff" fill-rule="evenodd"/><path d="M40.328,27.87c.036-.053.153-.073.066-.113.069-.144.219.075.18.2a.247.247,0,0,1-.209.035C40.381,27.927,40.366,27.887,40.328,27.87Z" fill="#fff" fill-rule="evenodd"/><path d="M41.492,25.776c-.15-.107.317-.05.316.039,0,.051-.028.053-.061.052-.043-.016-.052.018-.06.053C41.608,25.885,41.668,25.728,41.492,25.776Z" fill="#fff" fill-rule="evenodd"/><path d="M43.107,19.932c-.108-.135.427.019.584.031C43.51,20.122,43.406,19.925,43.107,19.932Z" fill="#fff" fill-rule="evenodd"/><path d="M43.385,22.65l.22.038C43.611,22.924,43.305,22.871,43.385,22.65Z" fill="#fff" fill-rule="evenodd"/><path d="M44.508,22.723c.163-.309.362.144.607.105C45,22.925,44.593,22.815,44.508,22.723Z" fill="#fff" fill-rule="evenodd"/><path d="M43.619,32.732c.139.009.118.152.254.168C43.828,33.078,43.561,32.926,43.619,32.732Z" fill="#fff" fill-rule="evenodd"/><path d="M46.847,25.574c.112-.157.388-.075.5-.011C47.22,25.639,47,25.553,46.847,25.574Z" fill="#fff" fill-rule="evenodd"/><path d="M47.636,25.751c.095-.181.46.116.713.038C48.213,25.938,47.727,25.79,47.636,25.751Z" fill="#fff" fill-rule="evenodd"/><path d="M46.6,34.024c.1-.115.336.046.217.247C46.664,34.252,46.819,33.995,46.6,34.024Z" fill="#fff" fill-rule="evenodd"/><path d="M48.817,26.544c.1-.192.35-.07.562-.03,0,.158-.378,0-.218.188C49.052,26.83,48.956,26.553,48.817,26.544Z" fill="#fff" fill-rule="evenodd"/><path d="M49.808,26.572c.07.146-.055.106-.118.216-.074-.078-.276-.075-.208-.246a.236.236,0,0,0,.139.1C49.684,26.621,49.712,26.527,49.808,26.572Z" fill="#fff" fill-rule="evenodd"/><path d="M49.773,26.5c.194-.124.268.278.517.144C50.144,26.9,49.812,26.686,49.773,26.5Z" fill="#fff" fill-rule="evenodd"/><path d="M53.7,17.323c.042-.245.323,0,.3.088C53.9,17.564,53.872,17.292,53.7,17.323Z" fill="#fff" fill-rule="evenodd"/><path d="M53.459,22.353c.03-.232.4,0,.259.151A.378.378,0,0,0,53.459,22.353Z" fill="#fff" fill-rule="evenodd"/><path d="M55.487,20.129c.112-.059.359-.057.429.083C55.845,20.33,55.62,20.137,55.487,20.129Z" fill="#fff" fill-rule="evenodd"/><path d="M60.1,10.81a.34.34,0,0,1,.315-.016c-.046.1.04.152-.015.252l-.2-.076C60.333,10.905,60.309,10.863,60.1,10.81Z" fill="#fff" fill-rule="evenodd"/><path d="M56.626,26.931a7.462,7.462,0,0,1,2.1,1.026C57.745,28.2,57.427,27.037,56.626,26.931Z" fill="#fff" fill-rule="evenodd"/><path d="M60.638,17.49c.061-.187.447-.108.309.128Z" fill="#fff" fill-rule="evenodd"/><path d="M62.089,15.3c.091-.1.419.112.45.187C62.369,15.61,62.276,15.323,62.089,15.3Z" fill="#fff" fill-rule="evenodd"/><path d="M61.832,17.94a.646.646,0,0,1,.476.093C62.262,18.263,61.988,17.965,61.832,17.94Z" fill="#fff" fill-rule="evenodd"/><path d="M62.928,17.663c-.237-.24.516-.018.308.148C63.05,17.808,63.054,17.529,62.928,17.663Z" fill="#fff" fill-rule="evenodd"/><path d="M63.359,17.87c.037-.15.63.062.493.236C63.7,17.942,63.619,18.026,63.359,17.87Z" fill="#fff" fill-rule="evenodd"/><path d="M58.7,28.142c.1-.24.376.108.484-.1.1.09.2.184.144.334C59.082,28.435,58.867,28.121,58.7,28.142Z" fill="#fff" fill-rule="evenodd"/><path d="M60.669,26.093c-.121-.242.3.011.423.075-.014.05-.046.039-.079.024l-.056.107C60.83,26.264,60.756,26,60.669,26.093Z" fill="#fff" fill-rule="evenodd"/><path d="M61.46,26.852c.137-.076.268-.174.472-.014C61.766,26.812,61.635,26.91,61.46,26.852Z" fill="#fff" fill-rule="evenodd"/><path d="M64.539,21.9a.559.559,0,0,1,.4.085C64.863,22.165,64.585,22.041,64.539,21.9Z" fill="#fff" fill-rule="evenodd"/><path d="M66.225,19.064c.045-.049.14.031.178-.038.029.213.087.2.217.327C66.447,19.445,66.254,19.156,66.225,19.064Z" fill="#fff" fill-rule="evenodd"/><path d="M68.885,14.914c.057-.23.348.106.519.152C69.312,15.21,69.077,15.009,68.885,14.914Z" fill="#fff" fill-rule="evenodd"/><path d="M56.12,40.862a.491.491,0,0,1,.362-.124c-.029.085-.21.039-.13.13A.174.174,0,0,1,56.12,40.862Z" fill="#fff" fill-rule="evenodd"/><path d="M68.367,21.555c.167-.023.575.309.513.474A2.525,2.525,0,0,0,68.367,21.555Z" fill="#fff" fill-rule="evenodd"/><path d="M56.028,42.3a.392.392,0,0,0,.132-.13c.056.266.128.2.39.314C56.307,42.656,56.108,42.471,56.028,42.3Z" fill="#fff" fill-rule="evenodd"/><path d="M57.459,40.577c.158-.123.323.085.486.162C57.767,40.81,57.69,40.683,57.459,40.577Z" fill="#fff" fill-rule="evenodd"/><path d="M56.547,42.622c.184-.3.169.2.266-.048.088-.118.116.056.062.111.449.278.053.216-.066.027-.032-.018-.067.045-.1.078C56.583,42.765,56.672,42.647,56.547,42.622Z" fill="#fff" fill-rule="evenodd"/><path d="M71.775,20.549a.315.315,0,0,1,.429.139A.681.681,0,0,1,71.775,20.549Z" fill="#fff" fill-rule="evenodd"/><path d="M70.624,22.878c.042.32.384.3.6.344a.3.3,0,0,0-.193.156,1.2,1.2,0,0,0-.486-.264A.3.3,0,0,1,70.624,22.878Z" fill="#fff" fill-rule="evenodd"/><path d="M71.146,22.361c.476.214,1.124.156,1.365.623-.085.1-.254-.158-.374-.2-.092.145.171.264.323.392A2.866,2.866,0,0,1,71.146,22.361Z" fill="#fff" fill-rule="evenodd"/><path d="M57.2,43.079c.106-.135.192.006.284.062C57.38,43.217,57.288,43.158,57.2,43.079Z" fill="#fff" fill-rule="evenodd"/><path d="M57.435,43.33c.1-.161.18-.1.261-.031C57.6,43.384,57.512,43.445,57.435,43.33Z" fill="#fff" fill-rule="evenodd"/><path d="M57.721,43.392c.176-.231.223.537.448.1a.382.382,0,0,1-.191.3C57.841,43.615,57.872,43.574,57.721,43.392Z" fill="#fff" fill-rule="evenodd"/><path d="M73.339,23.758l.11-.143a1.062,1.062,0,0,0,.488.521c-.079.139-.279-.282-.333-.028C73.536,23.991,73.563,23.867,73.339,23.758Z" fill="#fff" fill-rule="evenodd"/><path d="M67.271,31.805c.152.128.366.248.256.416C67.369,32.094,67.132,31.98,67.271,31.805Z" fill="#fff" fill-rule="evenodd"/><path d="M73.753,24.373c.17-.049.186,0,.24-.194a.211.211,0,0,0,.355.119c.2.112-.163.25.075.36A2.7,2.7,0,0,1,73.753,24.373Z" fill="#fff" fill-rule="evenodd"/><path d="M74.7,23.509c.128-.072.5.138.3.309C74.979,23.711,74.844,23.61,74.7,23.509Z" fill="#fff" fill-rule="evenodd"/><path d="M74.405,24.794a.5.5,0,0,1,.5.274A.8.8,0,0,1,74.405,24.794Z" fill="#fff" fill-rule="evenodd"/><path d="M74.361,25.072c.195-.109.288.027.357.228C74.628,25.4,74.476,25.126,74.361,25.072Z" fill="#fff" fill-rule="evenodd"/><path d="M75.9,24.42c-.043-.121.584.335.585.427C76.324,24.886,76.094,24.535,75.9,24.42Z" fill="#fff" fill-rule="evenodd"/><path d="M59.361,44.147c.089-.095.157-.034.223.034-.1.155-.173.139-.265.247C59.3,44.343,59.416,44.22,59.361,44.147Z" fill="#fff" fill-rule="evenodd"/><path d="M75.084,26.172c.061-.221.791.3.75.413C75.818,26.628,75.21,26.183,75.084,26.172Z" fill="#fff" fill-rule="evenodd"/><path d="M78.851,23.006l.172.151a.181.181,0,0,1-.312.125C78.87,23.2,78.733,23.1,78.851,23.006Z" fill="#fff" fill-rule="evenodd"/><path d="M60.539,43.81c.095-.036.206-.177.283-.075C60.717,43.828,60.613,43.926,60.539,43.81Z" fill="#fff" fill-rule="evenodd"/><path d="M60.933,44.14c.125-.135.211-.021.3.03C61.105,44.305,61.034,44.178,60.933,44.14Z" fill="#fff" fill-rule="evenodd"/><path d="M77.251,27.112c.169-.011.048-.061.164-.177.034.118.194.257.043.371C77.39,27.239,77.324,27.172,77.251,27.112Z" fill="#fff" fill-rule="evenodd"/><path d="M77.721,28.158c-.052.093-.118.044-.183-.012a.094.094,0,0,0-.033.137C77.192,28.266,77.529,27.9,77.721,28.158Z" fill="#fff" fill-rule="evenodd"/><path d="M79.743,25.939c.411.18.289.472.727.64C80.259,26.814,79.727,26.115,79.743,25.939Z" fill="#fff" fill-rule="evenodd"/><path d="M77.936,28.543c.159-.09.337.034.509.085-.07.009-.272.041-.077.178-.034.088-.3-.09-.176.078C77.859,28.882,78.272,28.583,77.936,28.543Z" fill="#fff" fill-rule="evenodd"/><path d="M78.439,28.027c.313-.106.541.522.7.707C78.718,28.575,78.833,28.205,78.439,28.027Z" fill="#fff" fill-rule="evenodd"/><path d="M61.532,45.315c.188-.037.1.262.263.338C61.6,45.69,61.573,45.418,61.532,45.315Z" fill="#fff" fill-rule="evenodd"/><path d="M81.806,28.189c-.054-.069.036-.12.079-.176.129.2.473.24.427.114.344.177.424.557.785.811a.281.281,0,0,0-.228.1C82.652,28.416,82.206,28.523,81.806,28.189Z" fill="#fff" fill-rule="evenodd"/><path d="M80.342,30.342c.206.049.628.456.239.456C80.689,30.578,80.347,30.58,80.342,30.342Z" fill="#fff" fill-rule="evenodd"/><path d="M83.266,28.583c.061-.212.463.252.248.286Z" fill="#fff" fill-rule="evenodd"/><path d="M80.946,30.854c0-.153.4.394.558.461C81.237,31.427,81.141,31.092,80.946,30.854Z" fill="#fff" fill-rule="evenodd"/><path d="M80.859,31.027a1.806,1.806,0,0,1,.561,1.2C81.109,32.083,81.135,31.448,80.859,31.027Z" fill="#fff" fill-rule="evenodd"/><path d="M83.061,29.171c.3-.18.123.47.385.261.053.09-.072.146-.132.215A5.319,5.319,0,0,0,83.061,29.171Z" fill="#fff" fill-rule="evenodd"/><path d="M81.633,30.822c.09-.095.189.176.281.234-.172.082-.12.037-.227.2C81.609,31.1,81.712,30.975,81.633,30.822Z" fill="#fff" fill-rule="evenodd"/><path d="M82.234,30.875c.162-.041.416.03.329.2C82.454,31.084,82.345,31.018,82.234,30.875Z" fill="#fff" fill-rule="evenodd"/><path d="M82.386,31.7c.233.067.7.33.652.586-.173-.026-.184-.194-.277.038C82.793,32.143,82.589,31.919,82.386,31.7Z" fill="#fff" fill-rule="evenodd"/><path d="M73.158,40.908c-.031-.056.059-.1.11-.153.145.109.026.193.069.291C73.16,41.163,73.278,40.788,73.158,40.908Z" fill="#fff" fill-rule="evenodd"/><path d="M83.547,33.358c.18-.295,1.017.9.552.941-.043-.074.051-.115.1-.165C83.931,33.977,83.87,33.492,83.547,33.358Z" fill="#fff" fill-rule="evenodd"/><path d="M73.247,42.126c.108.028.293,0,.259.144l-.147.1A.317.317,0,0,1,73.247,42.126Z" fill="#fff" fill-rule="evenodd"/><path d="M74.336,42.077c.028-.077.351.242.451.422C74.616,42.485,74.48,42.269,74.336,42.077Z" fill="#fff" fill-rule="evenodd"/><path d="M64.239,49.614c.058.094-.062.193-.031.287C64.094,49.932,64.112,49.7,64.239,49.614Z" fill="#fff" fill-rule="evenodd"/><path d="M74.227,43.4c.168-.016.347-.067.454.152C74.521,43.533,74.351,43.552,74.227,43.4Z" fill="#fff" fill-rule="evenodd"/><path d="M86.2,36.285c.13-.047.216.291.327.4C86.359,36.7,86.26,36.5,86.2,36.285Z" fill="#fff" fill-rule="evenodd"/><path d="M74.987,43.808c.112-.054.157.14.27.086.034.033.008.055-.021.078-.049.018-.037.048-.021.077A.208.208,0,0,1,74.987,43.808Z" fill="#fff" fill-rule="evenodd"/><path d="M64.919,50.979l.155-.092c.008.1.395.64.087.25C65.083,51.091,64.963,51.107,64.919,50.979Z" fill="#fff" fill-rule="evenodd"/><path d="M63.138,52.191c.166-.046.191.1.18.207C63.188,52.443,63.21,52.243,63.138,52.191Z" fill="#fff" fill-rule="evenodd"/><path d="M76.377,45.639c.211-.1.367.43.368.547C76.627,46.151,76.584,45.715,76.377,45.639Z" fill="#fff" fill-rule="evenodd"/><path d="M63.471,52.928c.085.061.3.021.153.148C63.473,53.074,63.365,53.072,63.471,52.928Z" fill="#fff" fill-rule="evenodd"/><path d="M63.391,53.273l.16-.083c-.039.076.027.154-.148.226C63.367,53.369,63.434,53.322,63.391,53.273Z" fill="#fff" fill-rule="evenodd"/><path d="M89.074,40.739c.144,0,.275.062.37.309C89.294,41.076,89.194,40.862,89.074,40.739Z" fill="#fff" fill-rule="evenodd"/><path d="M66,52.653c.053-.185.151.081.268-.008.014.066-.058.122-.185.172C65.982,52.768,66.179,52.6,66,52.653Z" fill="#fff" fill-rule="evenodd"/><path d="M64.06,53.723c.229-.1.024.121.19.132l-.163.078C64.007,53.858,64.141,53.8,64.06,53.723Z" fill="#fff" fill-rule="evenodd"/><path d="M64.724,53.592c.071-.148.069.241.288.055C64.975,53.852,64.711,53.768,64.724,53.592Z" fill="#fff" fill-rule="evenodd"/><path d="M64.007,54.337c.054-.023.06.018.083.036s.062-.008.055-.025c.078-.024.08.055.11.1C64.067,54.549,64.047,54.43,64.007,54.337Z" fill="#fff" fill-rule="evenodd"/><path d="M65.139,54.351l.22-.095c-.057.074.01.16.05.245C65.228,54.574,65.223,54.408,65.139,54.351Z" fill="#fff" fill-rule="evenodd"/><path d="M64.269,55.62a3.075,3.075,0,0,1,.335.221A.265.265,0,0,1,64.269,55.62Z" fill="#fff" fill-rule="evenodd"/><path d="M91.145,44.768c.252,0,.2.607.345.906-.139.08-.093-.413-.271-.214C91.352,45.2,91.22,45.116,91.145,44.768Z" fill="#fff" fill-rule="evenodd"/><path d="M65.353,58.689l.234-.054c-.158.025-.216.248-.04.11.2.005-.105.106-.026.173A.229.229,0,0,1,65.353,58.689Z" fill="#fff" fill-rule="evenodd"/><path d="M65.709,60.408c.126.013.145.106.148.21C65.765,60.541,65.632,60.522,65.709,60.408Z" fill="#fff" fill-rule="evenodd"/><path d="M96.531,55.924c.126,0,.062.338.17.37a.612.612,0,0,0,.088-.253c.195.11.02.422-.2.349C96.606,56.114,96.439,56.08,96.531,55.924Z" fill="#fff" fill-rule="evenodd"/><path d="M67.156,60.821c.055.014.111.028.118-.015.134.063-.118.079.029.207C67.15,61.026,67.168,60.912,67.156,60.821Z" fill="#fff" fill-rule="evenodd"/><path d="M66.514,61c.123.033.114.275.049.333C66.439,61.3,66.448,61.06,66.514,61Z" fill="#fff" fill-rule="evenodd"/><path d="M67.308,61.047c.078.1.033.221.056.379-.14-.05-.051-.269-.17-.331C67.265,61.093,67.3,61.075,67.308,61.047Z" fill="#fff" fill-rule="evenodd"/><path d="M65.128,62.836c.171.069-.081.193.081.281C64.871,63.123,65.139,62.939,65.128,62.836Z" fill="#fff" fill-rule="evenodd"/><path d="M65.728,62.813c.191-.048.053.1.244.056.024.075-.17.042-.172.1C65.6,62.949,65.765,62.913,65.728,62.813Z" fill="#fff" fill-rule="evenodd"/><path d="M64.776,62.943c-.081.041-.026.146-.106.188C64.517,63.068,64.525,62.952,64.776,62.943Z" fill="#fff" fill-rule="evenodd"/><path d="M65.773,63.394c.177.09.22.42.061.487a.2.2,0,0,1-.175-.163c.153.134.247-.279-.054-.194C65.579,63.44,65.836,63.5,65.773,63.394Z" fill="#fff" fill-rule="evenodd"/><path d="M66.122,64.577l.18.008c.063.126-.225.043-.181.157C65.98,64.727,66.087,64.6,66.122,64.577Z" fill="#fff" fill-rule="evenodd"/><path d="M65.524,65.133c.327.05.023.185.158.305C65.477,65.4,65.639,65.214,65.524,65.133Z" fill="#fff" fill-rule="evenodd"/><path d="M64.206,65.136l.18.013c-.139.012.032.216-.2.169Z" fill="#fff" fill-rule="evenodd"/><path d="M96.32,71.258c.149.046.1.376.092.714-.1-.042-.121.042-.142.133C96.2,71.913,96.414,71.569,96.32,71.258Z" fill="#fff" fill-rule="evenodd"/><path d="M62.782,66.844c.111.061.005.2.081.269C62.661,67.055,62.726,66.91,62.782,66.844Z" fill="#fff" fill-rule="evenodd"/><path d="M94.813,78.789c.1.078.1.228.079.4C94.639,79.214,94.765,78.975,94.813,78.789Z" fill="#fff" fill-rule="evenodd"/><path d="M93.276,85.363c.038.057.016.216.087.107a1.593,1.593,0,0,1-.4,1.054C93.051,86.111,93.152,85.874,93.276,85.363Z" fill="#fff" fill-rule="evenodd"/><path d="M92.5,85.226c.1.187.054.452.138.648C92.336,85.69,92.409,85.541,92.5,85.226Z" fill="#fff" fill-rule="evenodd"/><path d="M92.489,86.417c.069.015.092-.1.131-.174.131.136-.019.424.1.564-.079.1-.144-.01-.085-.108-.221-.021-.141-.046-.361-.067a2.012,2.012,0,0,0,.059-.648.278.278,0,0,1,.331-.023C92.778,86.222,92.4,86.231,92.489,86.417Z" fill="#fff" fill-rule="evenodd"/><path d="M92.863,86.937c.179.17-.054.329-.07.5-.026.274.343.06-.106.26C92.663,87.373,92.816,87.266,92.863,86.937Z" fill="#fff" fill-rule="evenodd"/><path d="M60.4,74.245c.348.181-.13.134,0,.333C60.165,74.507,60.405,74.354,60.4,74.245Z" fill="#fff" fill-rule="evenodd"/><path d="M92.029,88.958c.1-.03-.127.54-.2.767A1.486,1.486,0,0,1,92.029,88.958Z" fill="#fff" fill-rule="evenodd"/><path d="M91.066,90.1c-.159.078-.08.161-.149.327C90.669,90.388,90.875,89.935,91.066,90.1Z" fill="#fff" fill-rule="evenodd"/><path d="M89.84,90.326c.04.155-.089.165-.13.412C89.483,90.7,89.773,90.352,89.84,90.326Z" fill="#fff" fill-rule="evenodd"/><path d="M58.343,76.231c-.154.054-.041.144-.064.263C58.126,76.4,58.028,76.081,58.343,76.231Z" fill="#fff" fill-rule="evenodd"/><path d="M83.446,88.943l.162.08c.054.208-.169.346-.264.526C83.4,89.34,83.325,89.178,83.446,88.943Z" fill="#fff" fill-rule="evenodd"/><path d="M84.151,92.251c.084.065.064.169-.03.3a.092.092,0,0,0-.139,0C83.868,92.467,84.1,92.271,84.151,92.251Z" fill="#fff" fill-rule="evenodd"/><path d="M84.313,92.576c.022.148-.144.21-.188.451-.208-.07-.058-.267.049-.449A.092.092,0,0,0,84.313,92.576Z" fill="#fff" fill-rule="evenodd"/><path d="M85.409,94.165a6.044,6.044,0,0,1-.121.679.2.2,0,0,0-.178.064c-.138-.05.2-.266-.043-.278C85.247,94.484,85.212,94.423,85.409,94.165Z" fill="#fff" fill-rule="evenodd"/><path d="M78.627,92.842c.292.16-.241.355-.2.636.21.175.3-.163.35-.312.34.318-.555.436-.108.706a1.436,1.436,0,0,0-.341.4c-.215-.072.078-.258.12-.391-.327.07-.052-.3-.434-.213A1.861,1.861,0,0,0,78.627,92.842Z" fill="#fff" fill-rule="evenodd"/><path d="M56.686,79.037c.292.184-.115.094.1.278-.118-.017-.22-.264-.406-.256C56.255,78.852,56.639,79.109,56.686,79.037Z" fill="#fff" fill-rule="evenodd"/><path d="M56.953,80.238c.014.191.281.11.184.355l-.238-.185C56.943,80.316,56.81,80.253,56.953,80.238Z" fill="#fff" fill-rule="evenodd"/><path d="M56.489,80.054c0,.195.27.461.194.644.071.068.1.045.158.092-.023-.1.014-.192-.008-.292.145.091.391.409.54.278.164.311-.467-.085-.537.117a1.171,1.171,0,0,0-.486-.257,2.279,2.279,0,0,1-.209-.411c.042-.092.153-.054.283.019C56.345,80.1,56.421,80.151,56.489,80.054Z" fill="#fff" fill-rule="evenodd"/><path d="M57.746,81.482c-.095.192-.3-.225-.406-.067-.006-.073-.07-.16-.05-.226C57.489,81.384,57.56,81.314,57.746,81.482Z" fill="#fff" fill-rule="evenodd"/><path d="M77.182,99.5c0,.254.078.139.275.233-.088.091-.041.16-.139.252C77.31,99.821,76.9,99.715,77.182,99.5Z" fill="#fff" fill-rule="evenodd"/><path d="M79.352,102.222c0,.184-.163.451-.338.2C79.135,102.225,79.233,102.426,79.352,102.222Z" fill="#fff" fill-rule="evenodd"/><path d="M78.749,104.738c.183.119-.376.581-.486.583-.1.154.044.278.1.414a1.439,1.439,0,0,1-.651-.114c.026-.161.582-.643.563-.4A1.856,1.856,0,0,1,78.749,104.738Z" fill="#fff" fill-rule="evenodd"/><path d="M73.361,100.978c.03.189-.313.34-.419.323C72.911,101.148,73.246,101.105,73.361,100.978Z" fill="#fff" fill-rule="evenodd"/><path d="M70.925,101.144a4.863,4.863,0,0,1-.259.563C70.466,101.465,70.721,101.273,70.925,101.144Z" fill="#fff" fill-rule="evenodd"/><path d="M65.054,95.214l.12.134c-.078.028-.154.237-.235.133C64.765,95.367,65,95.3,65.054,95.214Z" fill="#fff" fill-rule="evenodd"/><path d="M64.5,95.066c.093.131.031.242-.038.353-.109-.143-.279-.028-.275-.237C64.292,95.052,64.4,95.243,64.5,95.066Z" fill="#fff" fill-rule="evenodd"/><path d="M53.172,82.9c-.1.129-.046.258-.253.214-.043-.065.025-.125.075-.064a.265.265,0,0,0-.077-.25C52.986,82.754,53.071,82.787,53.172,82.9Z" fill="#fff" fill-rule="evenodd"/><path d="M52.93,82.714c-.343-.086-.46.28-.866.023C52.25,82.756,52.6,82.44,52.93,82.714Z" fill="#fff" fill-rule="evenodd"/><path d="M66.419,100.213c-.064.118-.245.357-.39.167C66.163,100.283,66.285,100.31,66.419,100.213Z" fill="#fff" fill-rule="evenodd"/><path d="M52.821,84.207c.093.157.169.308.081.4a1.09,1.09,0,0,1-.228-.355A.145.145,0,0,0,52.821,84.207Z" fill="#fff" fill-rule="evenodd"/><path d="M64.244,98.962a1.269,1.269,0,0,1-1.636.5C62.993,99.259,63.705,99.417,64.244,98.962Z" fill="#fff" fill-rule="evenodd"/><path d="M61.18,98.428c.1.228-.181.12-.312.3.068.112.147.13.235.052-.014.231-.325.065-.443.024-.139-.127.052-.18-.086-.307C60.786,98.367,60.977,98.456,61.18,98.428Z" fill="#fff" fill-rule="evenodd"/><path d="M52.71,88.329c-.071.248-.428.185-.616.206C52.173,88.3,52.526,88.507,52.71,88.329Z" fill="#fff" fill-rule="evenodd"/><path d="M48.2,92.516c.021.09.011.167.032.256-.154-.053-.339-.039-.362-.279C47.989,92.422,48.084,92.516,48.2,92.516Z" fill="#fff" fill-rule="evenodd"/><path d="M16.01,25.046l-.267.063c-.015-.084-.031-.168-.1-.162.073-.065.035-.2.171-.226.013.277.544.4.193.571A.362.362,0,0,0,16.01,25.046Z" fill="#fff" fill-rule="evenodd"/><path d="M25.738,28.81a.709.709,0,0,1,.818.036Z" fill="#fff" fill-rule="evenodd"/><path d="M28.3,27.551c-.11-.028-.157-.14-.317-.1.046-.166.072-.419-.18-.35a3.222,3.222,0,0,0,.449-.267c-.037.248.207.46-.071.485.048.185.142.069.261.044C28.608,27.436,28.229,27.4,28.3,27.551Z" fill="#fff" fill-rule="evenodd"/><path d="M30.986,30.051c-.04-.358.4-.45.44-.187C31,29.763,31.225,29.906,30.986,30.051Z" fill="#fff" fill-rule="evenodd"/><path d="M31.641,27.761c0,.182-.331.145-.408.065.017-.079.088-.095.1-.181C31.351,27.782,31.405,27.851,31.641,27.761Z" fill="#fff" fill-rule="evenodd"/><path d="M37.726,30.749a3.41,3.41,0,0,0,1.294.225c.115.466.991,0,.986.665.188.044.118-.336.324-.264a4.144,4.144,0,0,0,.388.349.267.267,0,0,1,.458.175c-.063-.007-.06.1-.113.106a.8.8,0,0,0-.851-.1c.343.048.758.239,1.087.128-.054-.015-.135-.005-.132-.076.136.032.166-.118.3-.077.01.134-.161.164.019.185.071-.048.117-.144.215-.145a1.256,1.256,0,0,0,1.054.3c.329.564,1.357.077,1.262.9a1.086,1.086,0,0,1,1.059.36c.087.012.077-.187.177-.146.273.44.968.028,1.353.32-.089.223-.428-.181-.37.144.69-.049,1.074.562,1.564.685-.056.128-.209,0-.244.182.141.023.4.209.613.167-.01.081.028.126-.027.241.367-.05.548.309.857.533.1-.11-.036-.251.077-.228l.253.086c-.081.057-.128.193-.035.241.393.026.781.322,1.2.209-.2.167.091.086.1.1s-.048.107-.043.112c.5.518,1.987.479,2.129.919-.009-.159.332-.266.387-.015-.04.163-.128.073-.178.182a13.727,13.727,0,0,1,1.494.67c.511.252.984.585,1.526.848-.022-.028-.073-.042-.045-.093.453.342.588.581,1.039.735a9.564,9.564,0,0,0,1.167.814c-.011-.049-.132-.232,0-.216a2.058,2.058,0,0,0,.987,1.127c-.133.257.216.525.4.294a.187.187,0,0,0-.272-.051c.008-.1-.173-.132.011-.29.167.13.741.469.324.462.659.2.535.665,1.059.912-.3.508.589.64.341.845.214-.014.371.157.322.426-.372-.11-.478-.349-.735-.384.114.072.194.153.134.27a.315.315,0,0,1,.4.334c.176-.2.151.076.152.128.171-.11-.066-.118.1-.227a.9.9,0,0,1,.471.716.17.17,0,0,0-.2-.025c.22.093.167.493.452.276-.034-.083-.238-.13-.156-.237a.632.632,0,0,1,.4.556c-.032-.041-.2-.206-.157-.068.09.168.227.112.343.165-.019.567.26.69.435,1.091.2-.1.308.113.446.233a.391.391,0,0,0-.112.146c-.112.11-.136-.082-.26.068.091.128.4.329.35.66.173-.015.552.279.283.553-.2-.181-.389-.325-.4-.506-.185.1-.439-.659-.667-.385.045-.081.107-.166.036-.23a2.992,2.992,0,0,0-.446.036c.334-.269-.3-.036-.039-.318-.04-.128-.167.045-.232.006-.024-.114.061-.253,0-.36-.977-.264-1.222-1.384-2.019-1.813.109.168.311.308.25.521-.063-.031-.032-.246-.176-.147.014.084.132.137.094.234-.227-.055-.116-.378-.24-.355.147.163-.159.16-.161.178-.012.122.186.076.111.325.083-.077.056-.124.133-.2.047.062-.053.167-.006.229.815-.1.977.9,1.657,1.1-.2.233.012.214.11.1.056.181-.031.293-.09.437.4-.153.366.483.718.457-.129.407.545.523.672.754-.007-.031.013-.066.072-.105.1.091.2.114.13.277-.168.02.029-.11-.064-.186-.179.478.34.613.458,1a.747.747,0,0,1,.283.07c-.095.153.076.285.178.421.162-.077.294-.09.341.081.254-.4-.074-.615-.273-.77.267-.027.172-.219.388-.184-.2.276.363.623.365.813-.018-.075-.07-.149.067-.228.063.095.311.187.227.353-.068-.184-.258-.008-.145-.225a.8.8,0,0,0-.187.486c.171-.077-.009-.149.211-.227.02.032.065.011.091.031-.112.134.171.383-.087.415.232.177.419.547.18.813A1.924,1.924,0,0,1,65.9,51.87c-.076.048-.2.092-.194.145.132-.037.2.043.3.05-.18.106.054.086-.052.153-.039-.039-.138.023-.2.018a.165.165,0,0,1,.037.187c.179-.059,0-.144.231-.2.038.084.142.057.2.108-.121.22.335.251.228.593-.077.023-.124,0-.231.069.073.114.3,0,.379.108-.082.028-.118-.012-.194.008.471-.012.217.589.255.7,0-.042.052-.119.094-.081.172.579.453,1.015.634,1.541-.062.026-.107-.019-.112.04.067.108.375.407.575.685.18.283.23.543-.146.53,0,.031.018.07-.037.087-.021-.038-.019-.1-.087-.088-.06.135.172.285.246.424a1.144,1.144,0,0,0-.2.17c.483.151-.1.494.153.712-.15.048-.087-.123-.265-.046.611.236.276.958.572,1.428-.154.04.011-.209-.208-.108a1.932,1.932,0,0,1,.225.712,2.314,2.314,0,0,0,.162.8c-.2-.087-.065.142-.219.172-.448-.26-.105-.644-.506-1.007-.081.033-.315.011-.288.084.588.02.29.511.532.776-.092.027-.036.117-.229.1a.984.984,0,0,1,.217,1.218c.267.088-.024.349.147.524-.094-.073-.348-.039-.37-.157.155-.05.264.094.238-.049-.445-.019-.163-.492-.331-.574,0,.089-.111-.039-.239.019.179.135,0,.283.2.4-.178.09-.342.386.011.209-.341.137-.048.4-.327.535.023-.376-.257-.5-.284-.772-.2.174-.081.256-.1.413a.442.442,0,0,1-.182-.024c-.011.485.1.812-.288,1.174.071.005.171-.006.179.033-.256.213-.159.608-.137.832.007-.041.019-.078.12-.063,0,.147.053.325-.182.326.022.078.262.045.239.147-.133.1-.37.128-.477.237.25-.089.321.477-.082.292-.062.2.1.331-.226.443a.9.9,0,0,1,.28.228c.574.04.634.119,1.071.151-.111-.2-.169-.338.215-.365-.156-.054-.118-.33.04-.383-.337-.263.141-.555.08-.939.29.031.072-.114.3-.165a2.268,2.268,0,0,0,.116.358c-.185-.059-.232,0-.359.054.176.057.131.236,0,.281.251.056.107-.142.24-.163a2.876,2.876,0,0,0,.24.442.291.291,0,0,0-.233.483.24.24,0,0,1-.3-.026.7.7,0,0,1-.145.94c.424.154-.158.356-.042.5a.273.273,0,0,1,.192-.083c-.056.1.087.123.029.229-.23-.044-.234.1-.326.174.1.053.212-.078.236.038-.112.3-.178.41-.046.68-.2,0-.361-.066-.394.157a.5.5,0,0,1,.229.083c.093-.079-.146-.188.033-.187.076.242-.333.321.014.588-.061.044-.074.137-.256.064.038-.067.233.018.2-.114-.283-.01-.244-.2-.244-.323-.068.24-.736.249-.328.437a8.275,8.275,0,0,1-.8.872c-.081-.03-.085-.086-.158-.118-.164.164.224.389-.136.32.039-.184.134-.387,0-.51a.157.157,0,0,1-.15.119c.174-.128-.217-.089-.042-.357-.228-.023-.157-.147-.328-.19-.11.064-.13.22-.3.232-.1-.32-.034-.474.248-.579.021.059-.107.168.021.191.01-.2.18.173.19-.032-.216-.161-.2-.287-.281-.431.224.121-.127-.192.218-.174-.044-.072-.182-.11-.21-.187.422-.2.465-.736.583-1-.076.039-.071.145-.254.1,0-.034-.043-.048-.051-.077.278-.062.019-.337.346-.327,0-.169-.05-.17.076-.253-.128-.047-.279-.02-.225-.193.12.024.109.1.23.128.042-.257-.139-.741.2-.868-.846-.49.406-1.068-.248-1.442.079,0,.056-.055.121-.061-.037.082.022.116.178.1-.015-.166.009-.159.129-.389-.333.045-.293.3-.548.377-.111-.072-.037-.235-.054-.352-.176.039-.187.322-.187.408,0,0,.193.023.179.069s-.169.076-.181.12c-.059.206.244.536-.116.624.032-.109-.053-.166-.182-.2.123.534-.126.84-.115,1.439-.059-.007-.069-.034-.116-.046.116.224-.109.408.117.7-.085-.021-.094-.07-.17-.094a1.4,1.4,0,0,0,.186.405c-.131-.095-.215.079-.376.073.129.017.183.06.161.132-.1.059-.137-.068-.182,0a1.517,1.517,0,0,0,.15.553c-.108-.02-.169-.214-.283-.127.27.274-.272.766-.371.955.092-.086.166.151.029.152.136.081.214-.095.242.02-.241-.007-.127.264-.247.273-.22,0-.008-.127-.152-.147a1.411,1.411,0,0,0-.4.413c-.17-.39.43-.917.072-1.452-.144,0,.021.156.021.213-.39-.063-.057.109-.219.162-.453-.191.105-.35-.019-.524-.013.039-.031.075-.129.042.006-.033-.041-.049-.047-.078.08-.2.352-.513.045-.594.051-.149.472-.2.359-.362a.752.752,0,0,1-.59.287c-.082-.017,0-.232-.1-.146a.693.693,0,0,1,.087.572c.1,0,.013-.159.2-.093-.034.093.022.264-.163.235-.076-.114-.318-.015-.189.028.07-.077.211.072.222.114-.088-.012-.069.067-.083.118a.539.539,0,0,0-.24-.018c-.024.1.04.171.07.254-.4.338.079,1.1-.22,1.473,0-.022,0-.043-.048-.051.233.144-.019.3.159.34-.064.024-.214.186-.125.227.106.008.042-.166.164-.141a.164.164,0,0,1,.1.1c-.182.047-.108.085-.059.211l-.2.053a2.751,2.751,0,0,1-.04.565.416.416,0,0,1-.16-.09.16.16,0,0,1-.134.229.777.777,0,0,0-.21-.338c.048.183-.092.412.145.551.053-.052-.122-.2.054-.177a.9.9,0,0,0,.14.36c-.1-.039-.144-.009-.148.069-.117-.127-.327-.064-.433-.028.2.095.243,0,.421.064-.1.15.076.068.078.147-.036.193-.27.132-.345.281-.163-.106-.135-.256-.257-.369-.1.187.144.295.094.472-.14-.054-.153-.131-.238-.045.273.351-.007.775-.067,1.082.155,0-.06-.15.11-.125.076.04.034.1.072.153-.145-.032-.173.095-.377-.02.125.282-.134.439-.154.74-.1,0-.45-.083-.3.089.024-.041.051-.078.141-.026a1.535,1.535,0,0,1-.149.527c-.4-.142-.486.155-.739.212.047.111.152.015.15.107-.419.226-.482.45-.821.815.009-.252-.164.165-.245-.041.054.2.015.481-.113.519-.015-.069.277.077.214.109-.126.014-.2-.092-.166.069-.184-.117-.306-.141-.365-.074.012.058.2.11.183.169-.132.048-.1.092-.2.123a.28.28,0,0,0-.114-.172c-.013.117-.134-.011-.174-.055a.525.525,0,0,1-.328.122c.259.139.427.134.58.312.074-.08.283.046.431.078a1.761,1.761,0,0,1-1.288.993.688.688,0,0,0-.476-.255c.875.763-.527.54-.322,1.1a3.743,3.743,0,0,0,.611.382c-.167.165.058.381.183.591-.01.209-.1.238-.152.432-.061-.041-.119-.078-.13-.025,0,.1.134,0,.257.156-.082.185.344.575.124.647a1.472,1.472,0,0,1,.5.43c-.063-.048-.111.02-.055.073.044-.027.066.055.011.086-.038-.111-.444-.161-.249.033.155-.011.35-.1.549.166.041-.108.137-.1.255-.039a1.42,1.42,0,0,1,.113.248,1.756,1.756,0,0,0,.313.083c.061.228-.03.635-.454.493-.017.147.3.6-.1.412a.469.469,0,0,0-.109-.34c-.077.1.1.461-.193.327a.961.961,0,0,1,.269-1.11c-.4-.023-.444.468-.455.865-.187.008-.32.271-.294.525-.078.027-.2-.073-.279-.047-.124.185-.129.988-.6.475-.144.017.13.159.061.2a.3.3,0,0,1-.28-.144c-.16-.611-.066-1.123-.241-1.682a.856.856,0,0,1-.523-.221c-.434.447.4,1.66-.182,2.157.463.337.39.741.865,1a.148.148,0,0,0-.063.142c.349.329.621.533.711.895.066.074.1-.045.161.013-.092.085.087.246.133.37.072.046.111-.092.19-.015a19.134,19.134,0,0,0,2.876,1.98c.431-.02.927.273,1.36.248.1.246.506.211.616.485.056-.084.123-.108.206-.042-.081.06-.1.128-.035.21.11-.19.255.135.276.146.418.236.947.23,1.4.528-.178.514-1.061.31-1.126.825-.234,0-.448.156-.7-.066.1-.109.166-.221.029-.364a2.289,2.289,0,0,0-1.113.4c-.4-.35-.726.166-1.1.261-.077-.091.042-.139-.09-.242a2.81,2.81,0,0,1-1.361.837c-.574-.434-1.283.309-1.734-.244-.215.073-.43.178-.642.037a2.174,2.174,0,0,0-.391-.834c-.278-.192-.567.041-.848-.046.119.189.011.5-.219.456-.044-.117.03-.192,0-.3-.345-.193-.48-.461-.8-.683-.107.1-.245.291-.424.075.043-.073.248.042.179-.124-.119.073-.232-.109-.35-.049.225.333-.133.113-.213.149-.028.184.181.233.2.449-.443.346-1.385-.4-1.4.282.092.039.2-.054.3-.118a5.038,5.038,0,0,0,1.578.458c.034.075.012.131.1.225.109-.116.105-.27.228-.379.117.063.234.122.359-.03.006.331.261.136.385.318-.07.155-.04.167.13.347-.074.052.046.167-.081.2a5.011,5.011,0,0,0-1.372.5c.381.226.806.04,1.2.06.244.481.474.518.913.68.167-.025-.081-.18.086-.2.459.423,1.084.537,1.417,1.2-.505.313-.109.885-.654,1.191.142.228.018.378.1.588.081.094.171.077.257.115a.513.513,0,0,1-.041.39c.306.753.75.225,1.087.71-.276.387-.885.668-1,1.1.193-.068.481.224.412.446.342,0,.634.384.986.355.272-.538-.137-1.1.2-1.662.824.607,1.994-.405,2.479-.544a.162.162,0,0,1-.191-.081.742.742,0,0,1,.485-.219c-.176-.169.139-.24.095-.382-.091,0-.183.03-.268-.094.652-.469.759-1.037,1.308-1.612-.04-.059-.116-.124-.078-.17A9.745,9.745,0,0,0,64.5,92.105c-.044-.055-.125-.116-.091-.162a1.429,1.429,0,0,0,.491-.327c-.036.017-.075,0-.119-.051.6-.466.993-1.4,1.755-.932-.1.008-.125.047-.049.15.158-.045.467-.109.564.17.109-.238.487-.136.557.087.073.04.134.02.216.117.143-.09.107-.046.084-.192a.315.315,0,0,0,.17.077c-.045.066-.12.129,0,.194.18-.3.25.12.452.113.1-.173-.208-.337.026-.51.029.176.192.134.326.265-.033.014-.24.06-.13.161.088-.1.225.077.33.069a.263.263,0,0,0,.084-.2c.05.284.166-.213.333.066-.345.169-.444.465-.585.811-.4-.16-.682.409-1.076.238a.334.334,0,0,0,.013-.195c-.109.054-.243-.044-.361-.048-.321.464-1.067-.134-1.522.235.225.233.056.424-.176.528.212.209.05.279-.122.379.477.32.119.757.572.951-.1-.008-.193.078-.107.189.094.041.174-.189.275-.017.056.07-.053.127-.108.189.454.432.878-.02,1.322.125-.364.847-1.253.5-1.643,1.088L65.81,95.5c-.615.278.052,1.011-.443,1.285a2.106,2.106,0,0,1-.374,1.342c.087.027-.154.361-.072.526-.721.587.7.894.814,1.274a1.959,1.959,0,0,1,.857.225c-.162.143-.061.193.07.176l-.181.149c.25.282.095.429.425.427a1.134,1.134,0,0,1,1.435-.425c-.067.066.065.147-.058.209.139.241.32-.091.464.073-.372.208-.7-.1-1.068.049.147.1.035.173.146.268.1-.062.059-.136.146-.2-.015.165.212.062.325.195.192-.178.233-.072.484-.182-.047-.094.137-.385.282-.325-.3.233.184.057.021.3.46-.269.68-.257.892-.477a.524.524,0,0,0,.048.607c.1-.143.173.011.259.007.668-.443,1.322-.224,2.1-.825.046.408-.509.686-.9,1.192.048.2-.007.408.219.614.478-.5,1.453-.781,1.73-1.587.581-.05.885-1.2,1.494-1.677.242-.188.7-.756.507-1.133a27.763,27.763,0,0,0,1.75-2.528c.172.03.09.314.233.089-.049-.45.534-.966.576-1.338-.659.874-1.339,1.585-2.02,2.449-.075-.04-.144.022-.22-.01.535-.474.373-1.741.659-1.356-.024-.1.329-.178.438-.393-.341-.437.384-.537.574-.922-.141-.073.1-.23-.092-.292-.159-.085-.278.107-.441,0-.125-.549.333-.733.612-1.245.085.026.126-.009.151.1.044-.15.17-.6.4-.412-.067.325-.078.081-.217.233.116.223.291.175.455.065,0,.224.268.38.169.632.07-.1.147-.16.238-.152.089.112-.019.276.116.377a1.188,1.188,0,0,1,.548-.644c-.271-.164.031-.45.112-.532a.319.319,0,0,1-.129.446c.3.04-.067.26.152.321.22-.172-.065-1.158.564-1.164-.379.445-.147.711-.222,1.07.573.593.777-.2,1.225-.41.213-.525.927-1.089.951-1.567-.161.144-.28.588-.606.484-.194-.264.314-.265.112-.456-.206.212-.141.386-.407.366.042-.074-.063-.1-.041-.17.187-.193.481-.37.616-.252-.175-.072.223-.092.04-.2-.091.06-.215-.009-.327-.029-.138.285-.314.423-.54.364-.052-.562.433-.732.261-1.237.141.014.427-.292.368-.451-.045.1-.121.1-.218.03a8.812,8.812,0,0,0,1.27-1.9c.062.281-.074.359-.107.646.144-.073.257-.24.433-.215.023.246.042.451.217.526-.11.337-.02.638-.317.917.3-.007.3-.34.339-.551.054.026.088-.015.137-.006.154.419.449.412.944.528-.316,1.359-1.476,2.017-1.853,3.372-.295.4-.847.673-1.153,1.347-.109-.1-.177.036-.291-.1a2.154,2.154,0,0,1-1.038,1.166c.308.281-.424.4-.4.7-.085-.027-.13.008-.148-.1.016.641-.805.481-1.008,1.1.206-.207.115.394.4-.041-.055-.155-.285.007-.195-.141.285.229.557-.266.924-.256-.06-.5.43-.625.729-1.062.126.022.5.123.438-.118-.129.247-.148-.16-.214-.22a7.033,7.033,0,0,1,.783-.781c.172.251.1.193-.114.407.193.115.185.027.3.193.232-.226.084-.338.1-.5.292.293.541-.582.837-.684-.119-.055-.135-.144-.05-.265.06.066.045.121.155.091.65-1.126,1.031-2.247,1.683-3.206,0-.435.329-1.514.854-1.2.884-1.11,1.2-2.5,1.908-3.784a2.093,2.093,0,0,1,.446-1.486c-.039.056-.083-.176.033-.263.431-.329.3.461.143.813.1-.322.372.138.482.252-.118.74-.349,1.278-.445,1.931-.088.148-.241.114-.317.294.113.347-.336.491-.418.825-.049.19.135.423.061.605-.081.2-.391.279-.466.449a4.019,4.019,0,0,0-.057.414c0-.01-.089-.092-.081-.111-.085.182.025.34-.037.5-.012.028-.178-.028-.192-.016-.2.177-.035.581-.134.832-.242.1-.144-.324-.3-.07.175.106.017.348.088.5-.379.024-.32.7-.574.472a7.3,7.3,0,0,1-.592,1.623c.047-.065.119-.021.191.025a2.154,2.154,0,0,0-.372.907c-.053-.029-.035-.084-.07-.12a9.447,9.447,0,0,1-1,1.686,1.01,1.01,0,0,1,.09.306c-.227.068-.194.142-.138.331-.171.062-.342-.117-.355.113.273-.114.02.342-.031.487-.1-.064-.171.12-.28-.012-.128-.058.058-.208-.033-.276-.243.4-.093.495.126.678.176-.089.334-.33.508-.44-.214-.3.367-.83.573-.9-.05.08.055.109.025.183-.065-.028-.137-.1-.191-.034.093.547-.32.817-.674,1.267.291-.011.078.214.27.352.321-.477.611-.972.9-1.4-.22.13-.04-.272-.052-.369.146-.071.5-.328.486-.457-.052.067-.121.019-.192-.03.384-.12.515-.549.784-.86-.25.37-.019.265-.128.582.228-.229.381-.343.3-.646l.157.088c.162-.675,1-1.395,1.212-2.234.068.023.147.088.193.019.138-.752.965-1.531.9-1.961.216.07.146.416-.044.514.4.136.278-.363.321-.538,0,.011.112.039.109.05.06-.276-.135-.5-.04-.774.119-.351.455-.321.556-.8-.316.019.183-.466.1-.694-.313.656.058-.856.423-.7-.1.2.026.286.011.442.12-.351.133-.157.382-.135.053-.3.223-.272.318-.456-.19-.042-.275.217-.433.263a.339.339,0,0,0,.021-.21c.129-.117.448-.1.265-.33a.3.3,0,0,0,.247.027,5.3,5.3,0,0,1-.98,2.321c-.088.643-.713,1.08-.707,1.816-.105-.042-.137.19-.252.111-.226.865-1.21,1.42-1.156,2.269.108-.173.181-.455.339-.386-.11.188-.414,1.176-.684.77a1.569,1.569,0,0,1-.223.53c.169.219.187-.321.33-.227-.126.3-.395.99-.8,1.042a7.831,7.831,0,0,1-1.9,2.6c.235.208-.2.045-.263.179-.041.2.282.106.209.227-.041.061-.009.1-.033.157-.114.267-.269.136-.4.266.086.168-.169.437-.327.677-.4-.213-.48.389-.672.62-.769.952-1.951,2.089-2.575,2.844.638-.47.676-.766,1.3-1.084.375-.846,1.338-1.527,1.859-2.354.116.1.219.011.331.05.023.124-.086.285-.068.41.271-.165.432-1.026,1-1.225-.142-.146.084-.282.2-.406-.2-.424.408-1.342.7-1.653.088.072-.35.57-.133.437.118-.186.235-.383.389-.281-.039.128-.293.329-.185.407.2-.153.36-.62.621-.316.2-.241-.248-.032-.091-.312.048.01.091-.018.127-.1.286.06.18.264.246.406.309-.2.107-.346.037-.41.257-.116.095.283.31.183a2.484,2.484,0,0,0,.52-.643.2.2,0,0,1-.178.069c.1-.1,0-.353.183-.321-.035.08-.113.177-.058.222.349-.276.557-.931.917-1.011.016-.195-.223.03-.176-.178.127-.409.367-.234.528-.468-.058-.075-.315-.069-.23-.2.145-.214.236-.664.463-.5,0,.088-.209.516-.062.378.086-.417.336-.61.189-.884.2-.226.266.192.42-.032.012-.106-.2-.113-.151-.236.14-.036.707-.608.332-.4a3.632,3.632,0,0,0,.4-.685c-.075-.049-.211-.071-.186-.167.717-.986.873-2.027,1.433-2.9-.085-.065-.181.035-.166-.069.236-.321.437-.583.314-.914a.257.257,0,0,1,.141.131,1.362,1.362,0,0,1,.442-.786c.152.263-.17.517.162.73.146-.458-.239-.831.063-1.309-.095-.137-.275.086-.225-.084a.343.343,0,0,0,.092-.408c.19.077.281-.112.4-.22-.017-.592.546-.958.373-1.564a9.625,9.625,0,0,0,.995-3.523c.159-.021.173-.363.388-.261-.1-.452.314-.576.132-.929-.03.083-.063.159-.154.108a1.925,1.925,0,0,1,.07-.5c.094.016.2.061.211-.095-.316-.318.2-.782.339-1.107-.111-.048-.14.068-.209.1.036-.28.118-.8.434-.8.021.2-.307.193-.141.342.04-.095.148-.051.208-.1a5.761,5.761,0,0,1,.324-2.406c.054-.185-.13-.312-.11-.395.057-.222.349-.359.319-.771,0,.076.022-.1.049-.294.013-.072.005-.864.278-1.017.155-.011,0,.591.122.395.018-.272-.031-.366.086-.6-.314.017-.2-.431-.059-.55.062.254.034.6.22.727-.039-.489-.2-1.4.325-1.284-.061-.008-.06-.143.017-.154.114.33.256.219.366.51-.4-1.049.523-1.785-.139-2.742.116-.011.124.095.232.093.027-.241-.16-.232-.074-.55.112.024.136-.08.243-.065a1.272,1.272,0,0,0-.1-.551c.014.347-.118.488-.32.529.111-.513-.153-.776.164-1.236-.07.308.171.24.1.549.144-.07.38-.01.369-.3-.088-.017-.221.02-.237-.087.271.063.386-.961.4-1.4-.223-.086-.177.193-.365.153a.841.841,0,0,0,.072-.467c.142.163.125.112.358.079.059-.252-.195-.108-.173-.314.228.009.133-.413.31-.473-.192-.342-.03-.444.124-.4-.176-.3-.122-.417-.323-.623.114-.134.077.005.24-.007a.649.649,0,0,1,.037-.555c-.073-.119-.181-.187-.254-.3.116-.146.026-.322.176-.087.081-.878-.616-1.122-.5-1.545-.444-.017-.29-.386-.158-.692-.143-.094-.214.22-.24.021.126-.226.077-.4-.01-.7.183-.086.2.1.316.124-.118-.162-.036-.422-.113-.46a.358.358,0,0,1-.152.253c-.02-.183-.129-.217-.114-.459l.179-.02c-.4-.617-.22-1.568-.528-1.816-.084-.24.134-.184.139-.336a.25.25,0,0,0-.168.1c-.16-.168.174-1.149-.081-.616-.023-.367.172-.514,0-.708.017.181-.125.206-.177.032.108.093.2.025.147-.185-.115-.054-.175-.215-.25-.348.2.174.038-.372-.032-.468,0,.061.029.15-.028.163-.054-.147-.258-.533-.137-.684.091.03.068.291.179.281.052-.279-.147-.324-.24-.585.326-.2-.417-.7,0-.875-.1.658.733.9.339,1.36.334-.055.186.243.356.565.169-.125.167.092.265.107-.022-.364-.108-.207-.178-.284.049-.085-.038-.287.131-.267.027.089.034.221.106.22-.111-.309-.071-.486.067-.577-.217-.377-.108-.7-.375-1.534-.133-.119-.159.149-.265-.1.038-1.065-.747-1.823-.824-2.617-.217-.1-.292.236-.408-.121.028-.21.16-.193.323-.18-.429-.616-.187-1.177-.52-1.883-.589-.137-.483-1.309-1.027-1.614.2.308.362.744.23.988-.3-.2-.674-1.022-.257-1.061-.345-.319-.042-.829-.433-.826.336-.228-.02-1.038-.346-1.446.047.061.016-.131-.07-.308a11.08,11.08,0,0,0-1.589-2.831c.08-.051.19-.087.088-.22-.14.063-.281.13-.374-.064.092-.105.271.1.123-.152a.266.266,0,0,1-.235-.31c-.156-.109-.083.154-.194.017a.369.369,0,0,1-.04-.327c.087-.039.134.15.231.049-.248-.186-.233-.27-.486-.521-.186.088.128.225-.064.385-1.4-1.1-2.282-2.82-3.3-4.184.082-.157.332.336.271.087-.523-.525-.775-.534-.862-1.138-.163-.222-.341-.107-.51-.184-.036-.3-.832-.673-.7-1.15-.2.1-.2-.307-.456-.306.169-.144.054-.218-.087-.216.25-.242-.183-.379-.082-.6-.232.033-.336-.154-.431-.418-.173-.07-.051.164-.186.058-.129-.369-.719-.579-.544-1-.345.025-.924-.782-.885-1.111-.288.187-.784-.492-.682-.586a5.748,5.748,0,0,1-.925-.341c.091-.035.186-.028.276-.063a15.308,15.308,0,0,0-1.426-1.322A15.442,15.442,0,0,1,78,24.89a.172.172,0,0,1-.23.037c-.077-.675-1.5-.819-1.041-1.383-.283-.244-.159.141-.413.04-.588-.611-1.21-.79-1.413-1.279a11.646,11.646,0,0,1-1.134-.556c.063-.124.207.073.281-.013-.58-.4-.961-.486-1.218-1.06-.136.243-.432-.053-.6.1.324.223.707.549.674.927-.317-.092-.231-.448-.429-.393.332.749.922.62,1.561,1.169a.257.257,0,0,1-.165.1c.159.256.5.333.762.427.861,1.1,2.524,1.73,3.2,2.938.514.068,1.048.652,1.568,1.093-.28.121-.643-.542-.92-.407.253.253,1.4,1.15.961,1.3.114-.112.222-.279.358-.152.17.11.018.188.119.291.328-.135,1.059.834,1.3,1.176a.1.1,0,0,1,.041-.137c0,.179.573.321.577.663-.1-.137-.191-.2-.28-.141.035.372.341.029.517.322-.089.109-.188-.115-.278-.046.466.413,1.081,1.338,1.524,1.682.209-.054-.118-.21.091-.265.043.1.3.246.191.319-.078.041-.156-.029-.234,0,.675.9,1.416,1.724,2.166,2.878-.107.3.655.851.823,1.223a14.109,14.109,0,0,0,1.252,1.745c.712.963,1.069,2.159,1.824,2.9-.079.051-.188.088-.089.216.086-.03.184-.126.248-.046a1.019,1.019,0,0,1,.029.821,1.123,1.123,0,0,1,.4.136c-.037-.129-.312-.26-.2-.4.086.116.222.039.274.28-.216.448-.062.181.033.651-.049-.119-.12-.155-.2-.152.312.228.234.844.547,1.06a3.959,3.959,0,0,1-.175-.825,2.81,2.81,0,0,0,.448.7c-.072.112-.274-.121-.219.1.376.219.009,1.014.468,1.344-.108-.118-.08-.413.02-.252.083.166.007.249.041.388.5.1.357.751.666,1.02a.4.4,0,0,1-.145.3c.23.044.526.676.559.828-.165.1-.16-.307-.3-.288a3.691,3.691,0,0,0,.8,1.148c.075.157-.135.135-.094.272.2-.2.454.317.614.668-.208.041-.3.092-.363.039.039-.1-.094-.333-.207-.406-.04.24-.28-.139-.416-.094-.02-.157.036-.18.145-.129-.317-.475-.4-1.176-.721-1.645.069-.015.172.077.167-.064-.158.185-.121-.225-.245-.146-.036.243-.3-.069-.382-.169.11.046.164.021.142-.136-.4-.021-.154-.541-.429-.627.012-.19.234.06.107-.2l-.221.093c-.134-.233-.467-.928-.563-1.123-.049-.181-.188.309-.279-.036.269-.066-.437-.693-.09-.931-.465-.535-.306-.923-.818-1.32.077-.072-.024-.472-.188-.48.1.085.044.335-.038.184a21.314,21.314,0,0,0-1.568-3.323.192.192,0,0,1-.025.185L87,37.77a.251.251,0,0,1,.192-.032c-.263-.137-.148-.655-.33-.746.054.214-.122-.064-.079-.124-.166.047-.122.062-.32-.056.05.1.163.216.107.279-.543-.394-.8-1.307-1.136-1.879-.216-.129-.034.323-.247.172.053-.313-.565-.286-.382-.528.16-.04.523.545.551.143-.334-.192-.787-.158-.847-.646-.44.4-.8-.543-1.213-.623-.007-.209-.154-.7-.466-.819a1.45,1.45,0,0,1,.261,1.246c-.057-.061-.113-.168-.175-.134.161.38.363.042.526.4.188-.129-.178-.388-.017-.525a4.6,4.6,0,0,1,.849,1.245c-.094-.216-.219.036-.316-.125,0-.083-.1-.426-.206-.38-.315.1-.966-.4-1-.94-.4.041-.372-.5-.428-.568.074.187-.208.09-.272.038.227-.176-.305-.681-.268-.238-.192-.218-.111-.359-.044-.421a2.816,2.816,0,0,0-.734-.211c.119-.091.23-.02.137-.21-.174-.076-.121.045-.229.011a.091.091,0,0,1,.045-.132c-.492.089-.4-.776-.645-.746.052.07.1.139,0,.186-.19-.259-.412-.522-.331-.744-.268.1-.086-.249-.28-.412-.353.189-1.218-.616-.922-.774-.275-.064-.509-.035-.579-.413-.286.161.28.388.223.566-.245-.038-.526-.552-.773-.606,0-.242-.015-.415.138-.542-.16-.1-.3.011-.456-.03.052.065.147.132.107.191-.332-.019-.646-.467-.379-.716.081.163.349-.033.263-.076-.245.115-.533-.25-.792-.174.174.27.279.011.438.245-.066.2-.217.131-.148.36a1.828,1.828,0,0,0-.7-.567c.082-.087.194.069.266-.086-.151-.217-.239.06-.369,0-.049-.136-.178-.272-.1-.407-.65-.142-.85-.544-1.476-1.046-.243.139.312.271.2.41-.785-.259-1.35-.826-2.14-1.052.064-.057.151-.012.218-.06-.493-.035-.546-.455-.8-.3a9.267,9.267,0,0,0-1.554-1.392A7.338,7.338,0,0,1,68.826,22.5c-.442-.277-1.2-.327-1.284-.9-.349.064-.792-.47-1.087-.412.083.063-.041.09-.119.071-.809-.735-1.53-.521-2.526-1.238-.1.279.8.3.486.654.558.357.632.628,1.164.919-.073-.03-.159-.1-.2-.045.039.038.114.066.087.117-.248-.179-.453-.227-.606-.129A2.813,2.813,0,0,1,66,22.376c-.239.169-.836-.506-.976-.409a6.864,6.864,0,0,0,.938.868c-.28.061.159.115-.007.272-.33-.009-.4-.211-.6-.266.078.022.11.259-.032.188-.139-.172-.183-.118-.4-.221.03-.075.319-.03.174-.178-.3.009-.835.013-.852-.336-.066.093,0,.151-.057.242a.584.584,0,0,0-.367-.134l.085-.159a1.532,1.532,0,0,0-.871,0c-.165-.143-.8-.581-1-.415.258.223.81.158.835.6.772.386,1.6,1,2.125,1.172a11.406,11.406,0,0,1,.968.622c.282.129.76.257.747.622-.1-.213-.418-.149-.508-.4-.164,0-.008.169-.147.119-2.53-1.959-6.13-2.415-9.162-3.8-.168.5-.978-.02-1.221-.251-.259.263-.511-.208-.659.028.1.175.552.18.5.425-.068.088-.049.355-.178.319-.73-.134-.971-.741-1.395-.6.366.117.5.645,1.067.808-.084-.021-.244.436-.1.283.077-.41.288.025.5-.146.192.08.188.253.162.436-.259.186-.707-.028-.987.105a.262.262,0,0,0,.312.361c.7.7,2.306.8,3.183,1.3.109.046.005.179.172.2.51.135,1.423.238,1.7.854a3.079,3.079,0,0,1,.965.461c.091-.132.227-.131.4-.006-.144.063-.029.07-.109.214a.791.791,0,0,0-.429-.073c.03.107.281.138.1.316-.356-.174-.594.006-.929-.111.09.071.02.2.211.234.377-.2.927.09,1.253-.256a.314.314,0,0,1-.091.43c.247.5.987.567,1.277.981-.107.194-.3.084-.432.172.353.234-.132.109-.2.234a4.17,4.17,0,0,1,1.238.413c2.1,2.118,5.281,3.462,7.108,5.664a15.009,15.009,0,0,1,1.811,1.4,1.546,1.546,0,0,1,1.13.791c.254.025.822.7,1.033.9-.24-.279-.049.069-.1.164-.336-.365-.5-.688-.8-.551a.424.424,0,0,1-.028-.215c.04.026.078.087.122.049-.191-.35-.233.326-.463.108.207-.252-.331-.249.017-.5.153.11.066.267.251.168a4.91,4.91,0,0,0-1-.833c-.01.292.483.385.623.623-.015.1-.12.193-.135.29.116.311.44.4.336.719-.667-.467-.285-.594-.668-.967.023.023.011.08-.043.042-.3-.228-.349-.416-.66-.574-.03-.155-.046-.71-.371-.369.2.122.41.308.284.537.27.43.807.31.865.694a.583.583,0,0,0-.584-.16c.147.2.309-.038.456.2-.071.049-.14,0-.211.042.275.109.7.4.552.666a10.856,10.856,0,0,0-1.053-.742c.064-.055.156-.169.046-.124l-.086.084c.173.543.7.356.634.894-.147-.214-.461-.233-.481-.486-.3.155-.739-.2-.9-.472.233.861,1.222.753,1.722,1.262-.128.181-.42-.157-.422.154.771.356,1.051,1.52,1.53,2.034a3.441,3.441,0,0,1-1.318-1.242c-.1-.143-.037.223-.172.078a1.866,1.866,0,0,0-.561-.76,9.78,9.78,0,0,0-.933-.663c.077-.045.12-.024.129-.126-.551.068-.758-.618-1.116-.772.021.04.077.078.037.122a4.658,4.658,0,0,0-2.137-1.673l.155-.183a7.193,7.193,0,0,1-2.55-1.764c-.069.112-.148.128-.238.047a17.641,17.641,0,0,0-3.19-1.939,32.491,32.491,0,0,1-3.219-1.61c.075.042.175.074.094.177a6.706,6.706,0,0,0-2.5-1.346c-.073-.127-.054-.3-.113-.434-.1.24.021.158-.062.427a1.92,1.92,0,0,0-1.322-.663l.066-.168a1.122,1.122,0,0,1-1.068-.274c.057.029.024.108-.01.186-.285-.044-.519-.093-.477-.288a.336.336,0,0,1-.355-.312c-.216-.017-.089.279-.221.3a24.27,24.27,0,0,0-6.929-1.932c.9.243,1.8.5,2.717.721a22.888,22.888,0,0,0,2.784.668c-.058.155.361.04.205.254,1.058.163,2.21,1.018,3.23,1.14-.018.069-.071.155-.016.188.043-.23.192-.173.312-.2.005.289.472.188.592.563.171-.215.68.282.78.38.083-.053.137-.186.247-.159-.058.21.254.085.273.321.254-.176.445.1.711.139-.112.348.261.32.511.442.146-.026,0-.161.127-.139a29.777,29.777,0,0,1,3.61,2.206c-.042-.012-.09-.057-.121-.008.116.129.172-.084.289.044-.09.137.012.152-.126.2.279.036.489.334.692.516.153-.126.008-.168.039-.26.095.091.157-.029.259.1-.065.1-.165-.016-.22.142.167.2.259-.069.427.133-.183.221.193.2.23.433.213-.126.234-.117.292-.24.093.125.16.216.306.126l-.1.148c.121.009.611.061.49.335-.142-.207-.523-.061-.626-.422-.246.4.937.516.8,1.005-.981-.665-1.728-1.174-2.729-1.887-.072.076-.014.174-.094.154-.061-.081-.3-.108-.238-.226.128-.093.111.245.242.014a2.687,2.687,0,0,0-.82-.4c.09.056.217.31-.011.336a9.259,9.259,0,0,0-2.525-1.485c-.542-.284-1.075-.592-1.62-.913s-1.132-.595-1.734-.9l.046-.111c-.571.075-.824-.487-1.316-.327-.121-.1-.242-.2-.2-.387-.1,0-.276-.169-.327-.047.233.055.321.187.255.4A5.443,5.443,0,0,1,52.036,27c-.543.044-1.218-.384-1.712-.286.248.247,1.053.066.918.65-.273-.25-.647.077-.935-.219-.047.2-.161.167-.341.028-.372.4-1.012-.293-1.508-.11a1.232,1.232,0,0,0-.384-.418c-.078.176.164.13-.007.245.08.06.316.014.289.144-1.133-.18-1.976-.189-2.945-.371-.106.545-.575-.011-.77.1.18.312-.438-.023-.631-.047a4.127,4.127,0,0,0-1.288.082c.187.323.536-.021.812.2-.041.134-.1.245-.2.268-.024-.107-.342-.066-.336.125a.866.866,0,0,1,.641.232c-.33.122-.774.418-1.045,0-.261.224-.6.035-1.052.087.041.334-.421.179-.745.151-.285.239-.064.4-.465.427.114.134.24-.034.3.1-.137.267-.264.543-.617.469.021-.083.093-.09.121-.167a.918.918,0,0,0-.633.225c-.21-.177-.184,0-.354.017-.269.027-.66-.212-.817.115.172.149.443-.062.476.275-.206.148-.312-.187-.354.034.126.177.64-.038.62.292-.1-.014-.2-.022-.3-.028-.024.18.24.186.062.365.076-.03.245.1.251-.033-.108,0-.15-.068-.128-.2a4.821,4.821,0,0,1,.58.131,2.351,2.351,0,0,1-1.6.153c-.049.11-.084.238-.173.289.226.023.452.043.207-.1.186-.013.211.143.271.261-.379.258-.268-.092-.585-.043C37.825,30.5,37.885,30.606,37.726,30.749Zm35.119-9.462c.167-.139.244.1.291.216C73.039,21.607,72.86,21.341,72.845,21.287ZM81.691,28.6l.572.381a.24.24,0,0,0-.182.065c-.131-.169-.259-.274-.381-.254C81.658,28.725,81.755,28.677,81.691,28.6Zm14.735,25.1c-.1.017-.141.089-.146.189-.131.016-.165-.166-.194-.359.147.109.1-.081.25.028,0-.151-.173-.448.039-.411C96.315,53.272,96.385,53.5,96.426,53.708ZM80.587,92.3c.125.094-.129.055-.135.226l-.154-.093c.048-.131.124-.127.186-.194C80.509,92.3,80.535,92.362,80.587,92.3ZM59.1,82.86c-.181.046-.045.421-.286.266C58.8,83,58.847,82.679,59.1,82.86Zm5.949-33.2a.877.877,0,0,1,.334.509A.563.563,0,0,1,65.053,49.661ZM38.293,30.429c.012-.119.141-.066.121-.232.158-.018.162.12.337.084-.015.069-.095.044-.153.049-.014.069,0,.107.037.123C38.592,30.578,38.329,30.488,38.293,30.429Zm2.348-1.8c.064-.115.21-.105.367-.076-.048.166-.214.148-.332.2C40.692,28.69,40.678,28.651,40.641,28.633Zm2.9-1.389c.078-.121.546-.21.46.079C43.806,27.229,43.8,27.294,43.544,27.244Zm4.07,7.061c-.144-.138.431-.144.308.085C47.858,34.356,47.7,34.258,47.614,34.305Zm1.047.613c0-.13.254-.039.141-.142.056-.064.465,0,.365.187C48.963,34.844,48.823,34.915,48.661,34.918ZM66.747,21.486c.1-.155.454.095.5.212C67.045,21.836,66.83,21.547,66.747,21.486Zm-3.6,10.55c.124-.222.227.084.306.126C63.355,32.3,63.155,32.143,63.142,32.036Zm5.127,3.71c-.121.206-.247-.155-.367-.079-.025.084.129.073.165.221.851-.112,1.286.954,1.886,1.472.49.431,1.1.633,1.344,1.052-.022.068.037.137-.062.2.246.033.24.334.429.493-.1.184-.155.052.052.242-.154,0-.118.094-.227.2-.126-.082.025-.159.03-.24a.755.755,0,0,0-.368.035c-.039-.107.056-.213.038-.322-.085-.07-.191.029-.275-.042-.078.213.315.394.2.683-.2-.174-.1-.347-.3-.522a2.175,2.175,0,0,0,.181.481c.463.206.859-.21,1.241.146.091-.117-.033-.241-.078-.363.492.12.488.646.9.678,0,.1.078.2-.009.288.123.1.519.221.376.4.068.079.181-.09.242.022-.092.526.8.8.8,1.26.4.053.7.649.747.89.541-.005.942.967.927,1.439.256.343.36.231.548.576-.042-.112.027-.414-.083-.4.2-.1.293.147.477.5,0-.008-.09-.018-.106-.069.173.539,1.331,1.238.956,2.143a.8.8,0,0,0-.367-.436c.157.066.185.75.536.663.1.147.027.24-.047.331-.134.043-.268.089-.308-.1-.138.042.134.213-.094.227-.156-.318-.1-.58-.3-.892a1.173,1.173,0,0,0,.157.719,4.023,4.023,0,0,1-1.236-1.818c-.238.138-.015.383-.187.534-.162-.564-.668-.721-.747-1.119l.1-.061c.1-.087.136.009.181.081.112-.176-.173-.231-.313-.065-.1-.147-.232-.172-.313-.375.116-.061.183.047.248.164.131-.267-.344-.424-.589-.582-.182-.11.155-.136.064-.23a2.742,2.742,0,0,1-.826-1.385c-.147-.067-.2-.064-.31.085-.146-.132-.164-.252-.047-.359-.369.009-.366-.394-.435-.678-.12-.148-.091.209-.177.064-.084-.107,0-.078.064-.114-.117-.163-.3.026-.4-.233a1.443,1.443,0,0,0,.461-.285c-.077-.091-.216.136-.318.176-.183-.149.009-.268-.083-.411-.16.222-.694.2-.447-.193.149.117.084.221.1.33.114-.1.086-.2.236-.186-.288-.1-.18-.211-.281-.463-.123.071-.347.086-.42.339-.039-.183-.137-.369-.164-.553.122-.094.21.059.3.166.074.061.12-.2.162-.271-.105-.071-.029.108-.175.073-.068-.107-.06-.212-.2-.322.032-.144.062-.045.184-.154-.361-.144-.571.243-.764-.056a.147.147,0,0,0,.014.2c-.775-.1-.775-1.249-1.406-1.3-.023-.208.089-.178-.144-.228.151-.287.384-.195.619-.146-.075.1-.141.083-.213.127.16.207.225.7.684.75-.321-.353-.345-.744-.624-1.028.179-.088.133-.092.179-.245-.174-.09-.148.34-.342.252.064-.174-.4-.238-.409-.576-.068-.039-.078.071-.047.122-.169.045-.011-.263-.181-.349a.378.378,0,0,0,.029.2c-.152.1-.04-.121-.152-.151-.04.042.014.079.033.118-.125.1-.23-.154-.352-.1.025-.144.012-.407-.223-.306a5.051,5.051,0,0,0-1.432-1.685l.117-.136c-.545-.161-.8-.592-1.229-.879.594-.126.862.584,1.35.9C67.719,35.458,68.079,35.451,68.269,35.746Zm-3.46-2.337c.56-.144.9.6,1.406.825C65.706,34.313,65.163,33.649,64.809,33.409Zm-4.125,9.265c.268-.107.287.116.524.21C61.03,42.923,60.72,42.89,60.684,42.674Zm11-3.727c.108-.117.2-.073.279.046l-.136.118Zm-9.157,8.3c.183-.045.173.206.252.281C62.621,47.57,62.555,47.332,62.526,47.249Zm8.956-7.344c.1.118-.176.313-.285.311C71.106,40.029,71.356,40.031,71.482,39.905Zm.06.159c.059-.038.1.041.152.083-.16.075-.07.156-.2.232C71.406,40.272,71.537,40.17,71.542,40.064ZM63.56,46.786c.124-.063.329.071.11.213C63.557,46.938,63.622,46.854,63.56,46.786Zm.234,1.339c.029.087.022.226.161.213C63.956,48.452,63.482,48.327,63.794,48.125Zm10.462-7.852c.181-.1.236.161.285.278C74.327,40.647,74.37,40.4,74.256,40.273Zm-10.8,8.3c.194-.151.185.226.349.161.067.114-.256.1-.171.171C63.546,48.851,63.511,48.687,63.454,48.57ZM84.04,34.522c.111-.056.211.086.322.031.046.106-.116.161.074.3C84.291,34.948,84.169,34.679,84.04,34.522Zm.33.648c.2.239.462.383.584.73C84.7,35.94,84.506,35.373,84.37,35.17Zm1.349-.7c.007.227.3.3.251.456C85.822,35.088,85.472,34.507,85.719,34.475Zm-1.033.822a.279.279,0,0,1,.348.285C84.907,35.537,84.676,35.452,84.686,35.3Zm.591.993a.529.529,0,0,1,.412.42c-.1.082-.161-.2-.244-.271-.116.062.115.231.145.337C85.332,36.711,85.376,36.526,85.277,36.29Zm1.587,1.822c.291-.095.3.5.478.563C87.064,38.646,87.112,38.328,86.864,38.112Zm-.051.37c.155,0,.338.452.323.566-.11.1-.13-.306-.26-.1A1.311,1.311,0,0,0,86.813,38.482ZM76.945,44.55a3.17,3.17,0,0,1,.881.862c-.113.035-.129-.225-.292-.034A5.97,5.97,0,0,0,76.945,44.55ZM87.274,38.8c.141.086.679.506.454.831C87.739,39.331,87.418,39.064,87.274,38.8Zm-.241.559c.144-.049.358.081.33.229A.309.309,0,0,1,87.033,39.359Zm.382.2a5.4,5.4,0,0,1,.571.929c-.339.018-.292-.671-.608-.493-.094-.12-.055-.188-.085-.284C87.4,39.789,87.607,39.825,87.415,39.558ZM66.322,52.244c.161-.125.142.06.2.11C66.351,52.469,66.265,52.336,66.322,52.244Zm21.9-11.06c.377.435.621,1.148,1.113,1.884.209-.162-.2-.3-.1-.518.19-.063.26.344.381.55-.139.225-.312.029-.49.227A11.5,11.5,0,0,1,88.224,41.184ZM77.73,47.839c.266-.118.351.2.469.451C77.905,48.379,77.805,48.035,77.73,47.839Zm.733.453c.275-.118.368.8.146.178A.3.3,0,0,1,78.463,48.292ZM89.9,44.019c.186-.147.211.285.318.421C90.012,44.409,90.074,44.289,89.9,44.019Zm.073.606c.157-.04.264.1.368.241a.3.3,0,0,0-.25.026Zm1.264,1.389c.058,0,.283.187.158.257.027.067.088.028.138.027.025.222-.056.11-.2.155C91.21,46.256,91.351,46.212,91.232,46.014Zm.2.717c.066.025.131.047.112-.041.118-.057.116.238.183.328A.326.326,0,0,1,91.43,46.731Zm1.112,1.5c.221,0,.086.289.272.463C92.614,48.825,92.648,48.379,92.542,48.234Zm2.011-.427c.025.31.039.62-.3.669C94.376,48.272,94.322,47.935,94.553,47.807Zm-1.609.69c.121.076.327.429.249,0,.275.021.161.455.267.71C93.2,49.021,93.169,48.878,92.944,48.5ZM67.8,56.608c.135.028.105-.059.24-.032a.737.737,0,0,0,.03.531C67.847,57.087,67.887,56.78,67.8,56.608Zm26.546-8c.22-.166.421.533.149.52C94.47,48.846,94.266,48.809,94.35,48.607Zm-1.333.578c.176-.05.27.433.223.562C93.083,49.6,93.165,49.466,93.017,49.185Zm-24.98,8.009c.2-.09.162.159.122.2C68.039,57.39,67.955,57.278,68.037,57.194Zm25.886-7.015c.166-.065.276.2.218.334C94.037,50.475,93.965,50.363,93.923,50.179Zm.87,1.35c.1.5.409.857.4,1.249-.168.1-.2-.09-.367.006.083-.139-.118-.512.14-.506C94.737,52.22,94.858,51.793,94.793,51.529Zm-.018.163c-.064.15-.326.145-.351-.147.408.134-.121-.321.189-.446A2.129,2.129,0,0,0,94.775,51.692Zm1.293.564c.214.167.113.288.112.539C95.965,52.626,96.068,52.508,96.068,52.256ZM68,60.825c.094-.022.106.021.183.014.03.114-.084.163-.018.292A.194.194,0,0,1,68,60.825Zm27.822-2.837c.228.156.029.485.312.584,0,.4-.108.559.1.845l-.3.03C95.968,59.019,95.76,58.489,95.826,57.988ZM68.151,61.422c-.078.137.039.171-.018.29A.146.146,0,1,1,68.151,61.422Zm27.975-1.916a.938.938,0,0,1,.131,1.15.9.9,0,0,1,.3,1.145c-.18-.19.014-.746-.461-.824C96.154,60.328,96.038,59.816,96.126,59.506Zm-.761.226c.174-.015.166.416.089.526-.165-.034-.245-.189-.264-.435C95.275,59.823,95.36,59.821,95.365,59.732Zm-.082.691c.221.035,0,.3.092.6-.108,0-.122.1-.236.091A2.676,2.676,0,0,1,95.283,60.423ZM66.861,62.667a.164.164,0,0,1,.075.235C66.7,62.876,66.919,62.786,66.861,62.667ZM97,61.072c.133,0,.041.331.083.467-.139-.162-.128.027-.109.24C96.728,61.7,96.986,61.3,97,61.072Zm-.88.443.18-.01.018.385C96.138,61.928,96.182,61.646,96.12,61.515ZM66.761,62.976a.172.172,0,0,1,.135.2C66.753,63.16,66.637,63.052,66.761,62.976Zm.907.077c.114,0-.038.132-.047.176C67.378,63.2,67.571,63.093,67.668,63.053Zm.261.277c.153,0,.128.118.137.212C67.874,63.553,67.835,63.389,67.929,63.33Zm-.168.356a.031.031,0,0,1,.06,0c.158.01.052-.138.243-.108-.027.086.108.078.055.179-.054.016-.108.031-.122.071C67.843,63.824,67.915,63.689,67.761,63.686Zm29.465.124c-.071.014-.053.143-.065.236-.113.075-.2-.232-.24,0-.092-.075.2-.317.308-.4.015.278.161.19.051.47C97.2,64.1,97.234,63.927,97.226,63.81Zm-30.793.143c.2-.006.265.19-.005.167A.09.09,0,0,1,66.433,63.953Zm1.259.05c.189-.014.156.1.3.111a.347.347,0,0,1-.242.067A.162.162,0,0,1,67.692,64Zm29.024,1.134a.243.243,0,0,0,.178.08c-.023.089-.111.2-.122.077-.063.049-.067.177-.185.152.04-.069.077-.138,0-.155C96.609,65.207,96.712,65.239,96.716,65.137Zm.225.549c-.233.044-.249.059-.418-.086C96.65,65.485,96.943,65.362,96.941,65.686Zm-29.921-.8c.069.009.107,0,.119-.028.125.084-.127.057,0,.207-.1-.018-.112.02-.119.062C66.87,65.052,67.2,65.011,67.02,64.888Zm27.841,2.03c.3.588.013,1.948.091,2.494C94.587,69.152,94.913,67.7,94.861,66.918Zm.376.852.18.011a.792.792,0,0,1-.1.448C95.161,68.209,95.219,67.969,95.237,67.77Zm.129.539.179.013c-.04.143-.054.324-.209.289Zm.919.453a.039.039,0,0,1-.007.077c.247.289-.166.046-.152.3-.078-.03-.029-.2-.028-.311C96.182,68.838,96.267,68.852,96.285,68.762Zm-1.4,1.325c.2.037.063.426.113.621C94.732,70.576,94.971,70.339,94.881,70.087ZM64.59,67.723c.082.063.137.208.017.25C64.478,67.933,64.613,67.8,64.59,67.723ZM91.922,79.545c-.558.43-.7-.017-.405-.761-.1.034-.144.19-.21.3-.192-.02.044-.313-.079-.378.043-.084.161-.015.249,0,.119-.663.107-.716.259-1.433.244-.034.089-.339.352-.414-.008-.2-.18.175-.233-.056.161-.464.312-.379.342-.922-.162-.048-.032.461-.254.3a1.178,1.178,0,0,0,.127-.829.346.346,0,0,1,.278.131c.058-.176-.031-.242-.189-.255.015-.359.2-.4.352-.5.366.463-.365,1.6-.173,2.121-.347.773-.5,1.5-.8,2.3.109.02.1-.214.192-.233.177.06-.006.437-.173.381C91.62,79.517,91.664,79.544,91.922,79.545ZM62.95,68.643c.125.054.164.2.075.229A.171.171,0,0,1,62.95,68.643Zm-.429,0c.232.026.192.212-.028.132Zm4.324,1.006c.093.095.041.453-.251.3C66.779,69.874,66.778,69.776,66.845,69.654Zm-3.827-.748c.225.255-.142.49-.1.7a.656.656,0,0,0-.323-.193c.054-.17.3-.241.218-.411C62.9,68.99,63.044,69.027,63.018,68.906Zm28.447,6.948c.12.08-.068.381-.07.55C91.139,76.215,91.38,76.126,91.465,75.854ZM65.227,69.74a.5.5,0,0,0,.225.095c.017.124-.175.03-.159.155C65.146,69.948,65.206,69.837,65.227,69.74Zm.5.241.175.044c.093.217-.112.269-.236.459C65.559,70.294,65.8,70.192,65.726,69.981Zm0,.518c.092.366-.311.523-.253.95a1.873,1.873,0,0,0-.334-.14c.237-.121.449-.454.22-.587.032-.062.123-.058.252-.012-.021-.124-.075-.066-.222-.1C65.442,70.508,65.659,70.588,65.723,70.5ZM90.6,77.124c.264.06-.076.192-.043.41C90.433,77.4,90.509,77.28,90.6,77.124Zm-1.8.224a7.128,7.128,0,0,1-.678,2.531c.007.174.271.031.288-.115.143.114-.1.259-.119.373-.1-.025-.1-.114-.209-.134-.137-.014-.121.3-.2.415-.28-1.016.411-1.734.725-3.053C88.69,77.392,88.77,77.419,88.8,77.348Zm3.327,1.028c.078.093-.015.3.005.434-.1-.037-.144.048-.249,0C91.9,78.531,92.111,78.659,92.127,78.376ZM65.162,71.44c.223.07.164.228.141.374-.1-.026-.107-.083-.218-.108C65.244,71.661,65.109,71.551,65.162,71.44Zm25.915,8.218c.129.061.185.168.384.185a5.355,5.355,0,0,1-.569.83C90.709,80.377,91.05,80.086,91.077,79.658Zm.392,2.348.107-.327A9.9,9.9,0,0,1,90.242,85.4c-.012.074.095.086.064.17a1.635,1.635,0,0,1-.262.332c-.168-.083.031-.346.087-.545-.078-.036-.155-.071-.192,0a12.66,12.66,0,0,0,.7-2.766,1.015,1.015,0,0,1,.459-.421c.016-.2-.2-.022-.284-.095.012-.178.323-.223.187-.367.112-.174.109-.047.25.008a2.025,2.025,0,0,1,.138-.82c-.171-.127-.154.175-.219.29a.859.859,0,0,1,.267-.851c.234.016.283.424.422.055.113.356-.518.985-.316,1.2.3-.451.375-1.406.8-1.566.037.79-.482,1.279-.647,2.052Zm-1.6-2.493c.154.05.231.229.095.308C89.8,79.8,89.855,79.643,89.867,79.513Zm.148.747c-.042-.028-.037-.083-.095-.1a8.9,8.9,0,0,0-.347,1.646c-.67.056-.042-1.358,0-1.752C89.811,79.833,90.06,79.852,90.015,80.26Zm.737.654c.119.085.083.263.2.349-.2.033-.186.556-.42.508C90.8,81.546,90.519,81.2,90.752,80.914ZM87.5,82.477c-.056-.017-.071.06-.1.1-.076-.043.047-.188-.047-.223-.151.019-.161.373-.256.524-.166-.35.135-.939.053-1.21a.318.318,0,0,1,.34.118c.211.011.055-.134.2-.2-.013-.2-.184.152-.327.024.16-.471.267-.553.157-.833.15-.167.092.042.179-.35.408.1-.048.422.044.628.311-.125.052-.871.436-.746-.308.752-.225,1.868-.947,2.555C87.161,82.691,87.447,82.717,87.5,82.477Zm2.64-.837c.091-.219.158.23.25.011.153.121-.1.208-.143.237C90.1,81.864,90.241,81.683,90.136,81.64Zm.142.332c-.018.522-.494,1.552-.669,1.19C89.959,82.929,89.868,82.414,90.278,81.972Zm-4.9-.52c.053-.086.082.086.134-.019.215.209-.168.506-.256.706C84.988,81.959,85.514,81.635,85.377,81.452Zm-.213.587-.108.293c-.036-.055-.074-.108-.112-.042-.076-.043.045-.182-.048-.217C84.948,81.976,85.042,81.975,85.164,82.039Zm4.6,1.393c-.006.47-.5,1.334-.671,2.1-.263-.6.326-1.185.466-1.891C89.708,83.767,89.713,83.539,89.766,83.432Zm-5.66.195c-.154.09-.108.524-.4.506,0,.142.063.253-.055.445-.128-.015-.246.089-.3-.058.037-.138.187,0,.237-.1.038-.14-.095-.194-.167-.069a3.3,3.3,0,0,1,.552-1.368c0,.146.134.357-.047.443.344.143.254-.208.215-.378.074.012.308-.133.267-.029.181.061-.107.288-.068.505.227-.092.226-.675.348-.73-.151-.014-.333.007-.237-.222.377.182.563-.081.724-.393a.323.323,0,0,0,.2.141c-.427.564-.558,2.015-1.048,2.814-.1-.034-.086-.12-.2-.15-.05.2.124.292.049.5l-.221-.094c-.051.1.016.15-.045.253-.025.145.117-.032.141.13l-.125.29c-.059-.038-.1-.03-.135.009-.068-.16-.222-.284-.1-.523a.328.328,0,0,1-.245-.038c.168-.087.036-.366.253-.435,0-.092-.072-.157-.172-.208A4.855,4.855,0,0,0,84.106,83.627Zm5.312,2.393c-.2-.019-.133-.167-.229-.235A5.539,5.539,0,0,0,89.563,85c-.406.246.119-.851.333-.877C89.911,84.81,89.3,85.5,89.418,86.02Zm.322-.161c.125.068-.077.287-.124.311C89.44,86.043,89.638,85.927,89.74,85.859Zm-.65.173c.223.039.207.2.095.4-.171-.017-.061-.169-.171-.215-.366.428-.407,1-.879,1.014a1.429,1.429,0,0,0,.221-.993c.09-.059.2-.059.269-.178.091.145.022.185-.072.331C88.786,86.424,88.965,86.3,89.09,86.032Zm-.783,2.007c.107.1-.119.41-.248.263a.429.429,0,0,1,.056-.273C88.191,88.069,88.267,88.108,88.307,88.039ZM59.32,75.988c.185.187-.122.143-.187.259-.157-.061.125-.148-.032-.209C59.123,75.946,59.321,76.115,59.32,75.988Zm.158,1.327c-.011.223-.3.272-.161.571-.044.112-.276-.077-.3.062-.112-.028-.128-.186-.209-.119a.709.709,0,0,1,.058-.5.368.368,0,0,1,.264.143C59.24,77.418,59.326,77.315,59.478,77.315ZM84.849,91.846c.113.07-.117.27-.145.393C84.56,92.159,84.735,91.886,84.849,91.846Zm.871.784c.1.09-.145.316-.183.462C85.252,92.9,85.631,92.888,85.72,92.63ZM83.756,94.6c.195-.125.106.25-.031.4C83.438,94.9,83.834,94.652,83.756,94.6ZM60.683,81.7c.005.139-.091.266.128.343-.092.26-.739-.094-.812-.405C60.205,81.618,60.353,81.472,60.683,81.7ZM75.969,94.882c.167.089.073.224-.049.362-.081-.072-.149-.015-.23-.095C75.78,95.021,75.869,94.9,75.969,94.882ZM58.957,84.8c.227.177.1.271.121.4.33.342.522.327.623.65-.077.119-.2.043-.307.061a2.476,2.476,0,0,1-.636-.724c.023-.11.213-.179,0-.345C58.834,84.852,58.883,84.789,58.957,84.8Zm8.43,8.383c.081.108-.16.232-.218.226a.218.218,0,0,1,.058-.233C67.288,93.258,67.337,93.223,67.387,93.181Zm-8.375-7.39c-.039.052-.1,0-.142.062-.14-.1-.074-.147-.186-.239A.549.549,0,0,1,59.012,85.791Zm13.82,13.928c.192.125-.238.453-.312.234C72.52,99.769,72.709,99.783,72.832,99.719Zm-2.538,1.109-.092.084c-.124-.152-.3-.115-.111-.305C70.193,100.773,70.3,100.665,70.294,100.828Z" fill="#fff" fill-rule="evenodd"/><path d="M64.826,50.733c.021-.214-.214-.329-.377-.461.253-.124-.122-.036.04-.157.24-.052.26.509.593.463.064-.052-.009-.1-.032-.156.1-.114.2.255.013.341C64.983,50.641,64.972,50.566,64.826,50.733Z" fill="#fff" fill-rule="evenodd"/><path d="M89.883,37.441c.074.134.188,0,.251.211a1.032,1.032,0,0,0,.585.825c.048.158,0,.189-.121.154a18.436,18.436,0,0,0,1.436,1.961c-.284-.082.188.762.281.47a8.787,8.787,0,0,0,1.744,3.255c-.2-.335-.29-1.06-.652-1.259.314.06-.1-.333-.214-.334l.165-.073c-.359-.764-.728-1.548-1.1-2.337-.406-.768-.838-1.526-1.254-2.276-.8-1.519-1.746-2.875-2.482-4.131-.333-.159-.7-1.192-1.266-1.188a1.361,1.361,0,0,0-.547-.84c.373-.062-.257-.4.008-.492-.315-.208-.337-.713-.6-.705.238.419.559.563.414.851-.215-.4-.632-.691-.6-1.1-.267-.246-.875-.607-.877-.975-.238.148-.227-.351-.492-.389-.1.045-.042.186-.136.117-.291-.145-.335-.595-.6-.7.055.075.105.149.01.2-.186-.148-.07-.238-.255-.386-.168.113.142.316.165.466.245,0,.828.65.79.827-.248-.131-.413-.1-.442-.424-.159.066.007.2-.082.273.164.191.317.07.483.286-.156.067-.316-.017-.472,0,.165.217.314,0,.479.19-.039.127-.3-.044-.184.155.235,0,.194.353.25.478.234-.26.224.3.475.3-.2-.139-.142-.439.046-.33-.049.265.143.294.23.6-.047.036-.019.093-.049.135-.216-.28-.436-.035-.092-.023.241.412.487.865.631,1.14a.566.566,0,0,1-.041-.255c.29.358.049.436.319.329.2.249-.056.375-.017.579.131-.188.242.244.373.1-.064-.13-.338-.318-.129-.375a2.328,2.328,0,0,0,.634.759c-.1.052-.057.146-.151.2-.065-.231-.254-.494-.455-.417a1.047,1.047,0,0,0,.732.592c-.05.266.214.425.3.346.041.239-.135.2-.3.2a1.144,1.144,0,0,1,.393.83c-.071-.081-.157,0-.232-.027.288.171.251.247.275.54a2.232,2.232,0,0,1,1.028,1.4c.368.125.449.408.849.992.28-.038-.218-.4-.064-.491.215-.016.623.365.506.677-.11.1-.137-.322-.265-.112C90.142,38.922,90,37.825,89.883,37.441Zm-4.61-6.579.14-.113c.2.149.038.208.091.319C85.426,31.1,85.35,30.946,85.273,30.862Zm.178.635c.308.079.738.179.783.646l-.191.145c-.109-.087-.049-.36-.228-.3-.1-.237.145,0,.189-.048C86.006,31.691,85.6,31.866,85.451,31.5Zm2.189,2.921c.225.054.6.6.445.8C87.941,34.954,87.645,34.637,87.64,34.418Zm-.1.619c.173-.015.318.278.468.509C87.764,35.568,87.653,35.309,87.54,35.037Zm.628.313a.728.728,0,0,1,.347.321C88.359,35.849,88.153,35.5,88.168,35.35Zm-.239.518c.12-.105.221-.018.315.158C88.122,36.131,88.021,36.044,87.929,35.868Zm.526-.067c.411-.085.485.861.245.836A1.25,1.25,0,0,0,88.455,35.8Zm.571.453c-.006-.128.192.263.378.488C89.135,36.8,89.032,36.458,89.026,36.254Zm-.4.605c.087-.15.367.047.307-.188a8.135,8.135,0,0,1,.409.91C89.084,37.564,88.853,37.27,88.627,36.859Z" fill="#fff" fill-rule="evenodd"/><path d="M38.069,28.489c.077-.048.465-.229.454.032C38.319,28.443,38.3,28.49,38.069,28.489Z" fill="#fff" fill-rule="evenodd"/><path d="M40.587,10.753c.074-.073.739.167.919.031C41.663,11,40.717,10.833,40.587,10.753Z" fill="#fff" fill-rule="evenodd"/><path d="M42.68,26.06c.1-.059.168-.176.341-.123-.026.158.144.157.108.322A.387.387,0,0,0,42.68,26.06Z" fill="#fff" fill-rule="evenodd"/><path d="M45.919,23.09c-.2,0-.093-.233-.295-.235.07-.127.354,0,.253.166a.166.166,0,0,0,.144-.154C46.223,22.988,46.026,23.058,45.919,23.09Z" fill="#fff" fill-rule="evenodd"/><path d="M52.852,21.136c.056-.169.2-.175.317-.213C53.957,21.373,53.115,20.865,52.852,21.136Z" fill="#fff" fill-rule="evenodd"/><path d="M53.658,19.568c-.077-.055.047-.065.055-.172.176.124.369.24.529.371C54.049,19.919,53.877,19.4,53.658,19.568Z" fill="#fff" fill-rule="evenodd"/><path d="M58.156,10.007c-.083-.018-.092.084-.125.148-.447-.128-.621-.625-1.11-.569-.012.138.363.125.375.254-.211.054-.26-.151-.566-.128,0-.223.035-.145.037-.367.6.128.493.206,1.24.42-.27.128.352.216.286.289.049-.235.322-.1.412.142.212.01-.048-.186.146-.2.191.209.817.188.628.409.083.018.118.054.117.1.187,0-.045-.3.287-.154-.3.109.108.21.193.322-.481.206-1.284-.358-1.79-.368A1.1,1.1,0,0,1,58.156,10.007Z" fill="#fff" fill-rule="evenodd"/><path d="M54.834,16.038c-.017-.158.427.243.663.289C55.252,16.434,55.027,16.117,54.834,16.038Z" fill="#fff" fill-rule="evenodd"/><path d="M54.382,20.321c.108-.078.278.213.5.235-.029.167-.3-.152-.327.015C54.5,20.488,54.494,20.379,54.382,20.321Z" fill="#fff" fill-rule="evenodd"/><path d="M58.169,24.515a1.232,1.232,0,0,1,.589.268A1.144,1.144,0,0,1,58.169,24.515Z" fill="#fff" fill-rule="evenodd"/><path d="M64.284,18.315c.121-.1.465.056.608.161C64.725,18.507,64.478,18.349,64.284,18.315Z" fill="#fff" fill-rule="evenodd"/><path d="M66.879,17.849c.164-.042.443.22.551.031C67.537,18.1,66.936,18.034,66.879,17.849Z" fill="#fff" fill-rule="evenodd"/><path d="M69.913,15.7c.214-.157-.1-.511-.407-.5.22-.153.831.284,1.233.284-.282-.062-.437.15-.515-.017-.163-.074-.172.208-.054.245C70.112,15.771,69.964,15.611,69.913,15.7Z" fill="#fff" fill-rule="evenodd"/><path d="M56.488,41.1c.426-.037.686.59,1.184.388-.059.139.1.2-.014.363-.224-.361-.561-.142-.666-.5C56.767,41.462,56.605,41.181,56.488,41.1Z" fill="#fff" fill-rule="evenodd"/><path d="M69.611,21c-.042.181.052.114.2.2.165.221-.23-.165-.214.076-.174-.1-.324-.2-.2-.342.055.023.043.056.026.089a.426.426,0,0,0,.214-.076C69.7,21,69.643,21.023,69.611,21Z" fill="#fff" fill-rule="evenodd"/><path d="M71.467,22.141c.1.092.235.193.127.309-.213-.239-.346-.112-.531-.216-.031.05.045.086.083.127-.48.086-.913-.522-1.22-.942.083-.09.2-.057.306-.086C70.09,21.691,71.165,22.1,71.467,22.141Z" fill="#fff" fill-rule="evenodd"/><path d="M74.278,19.511c.143.107.239.049.4.222-.082.049-.177.056-.259.105,1.073.478,2.147,1.913,3.322,2.362.051.561.866.382.783.838.08-.175.035-.123.195-.227-.533-.18-1.024-.853-.846-1.131-.178.274.325-.191.329.2.166-.036-.006-.3.153-.185a2.368,2.368,0,0,1,.1.482,2.122,2.122,0,0,0,.426.21c-.037.061-.12.121-.06.187.175-.308.354.2.443.307.036-.25-.312-.522-.247-.773-.183.108-.127-.072-.33-.207.037-.062.12-.121.058-.188-.086.01-.181-.331-.448-.308.1.131.065.179-.056.189-.23-.315-.673-.481-.832-.928-.239.24-.36-.058-.561-.278-.065.063-.114.192-.208.144-.114-.108-.024-.22-.036-.33.1.092.43.186.292,0-.112.13-.387-.361-.5-.23.14.093.164.186.074.283-.056-.235-.206,0-.4-.23-.117.108-.229.239-.372.244.036-.356-.408-.159-.616-.313a1.019,1.019,0,0,1-.049-.712c-.215-.11-.246-.192-.34-.179.116.108.029.222.044.332a2.406,2.406,0,0,1-.92-.668.357.357,0,0,1-.479-.1C73.43,18.9,74.323,19.128,74.278,19.511ZM76.7,21.192c-.065-.062.016-.126.051-.188a.594.594,0,0,1,.338.183C77.029,21.458,76.766,20.92,76.7,21.192Z" fill="#fff" fill-rule="evenodd"/><path d="M57.925,41.748c.038-.16.08.208.219.239-.138.1-.264,0-.391-.068C57.841,41.882,58.007,41.9,57.925,41.748Z" fill="#fff" fill-rule="evenodd"/><path d="M72.931,23.6c-.112-.083-.169.078-.3-.072a.513.513,0,0,0-.048-.411c.053-.042.136.051.184-.012-.089.315.346.366.164.723A.169.169,0,0,1,72.931,23.6Z" fill="#fff" fill-rule="evenodd"/><path d="M73.1,23.727c.078-.189.167.011.112.084.077.065.153.128.2.08.1.149-.215.133-.313.064C73.194,23.873,73.205,23.8,73.1,23.727Z" fill="#fff" fill-rule="evenodd"/><path d="M58.323,43.238a.031.031,0,0,0,.038-.048c.159-.058.292.218.452.178-.021.026-.73.07-.515-.223C58.34,43.163,58.345,43.2,58.323,43.238Z" fill="#fff" fill-rule="evenodd"/><path d="M58.687,43.646c-.133.085,0,.327,0,.476.106-.145.357.186.591.351-.228.05-.859-.3-.675-.665-.142-.156-.18-.141-.3-.292.368-.036.792.37.974.556C59.1,44.173,58.853,43.747,58.687,43.646Z" fill="#fff" fill-rule="evenodd"/><path d="M75.3,25.483c-.153-.251.054-.046.154-.184l.267.232c-.186,0-.052.11-.1.229.162.153.24-.235.424.05-.058.126-.158-.024-.225.044a.759.759,0,0,1,.586.51c-.2.056-.246-.119-.32-.278-.116.041-.245.005-.355.088a.45.45,0,0,0-.173-.231c.054-.046.13.046.2.093C75.668,25.944,75.486,25.381,75.3,25.483Z" fill="#fff" fill-rule="evenodd"/><path d="M59.593,44.345a.761.761,0,0,0,0,.233c-.063.054-.106-.024-.156-.053.1-.031.148-.123.061-.184.12,0,.266-.17.374-.076C59.749,44.473,59.685,44.313,59.593,44.345Z" fill="#fff" fill-rule="evenodd"/><path d="M60.267,44.286c.186-.068.128.185.279.155C60.375,44.578,60.328,44.341,60.267,44.286Z" fill="#fff" fill-rule="evenodd"/><path d="M76.654,26.506c.134.094.191.186.134.276.188.1.119-.014.213-.132l.213.188c-.4-.1.027.159-.1.315C76.966,26.879,76.586,26.818,76.654,26.506Z" fill="#fff" fill-rule="evenodd"/><path d="M77.952,27.712c-.155-.231-.388-.248-.4-.4.072-.039.153.019.224-.031.074.185.368.551.056.562C77.771,27.75,77.9,27.806,77.952,27.712Z" fill="#fff" fill-rule="evenodd"/><path d="M71.546,35.137c-.111.146-.646-.35-.37-.2C71.3,35.068,71.425,34.918,71.546,35.137Z" fill="#fff" fill-rule="evenodd"/><path d="M71.377,35.307c.209-.028.286.3.409.407C71.608,35.741,71.6,35.416,71.377,35.307Z" fill="#fff" fill-rule="evenodd"/><path d="M78.935,29.631c.03-.1-.093-.221.023-.317a5.968,5.968,0,0,0,.786.712c-.211-.016-.16.065-.317.105l-.147-.15c.059-.041.126.057.19.109C79.584,29.9,79.086,29.52,78.935,29.631Z" fill="#fff" fill-rule="evenodd"/><path d="M80.988,29.257c.217.13.253.425.574.658C81.288,29.846,81.111,29.53,80.988,29.257Z" fill="#fff" fill-rule="evenodd"/><path d="M83.339,28.21c-.187-.147.092-.209-.161-.369.167-.057.353.173.517.046C83.686,28.183,83.259,27.781,83.339,28.21Z" fill="#fff" fill-rule="evenodd"/><path d="M81.158,30.182c0,.189.218.411.291.61l.09-.079C81.585,31.1,80.918,30.324,81.158,30.182Z" fill="#fff" fill-rule="evenodd"/><path d="M83.5,29.682c.075-.106.155-.065.231-.1.088.153-.227.373.112.5.105.215-.181-.06-.234,0C83.586,29.952,83.657,29.839,83.5,29.682Z" fill="#fff" fill-rule="evenodd"/><path d="M81.872,31.283c.253-.089.3.364.376.53a.26.26,0,0,0-.185.061c.3.125.024.233.141.442.062.049.123-.04.185.032.168.153.166.277,0,.37-.158-.343-.148-.3-.461-.543l.137-.115a.544.544,0,0,1-.187-.31c-.092.127-.1.207-.274.139-.129.072.236.225,0,.278l-.14-.44c.266.187.242-.028.366-.219,0,.177.112.141.234.273C82.277,31.663,82.016,31.462,81.872,31.283Z" fill="#fff" fill-rule="evenodd"/><path d="M83.979,29.869c.069.2.047.257.248.382a.168.168,0,0,0-.04.23C84.169,30.474,83.829,30,83.979,29.869Z" fill="#fff" fill-rule="evenodd"/><path d="M82.575,32.474c.3.032.137.377.075.492.075.033.153-.028.224.1C82.455,33.189,82.7,32.7,82.575,32.474Z" fill="#fff" fill-rule="evenodd"/><path d="M62.574,51.021c.091.016.123.289.191.4C62.6,51.412,62.606,51.14,62.574,51.021Z" fill="#fff" fill-rule="evenodd"/><path d="M74.957,43.762c-.035-.1-.14-.142-.108-.059-.192-.213-.086-.346.222-.209.035.044-.158.233.038.171C75.131,43.746,75.033,43.688,74.957,43.762Z" fill="#fff" fill-rule="evenodd"/><path d="M75.934,45.328c.064-.025.055.031.026.047.09.024.2,0,.234.179C76.056,45.6,75.878,45.494,75.934,45.328Z" fill="#fff" fill-rule="evenodd"/><path d="M63.605,52.548c.217-.011.145.163.164.3C63.654,52.86,63.726,52.631,63.605,52.548Z" fill="#fff" fill-rule="evenodd"/><path d="M64.764,56.1l-.023-.061c.05-.012.049-.032.045-.052.1.057.249.07.32.168C64.924,56.226,65.013,56.034,64.764,56.1Z" fill="#fff" fill-rule="evenodd"/><path d="M65.416,57.209c-.164-.015.036-.348-.159-.125A.636.636,0,0,0,65.1,56.3c.074.212-.059.274-.093.416-.245-.154.119-.412-.182-.462,0,.054-.116.065-.17.06.03.082.1.169-.041.222-.12,0,.036-.3-.22-.233a9.717,9.717,0,0,1,.71,2.148c.068-.068.032-.163.115-.229.021.021.022.061.077.048.006-.028-.017-.063.04-.078-.019.128.164.276.244.176-.21-.005-.118-.178-.09-.284-.133-.05-.282.144-.367.028.142-.253-.33-.475-.014-.672.184.07-.065.5.39.472-.052-.182-.253-.362-.044-.573l-.2-.045C65.321,57.145,65.366,57.287,65.416,57.209Zm-.4-.464c.178-.069.263.067.187.148A.173.173,0,0,1,65.018,56.745Z" fill="#fff" fill-rule="evenodd"/><path d="M67.212,55.448c.127-.039.08.138.136.187-.059,0-.118-.007-.113.038C67.109,55.7,67.266,55.516,67.212,55.448Z" fill="#fff" fill-rule="evenodd"/><path d="M66.839,57.987c.128.08.372.224.23.412C66.949,58.312,66.949,58.1,66.839,57.987Z" fill="#fff" fill-rule="evenodd"/><path d="M66.561,58.3c.006-.05.138-.062.224-.089,0,.093.285.25-.061.3C66.745,58.4,66.909,58.221,66.561,58.3Z" fill="#fff" fill-rule="evenodd"/><path d="M65.473,59.823c.07-.007.1-.026.11-.053.2.08.116.233.024.359C65.465,60.074,65.6,59.926,65.473,59.823Z" fill="#fff" fill-rule="evenodd"/><path d="M96.3,54.932c-.068-.192.123-.476.25-.286C96.641,54.629,96.375,54.764,96.3,54.932Z" fill="#fff" fill-rule="evenodd"/><path d="M67.182,60.083c-.016-.06.068-.085.039-.147.231.044.141.111.215.25C67.369,60.284,67.376,60.008,67.182,60.083Z" fill="#fff" fill-rule="evenodd"/><path d="M67.005,61.047c.208.117.055.415.326.557C66.98,61.532,67.082,61.236,67.005,61.047Z" fill="#fff" fill-rule="evenodd"/><path d="M66.7,61.455c-.1,0-.109.037-.11.078-.14,0-.151-.075-.08-.126.126-.023.45.1.2.115Z" fill="#fff" fill-rule="evenodd"/><path d="M97.216,59.005c.127-.128-.085.537.071.706-.181-.2-.221.18-.281.34-.225-.135-.055-.39-.112-.7C97.08,59.7,97.155,59.2,97.216,59.005Z" fill="#fff" fill-rule="evenodd"/><path d="M103.106,59.519c-.129.027-.043-.306-.087-.43.3.007.387.368.465.749Z" fill="#fff" fill-rule="evenodd"/><path d="M65.742,63.006c.252.031,0,.161.02.259C65.626,63.235,65.828,63.115,65.742,63.006Z" fill="#fff" fill-rule="evenodd"/><path d="M97.469,69.57c-.085-.042.034-.1.025-.236.077.119.1.263.127-.068.108-.053.084.465,0,.636C97.521,69.878,97.614,69.31,97.469,69.57Z" fill="#fff" fill-rule="evenodd"/><path d="M95.594,77.927c.036-.207.035.528.144.644-.122.041-.406.3-.3.455-.344.046.121-.366.186-.713-.125-.01-.166.162-.248.241C95.266,78.393,95.62,78.285,95.594,77.927Z" fill="#fff" fill-rule="evenodd"/><path d="M94.406,80.03c.064-.123.042-.439.215-.314-.181.388.122.554.325.39.046.062.013.178.133.189C94.81,80.5,94.663,80.139,94.406,80.03Z" fill="#fff" fill-rule="evenodd"/><path d="M94.689,81.392c-.153-.113-.416.109-.424-.052.12-.222.252.058.466-.087-.056.112.005.144.072.173-.261.387-.1.607-.348,1.1a.255.255,0,0,1,.054-.36c-.276.076-.083-.3-.193-.587l.288.088Z" fill="#fff" fill-rule="evenodd"/><path d="M96.318,85.068c-.244-.216-.276.151-.406.248C95.782,85.077,96.469,84.558,96.318,85.068Z" fill="#fff" fill-rule="evenodd"/><path d="M91.866,86.845c.036-.151.38-.9.189-.15A.53.53,0,0,0,91.866,86.845Z" fill="#fff" fill-rule="evenodd"/><path d="M91.775,87.707a1.859,1.859,0,0,1,.2-.818c.071.2.246,0,.387,0-.026.181-.187.458-.374.45.008.117.091.015.2.154a.391.391,0,0,0-.16.389C91.905,87.977,92.044,87.591,91.775,87.707Z" fill="#fff" fill-rule="evenodd"/><path d="M91.357,87.461a4.046,4.046,0,0,1-.308,2.238c-.025.08.076.1.135.138-.146.137-.206.154-.332.008-.132.282-.054.336-.262.431a.169.169,0,0,0,.1.2,25.246,25.246,0,0,0-1.571,3.554c-.053-.29-.211.175-.39-.038a.405.405,0,0,1-.053.224c.116.029.179-.231.318-.082-.268.266-.291.44-.639.418-.095-.188.439-.22.073-.383,1.081-1.976,1.687-3.051,2.71-5.285.114-.157-.059-.173-.08-.264.112,0,.127-.308.249-.277-.007-.115,0-.238-.14-.285C91.21,87.874,91.455,87.581,91.357,87.461Z" fill="#fff" fill-rule="evenodd"/><path d="M84.483,90.351c.159.082-.077.318-.026.441a.473.473,0,0,0,.2-.125c.17.554-.448,1.041-.677,1.645-.206-.339-1.083.953-.864,1.254-.069.217-.208.044-.3.145-.017.2.087.353.007.569a.3.3,0,0,0-.17-.183c-.074.306-.484.218-.724.365.1.156-.063.32-.208.441.047-.323-.21-.069-.34.192.092-.417-.023-.633.214-1,.055.062.016.152.08.211a1.2,1.2,0,0,0,.623-.662.2.2,0,0,1,.257.154c-.055-.28.489-.675.234-.975a1.231,1.231,0,0,0,.34-.354c.17.18-.116.172-.2.354a.431.431,0,0,0,.088.209A24.41,24.41,0,0,0,84.483,90.351Z" fill="#fff" fill-rule="evenodd"/><path d="M82.207,89.917c.2-.033.32-.388.536-.38-.139.235-.452.473-.468.637C82.17,90.294,82.239,89.976,82.207,89.917Z" fill="#fff" fill-rule="evenodd"/><path d="M56.041,76.128a.618.618,0,0,0,.2.144c-.185-.064-.324-.043-.267.113-.053,0-.15-.068-.182-.041-.175-.128.026-.064.029-.178C55.973,76.27,56.014,76.211,56.041,76.128Z" fill="#fff" fill-rule="evenodd"/><path d="M85.5,94.132c.124-.409.287-.574.423-.991a.2.2,0,0,1,0,.244.25.25,0,0,1,.191.025,1.257,1.257,0,0,0-.481.966C85.637,94.262,85.72,93.722,85.5,94.132Z" fill="#fff" fill-rule="evenodd"/><path d="M85.088,95.062c.2-.036-.208.221-.318.063a.473.473,0,0,0,.2-.218C85.064,94.919,84.951,95.224,85.088,95.062Z" fill="#fff" fill-rule="evenodd"/><path d="M86.083,96.084c.051.015.032.054.012.095l.1.062c-.284-.052-.478.76-.793.476.061-.149.149-.074.232-.03C85.852,96.442,85.963,96.22,86.083,96.084Z" fill="#fff" fill-rule="evenodd"/><path d="M88.121,100.889c-.124.2-.257.131-.381.336.058-.187,0-.453.223-.638-.085-.068-.161.013-.245-.066.175-.237.241-.212.313-.469-.082-.011-.159.018-.234.135-.081-.191.116-.233.022-.466.111-.131.213.154.207.231.125-.062.254-.069.374-.238.022.077-.05.188.062.233C88.233,100.417,88.047,100.57,88.121,100.889Z" fill="#fff" fill-rule="evenodd"/><path d="M77.938,93.233c.05-.053.07,0,.05.033.074,0,.133-.088.221-.007-.138.148-.3.134-.448.24C77.518,93.549,78.067,93.289,77.938,93.233Z" fill="#fff" fill-rule="evenodd"/><path d="M78.809,94.52c.038.143.135.272-.03.463-.1-.382-.143.37-.391.455-.022.059.112.3.156.194-.251.177-.849,1.019-1.331,1.176.216.351-.4.3-.182.623-.086.09-.185-.094-.273-.046-.044.383-.517.445-.64.688-.082.061-.312-.375-.315,0-.26-.077.135-.36.35-.23a1.388,1.388,0,0,1,.558-.493c.063-.1.015-.182-.1-.253.272-.273.378-.219.449-.575.427.494.568-.72,1.143-.724C78.22,95.39,78.6,95.04,78.809,94.52Z" fill="#fff" fill-rule="evenodd"/><path d="M81.51,98.184c.045.114-.028.26-.162.422.1.148.186.008.286.117a2.108,2.108,0,0,0-.338.85c-.167-.362-1.113,1.059-1.576.826a.494.494,0,0,1-.14.265.866.866,0,0,0-.657.314c-.555-.008-1.167.531-1.591.442.215-.081.383-.5.293-.411.7-1.03,2.708-2.212,2.64-3.462-.212.133-.018.525-.409.846.089-.4-.1-.6.069-1.092-.131-.111-.214.411-.353.175-.016-.157.182-.157.29-.393.14.484.691-.347.773-.566.1.07-.047.2.116.253-.119.236-.38.274-.368.516.518-.008.595-.568.969-.957-.255.458-.05,1.213-.263,1.818-.217.2-.453.509-.237.724-.12.126-.25-.017-.367.18-.047.254.271.179-.122.549a.254.254,0,0,0,.1.263c.328.006.52-.811.687-.493.127-.11-.028-.152.039-.247-.1-.109-.178.285-.279.067-.009-.18.187-.3.323-.126C81.427,98.744,81.226,98.525,81.51,98.184Z" fill="#fff" fill-rule="evenodd"/><path d="M77.963,94.9c.1.085-.156.091-.19.267-.2-.051-.147-.068-.206-.227C77.708,94.95,77.776,95.123,77.963,94.9Z" fill="#fff" fill-rule="evenodd"/><path d="M76.387,97.175a3.274,3.274,0,0,1-.637.59C75.8,97.715,76.187,97.075,76.387,97.175Z" fill="#fff" fill-rule="evenodd"/><path d="M77.594,99.669c-.355-.373.547-.614.856-.845C78.166,99.168,77.89,99.556,77.594,99.669Z" fill="#fff" fill-rule="evenodd"/><path d="M66.311,91.153c-.115.162-.289-.062-.416.014C65.759,91.178,66.17,90.947,66.311,91.153Z" fill="#fff" fill-rule="evenodd"/><path d="M53.708,82.986c-.1.087-.262-.143-.377-.146C53.32,82.782,53.578,82.846,53.708,82.986Z" fill="#fff" fill-rule="evenodd"/><path d="M58.287,89.34c.073.135-.159-.013-.2.091a.239.239,0,0,1,.048-.275C58.173,89.261,58.143,89.39,58.287,89.34Z" fill="#fff" fill-rule="evenodd"/><path d="M52.554,83.191a.3.3,0,0,1-.389,0C52.352,83.171,52.351,83.12,52.554,83.191Z" fill="#fff" fill-rule="evenodd"/><path d="M52.1,82.784c.066.2-.174.009-.232.031C51.62,82.874,52,82.7,52.1,82.784Z" fill="#fff" fill-rule="evenodd"/><path d="M53.182,89.1c-.067.037-.033.111-.106.146-.126-.19.14-.366.212-.366-.077.234.182.218.307.371.012.2-.041.4.165.469a.816.816,0,0,1-.555-.052C53.385,89.6,53.59,89.5,53.182,89.1Z" fill="#fff" fill-rule="evenodd"/><path d="M49.512,92.4c.231.018.077-.108-.048-.18.145.232-.228.233-.395.434-.085-.1-.185-.094-.256-.269.125-.079.538-.084.285-.439.2-.354.74-.561.816-.962-.434-.453-.561-.06-.762.309-.081-.214-.2-.117-.306-.171-.112-.683.62-.52,1.011-.592-.059.117.194.148.113.282.4.2.827.117,1.214.455.105-.036.027-.145.161-.17a.487.487,0,0,0,.2.233c.074-.184.218-.347.325.01.06-.054.221-.069.088-.2.1.024.2.155.31.158.162-.016-.075-.184.087-.2.186.224.408.005.594.261.057-.289.53-.061.779.129-.2.772-1,.23-1.682.658-.2-.332-.451-.273-.617-.043-.1,0-.182-.107-.263-.26a.741.741,0,0,1-.384.161c-.208.517-.216,1.161-.853,1.609-.159-.154-.128-.036-.291-.04a3.287,3.287,0,0,0,.125-.833C49.664,92.7,49.591,92.535,49.512,92.4Z" fill="#fff" fill-rule="evenodd"/><path d="M24.213,25.111a.365.365,0,0,0,.024-.245c.238.013.289-.135.528-.117-.027.139.1.392.133.227.14.066-.2.319.187.222.016.229-.331.129-.277.391A.87.87,0,0,0,24.213,25.111Z" fill="#fff" fill-rule="evenodd"/><path d="M71.786,16.548c.231-.048.539.121.769.07.137.1.058.217-.031.336.114,0,.16.042.1.134.283-.02.358.2.674.224.06.2.018.409.346.587-.52-.193-.85-.663-1.181-.7-.083-.166-.07-.342-.225-.5-.214-.046-.368.079-.639-.127.085-.089.085-.168-.034-.235a.25.25,0,0,0,.158-.113A1.108,1.108,0,0,1,71.786,16.548Z" fill="#fff" fill-rule="evenodd"/><path d="M81.569,30.106c.108.055.213-.045.325.1-.232.15.038.383.2.6-.166.18-.345-.3-.517-.415C81.568,30.3,81.727,30.225,81.569,30.106Z" fill="#fff" fill-rule="evenodd"/><path d="M88.546,97.11c-.138-.029.1-.243-.139-.35.229.02.394-.425.64-.255.117-.405.085-.748-.374-.916a2.29,2.29,0,0,1,1.4-1.817c.773.122,1.1.647.9,1.241-.3.892-1.534,1.358-1.612,2.127-.216.178-.63.843-.993,1.054-.114-.174-.113-.077-.307-.188.118-.279.468-.655.2-.787A.367.367,0,0,1,88.546,97.11Z" fill="#fff" fill-rule="evenodd"/></g><rect x="37.081" y="82.879" width="6.025" height="31.242" fill="#fae45d"/><rect x="45.918" y="82.879" width="6.025" height="31.242" fill="#fae45d"/><circle cx="44.512" cy="29.108" r="10.514" fill="#fae45d"/><path d="M60.253,91.464H28.771a2.8,2.8,0,0,1-2.746-3.341l8.433-42.7A2.8,2.8,0,0,1,37.2,43.167H51.82a2.8,2.8,0,0,1,2.746,2.257L63,88.123A2.8,2.8,0,0,1,60.253,91.464Z" fill="#fae45d"/><polyline points="36.406 46.935 22.769 60.873 29.983 70.4" fill="none" stroke="#fae45d" stroke-linecap="round" stroke-linejoin="round" stroke-width="7"/><polyline points="52.594 46.935 66.231 60.873 59.017 70.4" fill="none" stroke="#fae45d" stroke-linecap="round" stroke-linejoin="round" stroke-width="7"/></g></g></svg>