<svg xmlns="http://www.w3.org/2000/svg" viewBox="0 0 202.279 40.325"><title>image3-2</title><g id="Layer_2" data-name="Layer 2"><g id="Text"><circle cx="4.662" cy="5.663" r="4.662" fill="#0f3eff"/><circle cx="22.203" cy="5.663" r="4.662" fill="#0f3eff"/><circle cx="39.745" cy="5.663" r="4.662" fill="#0f3eff"/><circle cx="57.286" cy="5.663" r="4.662" fill="#0f3eff"/><circle cx="74.827" cy="5.663" r="4.662" fill="#0f3eff"/><circle cx="92.369" cy="4.662" r="4.662" fill="#0f3eff"/><circle cx="109.91" cy="4.662" r="4.662" fill="#0f3eff"/><circle cx="127.451" cy="4.662" r="4.662" fill="#0f3eff"/><circle cx="144.993" cy="4.662" r="4.662" fill="#0f3eff"/><circle cx="162.534" cy="4.662" r="4.662" fill="#0f3eff"/><circle cx="180.075" cy="4.662" r="4.662" fill="#0f3eff"/><circle cx="197.617" cy="4.662" r="4.662" fill="#0f3eff"/><circle cx="4.662" cy="20.663" r="4.662" fill="#0f3eff"/><circle cx="22.203" cy="20.663" r="4.662" fill="#0f3eff"/><circle cx="39.745" cy="20.663" r="4.662" fill="#0f3eff"/><circle cx="57.286" cy="20.663" r="4.662" fill="#0f3eff"/><circle cx="74.827" cy="20.663" r="4.662" fill="#0f3eff"/><circle cx="92.369" cy="19.662" r="4.662" fill="#0f3eff"/><circle cx="109.91" cy="19.662" r="4.662" fill="#0f3eff"/><circle cx="127.451" cy="19.662" r="4.662" fill="#0f3eff"/><circle cx="144.993" cy="19.662" r="4.662" fill="#0f3eff"/><circle cx="162.534" cy="19.662" r="4.662" fill="#0f3eff"/><circle cx="180.075" cy="19.662" r="4.662" fill="#0f3eff"/><circle cx="197.617" cy="19.662" r="4.662" fill="#0f3eff"/><circle cx="4.662" cy="35.663" r="4.662" fill="#0f3eff"/><circle cx="22.203" cy="35.663" r="4.662" fill="#0f3eff"/><circle cx="39.745" cy="35.663" r="4.662" fill="#0f3eff"/><circle cx="57.286" cy="35.663" r="4.662" fill="#0f3eff"/><circle cx="74.827" cy="35.663" r="4.662" fill="#0f3eff"/><circle cx="92.369" cy="34.662" r="4.662" fill="#0f3eff"/><circle cx="109.91" cy="34.662" r="4.662" fill="#0f3eff"/><circle cx="127.451" cy="34.662" r="4.662" fill="#0f3eff"/><circle cx="144.993" cy="34.662" r="4.662" fill="#0f3eff"/><circle cx="162.534" cy="34.662" r="4.662" fill="#0f3eff"/></g></g></svg>