<svg xmlns="http://www.w3.org/2000/svg" xmlns:xlink="http://www.w3.org/1999/xlink" viewBox="0 0 109.9925 109.9925"><defs><clipPath id="clip-path"><circle cx="54.9925" cy="54.9888" r="52" style="fill:none"/></clipPath></defs><title>image3</title><g id="Layer_2" data-name="Layer 2"><g id="artwork"><circle cx="54.9925" cy="54.9888" r="50" style="fill:#fff"/><g style="clip-path:url(#clip-path)"><path d="M42.4427,91.2642s4.1932-13.0824,2.59-20.9108c-2.8245-13.7915-11.7038-30.6192,8.5825-38.35,12.3518-4.7073,19.8784-2.8253,25.3815,7.5906,0,0,2.7328,6.4257-.7466,11.0758,0,0-.5364,3.6635,3.2824,8.2219,2.08,2.4824-1.8207,2.84-3.1768,3.6355,0,0-1.3159,6.377-1.7971,7.6039a6.487,6.487,0,0,1-8.4492,3.23c-4.913-1.9956-5.4666-3.444-5.4666-3.444s-.0821.0783-.22.2278c-2.6139,2.8306-.5381,6.25,1.6767,9.4027,1.0525,1.498,9.71,8.9693,11.8429,9.9447L55.9877,96.9244l-11.145-7.0876Z" style="fill:#613216"/><path d="M50.169,15.0132c3.32,2.8653,3.43,4.6958,3.43,4.6958s.8162-.8947,2.5778,1.7221,1.28,3.8916-2.6544,7.9947c0,0-15.081,9.1629-17.83,15.9827,0,0-6.4793,1.0627-8.33-5.1513,0,0-2.4245-.0351-4.2434-5.5619C20.03,25.3085,39.39,5.711,50.169,15.0132Z"/><path d="M78.9968,39.5943c.0928.342-5.1077-3.2335-12.6913,2.3335-5.6027,4.1129-8.6295,11.5573-8.6295,11.5573L54.9433,58.991s-5.1468,5.91-5.533,7.614l-5.7032-1.7358s-20.7689-19.2029,2.09-35.5207C45.7969,29.3485,72.57,15.9045,78.9968,39.5943Z"/><path d="M57.676,53.4851a2.3341,2.3341,0,0,0-3.8047-.7246c-2.46,1.978,1.626,7.7826,3.0105,7.876Z" style="fill:#613216"/><path d="M75.9422,89.4921s11.6338,12.18,14.2187,14.5242,5.6157,6.39,3.8914,15.5026c-1.8754,9.9109-4.75,39.5582-3.36,45.6961l-52.3707,2.6332s-12.0631-67.1239,6.67-87.9926C51.5959,95.3207,75.9422,89.4921,75.9422,89.4921Z" style="fill:#fe3d4a"/><path d="M58.842,91.9759c2.156,9.7266,7.8153,35.7626,9.4266,48.1738a8.6241,8.6241,0,0,0,5.4647,6.9517l9.6883,3.7117-4.2959,12.4925s-11.8744,3.9878-25.162-13.7469a19.6145,19.6145,0,0,1-3.5629-8.1351L41.8633,96.038A9.26,9.26,0,0,1,47.13,85.7808a8.4945,8.4945,0,0,1,4.4169-.6552A8.6868,8.6868,0,0,1,58.842,91.9759Z" style="fill:#f4726b"/><path d="M55.2855,58.7954a7.7537,7.7537,0,0,0-3.7342,5.502,11.6943,11.6943,0,0,0,4.9222,11.6567,6.9217,6.9217,0,0,0,6.0669.9372,6.7077,6.7077,0,0,0,4.103-4.5379,10.8711,10.8711,0,0,0-.0889-6.5246,11.6315,11.6315,0,0,0-3.65-5.5623,7.97,7.97,0,0,0-6.3865-1.9045,8.0155,8.0155,0,0,1,6.8208,1.33,11.9728,11.9728,0,0,1,4.3016,5.77,11.727,11.727,0,0,1,.3332,7.2962,9.01,9.01,0,0,1-1.78,3.3375,7.4246,7.4246,0,0,1-3.1665,2.18,8.2873,8.2873,0,0,1-7.3157-1.1632,11.9087,11.9087,0,0,1-4.4346-5.7961,12.1694,12.1694,0,0,1-.4228-7.1815A7.818,7.818,0,0,1,55.2855,58.7954Z" style="fill:#fae45d"/></g><path d="M106.2386,54.97c1.1511-.07,2.2993-.2016,3.45-.2881l.2883-.0231A54.7109,54.7109,0,0,0,93.67,15.9025a54.9568,54.9568,0,1,0,16.3225,39.0863l-1.2407.0835a7.3555,7.3555,0,0,1-1.9636.0676c-.3582-.0764-.69.18-1.0071.6a4.5672,4.5672,0,0,0-.8748,3.5716,4.1706,4.1706,0,0,1-.3056,1.9311,4.1278,4.1278,0,0,0-.13,2.3547,6.0681,6.0681,0,0,1,.1194,1.35,26.522,26.522,0,0,1-.355,2.8933,3.7542,3.7542,0,0,1-.9063,1.9763,4.7919,4.7919,0,0,1-.2146.9645c-.4214,1.143-.85,2.2842-1.3064,3.406-.3672.9182-.757,1.7841-1.0857,2.7164A26.2359,26.2359,0,0,1,99.53,79.72l-1.4773,2.7016a4.5708,4.5708,0,0,1-.2732.3856l-.501.73c-.19.2275-.3782.4563-.5547.6914a5.3937,5.3937,0,0,0-.8486,1.5386c-.4109.5328-.7547,1.113-1.1221,1.68A7.0037,7.0037,0,0,1,93.3756,88.93a2.7381,2.7381,0,0,0-.5044.5063A9.17,9.17,0,0,1,90.0367,91.89c-.46.2852-.9043.613-1.35.9291-.6325.4248-1.2163.9016-1.8347,1.3377a11.612,11.612,0,0,0-1.7549,1.4544.95.95,0,0,1-.1853.147,20.6218,20.6218,0,0,1-2.5859,1.6086,8.31,8.31,0,0,1-2.1375.7909,21.0866,21.0866,0,0,1-2.36.4821,5.4617,5.4617,0,0,1-2.5275-.36,9.6366,9.6366,0,0,0-1.4961.7836,7.0624,7.0624,0,0,0-1.33.9532,5.7972,5.7972,0,0,1-1.49.7272,17.0837,17.0837,0,0,1-2.5808,1.157l-.3584-.2238a5.0726,5.0726,0,0,1-2.6125.1836,9.4372,9.4372,0,0,1-2.7735.4612,15.5134,15.5134,0,0,0-3.7107,1.1544c-.3295-.0352-.6213-.0662-.9465-.1008-.227.1908-.4414.3707-.65.5465-.6159.1594-1.3816.06-1.6235.6091a12.4574,12.4574,0,0,1-1.9263-.3,1.4446,1.4446,0,0,1-1.0251-.6052c-.1507-.2414-.4136-.4557-.5354-.7021a1.9385,1.9385,0,0,0-1.7808-.9831,10.4952,10.4952,0,0,1-1.05.2547,5.506,5.506,0,0,1-2.4427.1782.6287.6287,0,0,0-.2231-.0006,9.2072,9.2072,0,0,1-2.1311.27A8.1538,8.1538,0,0,0,42.44,102.62a12.9,12.9,0,0,1-1.5591.1324c-.2387-.0809-.6435-.1977-1.0376-.3485a20.086,20.086,0,0,0-2.3061-.7076,11.7212,11.7212,0,0,1-2.2232-.6494L32.49,99.6432a2.507,2.507,0,0,0-.3191-.1463,7.4035,7.4035,0,0,1-1.2944-.5232c-.4031-.2289-.7959-.4764-1.1826-.7327l-2.2874-1.5739a7.8554,7.8554,0,0,1-1.324-1.382,2.0054,2.0054,0,0,0-.78-1.9588,2.3649,2.3649,0,0,1-.4826-.6885A7.8593,7.8593,0,0,1,24.273,91.28a7.6711,7.6711,0,0,1,.5022-.8943,2.1918,2.1918,0,0,0-.677-2.7409c-.3176-.27-.62-.5655-.9436-.8288a3.2545,3.2545,0,0,0-.9978-.72c-.6489-.7756-1.5769-1.2816-2.1138-2.1783a1.4375,1.4375,0,0,0-.2421-.3379c-1.127-.9248-2.2083-2.0574-3.462-2.2909-.66-.4307-1.1311-.79-1.622-1.1692a2.8147,2.8147,0,0,1-.65-.6836,4.3037,4.3037,0,0,0-1.1016-1.183c-.5247-.3724-.8679-.9191-1.3877-1.2655a1.7536,1.7536,0,0,1-.4246-.7529,10.7656,10.7656,0,0,0-.965-2.2579A3.9216,3.9216,0,0,1,9.89,71.72a4.2549,4.2549,0,0,0-.2868-2.0135,3.9751,3.9751,0,0,0-.2649-.6074c-.4378-.8129-.8748-1.6429-1.3589-2.4414a4.1245,4.1245,0,0,1-.523-1.3437,10.9805,10.9805,0,0,0-1.115-3.3395,11.24,11.24,0,0,1-.74-1.67,6.5453,6.5453,0,0,1-.2468-1.86A7.3852,7.3852,0,0,0,5.19,56.8292a7.1364,7.1364,0,0,1-.0584-2.9836A4.1748,4.1748,0,0,1,5.44,52.9a4.6632,4.6632,0,0,1,.3933-.7425,1.9307,1.9307,0,0,0,.2619-1.4843,5.6761,5.6761,0,0,1-.0966-1.5765,14.244,14.244,0,0,1,.164-1.6012,6.0077,6.0077,0,0,0,.0808-1.0314c.0052-.772.1573-1.3683.7559-1.6608a1.994,1.994,0,0,0,.301-.2325c.281-.7556.5554-1.4934.8931-2.4011a5.6927,5.6927,0,0,0,.5146-.3647,1.326,1.326,0,0,0,.3838-.4526,14.8333,14.8333,0,0,1,.7805-1.5657,7.7781,7.7781,0,0,0,.6426-1.6388,2.57,2.57,0,0,0,.1123-.5379,7.624,7.624,0,0,1,.1189-1.2094,7.3107,7.3107,0,0,1,.3911-1.1323A17.6106,17.6106,0,0,1,12.27,33.1045a16.6754,16.6754,0,0,0,1.2657-3.0577c.0681-.2068.1091-.414.17-.6544.3235-.2853.6433-.5673.9924-.8755.48-.9721.5867-1.9251,1.0466-2.9508.6577-.5553,1.1429-1.339,1.8733-1.88A4.6441,4.6441,0,0,0,19.19,21.8021a3.7382,3.7382,0,0,1,.7175-1c.3879-.438.8059-.82,1.1455-1.25a5.1978,5.1978,0,0,0,.8108-1.4,2.1792,2.1792,0,0,1,1.0325-1.1476,4.6881,4.6881,0,0,1,.7964-.4011,4.3318,4.3318,0,0,0,1.79-1.1572,6.62,6.62,0,0,1,1.8865-1.4625,7.1738,7.1738,0,0,0,1.2829-.7442q1.0371-.7144,2.0784-1.4322a2.5573,2.5573,0,0,1,1.6907-.4025,2.6956,2.6956,0,0,0,1.3606-.3374,10.7393,10.7393,0,0,1,2.7756-1.2336,2.2749,2.2749,0,0,0,.7039-.3377c.7758-.4444,1.5542-.8909,2.3237-1.3619a6.4327,6.4327,0,0,1,.7143-.3792c.2518-.0874.5083-.1627.7674-.2314l1.562-.3806a3.2386,3.2386,0,0,0,.7537-.2211,6.7247,6.7247,0,0,1,1.7424-.69,12.0472,12.0472,0,0,1,1.88-.16c.2249-.001.4556-.0562.6868-.0781l1.4853-.1464.741-.0669.7458.0194c.7215.0232,1.43.1193,2.1358.1725a3.1792,3.1792,0,0,0,.5588-.0283c.1524-.0176.3318-.1156.438-.0849a3.9784,3.9784,0,0,0,1.47.0833c.489-.023.9836-.0933,1.4866-.0776a10.4793,10.4793,0,0,1,1.0231.3217,6.1977,6.1977,0,0,0,2.22.4674,12.2244,12.2244,0,0,0,2.2727.0546c.2959-.0148.593-.0027.8962.0068.1878.0054.43.0888.5552.038a3.0278,3.0278,0,0,1,1.3562-.15,8.3546,8.3546,0,0,0,1.3755.1374,1.3519,1.3519,0,0,1,.6606.1258,10.9384,10.9384,0,0,0,2.034.72,2.4428,2.4428,0,0,1,.4211.1692,5.699,5.699,0,0,0,3.1394,1.08,2.9031,2.9031,0,0,1,2.0779,1.0079c.0942.1076.1992.213.3054.3153a3.8178,3.8178,0,0,0,2.1094,1.1806,4.8819,4.8819,0,0,1,.5923.1644A12.5932,12.5932,0,0,1,79.16,12.6111a8.2938,8.2938,0,0,1,2.2292.8428c.3548.19.7022.3992,1.0442.62.333.2348.638.5155.9531.7827a4.7192,4.7192,0,0,0,1.0364.6849,3.5442,3.5442,0,0,1,1.3313,1.1592,7.5537,7.5537,0,0,0,2.5005,2.4825,6.5944,6.5944,0,0,1,1.1494.9014,5.6348,5.6348,0,0,1,1.555,1.609c.0354.0779.1689.1369.2551.2072l.5163.4363a13.1541,13.1541,0,0,1,1.377,1.5134c.4668.6657.9133,1.34,1.1221,1.6853.3652.6039.84,1.1559,1.248,1.739a7.083,7.083,0,0,1,.59,1.0909l.5479,1.1181c.2609.4914.5239.9869.8984,1.6925a8.41,8.41,0,0,1,1.3752,2.2977,2.9715,2.9715,0,0,0,.5286.8622,3.72,3.72,0,0,1,1.0239,2.1089,11.5827,11.5827,0,0,0,1.0122,3.0057,2.1682,2.1682,0,0,1,.23.6271,5.3649,5.3649,0,0,0,.5244,2.046,7.13,7.13,0,0,1,.5479,3.08,5.6882,5.6882,0,0,0,.63,3.0885,2.876,2.876,0,0,1,.24.7426,17.5676,17.5676,0,0,1,.2666,3.0641c.0156.64-.0545,1.274-.0977,2.0968.0176.057.0933.3037.1777.5787.1285.0662.253.1855.375.19C104.98,54.9845,105.6121,55.0047,106.2386,54.97Z" style="fill:#fae45d"/></g></g></svg>