<svg xmlns="http://www.w3.org/2000/svg" viewBox="0 0 234.3674 72.7892"><title>sponsor-chase</title><g id="Layer_2" data-name="Layer 2"><g id="Text"><g id="layer1"><path id="path29" d="M175.6663,30.1111a2.45,2.45,0,0,0-1.8237.74,2.3225,2.3225,0,0,0-.7222,1.6791,4.72,4.72,0,0,0,1.0653,2.6723,11.363,11.363,0,0,0-2.4014,1.9684,2.9412,2.9412,0,0,0-.6139,1.9139,3.1007,3.1007,0,0,0,.5056,1.7514,3.4435,3.4435,0,0,0,1.2819,1.1916,3.57,3.57,0,0,0,1.6792.4334,4.61,4.61,0,0,0,3.3945-1.7875,3.8861,3.8861,0,0,0,3.1236,1.7875,2.3853,2.3853,0,0,0,1.4445-.47,2.1208,2.1208,0,0,0,.8125-1.21h-.4334a1.4593,1.4593,0,0,1-1.318.8306,2.0572,2.0572,0,0,1-1.1737-.3792,7.4357,7.4357,0,0,1-1.5347-1.77,8.32,8.32,0,0,0,.9028-1.6972,5.6314,5.6314,0,0,1,1.1375-1.9142,3.0033,3.0033,0,0,1,1.282-.7041v-.4334h-3.9v.4334c.9546.1086,1.4263.497,1.4263,1.1916a3.6945,3.6945,0,0,1-.3069,1.21,6.794,6.794,0,0,1-.8125,1.4987q-1.4388-2.0415-3.0514-4.2253c1.7423-.8766,2.6-1.7763,2.6-2.7084a1.7008,1.7008,0,0,0-.7764-1.4625A3.0562,3.0562,0,0,0,175.6663,30.1111Zm16.5751.0542a5.8772,5.8772,0,0,0-2.925.74,5.0482,5.0482,0,0,0-2.0764,2.2931,7.4647,7.4647,0,0,0-.74,3.2862,5.7909,5.7909,0,0,0,1.6069,4.2794,5.6452,5.6452,0,0,0,4.1709,1.607,5.0528,5.0528,0,0,0,3.9542-1.7514,3.1752,3.1752,0,0,1,.56,1.2459h.3972V37.7309h-.3972a5.9354,5.9354,0,0,1-.6861,2.1306,3.3432,3.3432,0,0,1-1.5528,1.5527,4.5548,4.5548,0,0,1-1.932.4515,3.7153,3.7153,0,0,1-2.9612-1.4084,6.1609,6.1609,0,0,1-1.1736-4.0628,7.3192,7.3192,0,0,1,1.0834-4.3153,3.4137,3.4137,0,0,1,2.925-1.4987,4.2959,4.2959,0,0,1,2.7084.9389,5.059,5.059,0,0,1,1.5889,3.3043h.3972l-.1083-4.46h-.3973a4.2686,4.2686,0,0,1-.4514,1.5347,4.8443,4.8443,0,0,0-1.6069-1.1916A5.2093,5.2093,0,0,0,192.2414,30.1653Zm-69.3339.0361a5.8772,5.8772,0,0,0-2.925.74,5.05,5.05,0,0,0-2.0767,2.2932,7.4541,7.4541,0,0,0-.74,3.2861A5.7931,5.7931,0,0,0,118.7728,40.8a5.6012,5.6012,0,0,0,4.1528,1.607A5.0375,5.0375,0,0,0,126.88,40.674a3.1794,3.1794,0,0,1,.5778,1.2458h.3972V37.767h-.3972a5.928,5.928,0,0,1-.6861,2.1306,3.3336,3.3336,0,0,1-1.5528,1.5528,4.5922,4.5922,0,0,1-1.932.4694,3.7346,3.7346,0,0,1-2.9612-1.4264,6.1548,6.1548,0,0,1-1.1735-4.0628,7.25,7.25,0,0,1,1.0833-4.2973,3.4327,3.4327,0,0,1,2.925-1.5167,4.2912,4.2912,0,0,1,2.7084.9389,5.0691,5.0691,0,0,1,1.5889,3.3043h.3972l-.1083-4.4417h-.3973a4.1661,4.1661,0,0,1-.4694,1.5166,4.7079,4.7079,0,0,0-1.5889-1.1916A5.2005,5.2005,0,0,0,122.9075,30.2014Zm-85.8913.0361c-.6641,0-1.5936.0259-2.78.0722l-1.4806.0542v.3972h.2167a2.7521,2.7521,0,0,1,1.1736.1625.7583.7583,0,0,1,.343.56,12.052,12.052,0,0,1,.09,1.8237v5.7781a12.7723,12.7723,0,0,1-.09,1.8958.8608.8608,0,0,1-.3611.5959,2.1367,2.1367,0,0,1-1.0652.1805h-.307v.3973H38.19v-.3973h-.3972a1.9875,1.9875,0,0,1-1.0834-.1986.9475.9475,0,0,1-.3611-.65,16.3114,16.3114,0,0,1-.0542-1.8236v-2.492h1.3a7.3179,7.3179,0,0,0,2.8348-.3792,2.7406,2.7406,0,0,0,1.2278-1.1194,3.364,3.364,0,0,0,.4333-1.7153,2.7091,2.7091,0,0,0-.6319-1.8417,3.3085,3.3085,0,0,0-1.6251-1.0111A10.61,10.61,0,0,0,37.0162,30.2375ZM25.84,30.3639v.3972h.2708a2.6477,2.6477,0,0,1,1.1556.1625.7952.7952,0,0,1,.3611.56A12.6675,12.6675,0,0,1,27.7,33.307v4.0086a20.5391,20.5391,0,0,1-.1264,2.8347,2.5534,2.5534,0,0,1-.8305,1.4806,2.3449,2.3449,0,0,1-1.6611.632,1.8878,1.8878,0,0,1-.8126-.1625.4774.4774,0,0,1-.325-.4334.7882.7882,0,0,1,.09-.3069,1.1037,1.1037,0,0,0,.1084-.4514.8152.8152,0,0,0-.2528-.6139.9.9,0,0,0-.65-.2528.8316.8316,0,0,0-.632.2889.9673.9673,0,0,0-.2528.6861,1.4185,1.4185,0,0,0,.7222,1.1737,3.5727,3.5727,0,0,0,2.04.4874,5.1284,5.1284,0,0,0,2.0944-.3972,3.5209,3.5209,0,0,0,2.0945-2.6722,16.8168,16.8168,0,0,0,.1083-2.275V33.307a11.4321,11.4321,0,0,1,.09-1.86.762.762,0,0,1,.3611-.5417,2.837,2.837,0,0,1,1.1375-.1444h.2889v-.3972Zm17.839,0v.3972h.325a2.6443,2.6443,0,0,1,1.1556.1625.7911.7911,0,0,1,.3611.56,12.5614,12.5614,0,0,1,.0722,1.8237v5.1281a13.0155,13.0155,0,0,1-.09,2.0041,1.5292,1.5292,0,0,1-.5958.9209,2.13,2.13,0,0,1-1.2278.3972v.3973h4.2431v-.3973a2.0949,2.0949,0,0,1-1.2639-.4333,1.5051,1.5051,0,0,1-.5417-.9028,13.7278,13.7278,0,0,1-.09-1.932V31.5917l4.6945,10.5629h.4152l4.64-10.5629v7.5114a13.1231,13.1231,0,0,1-.0723,1.8778.8916.8916,0,0,1-.3792.5959,2.07,2.07,0,0,1-1.0472.1805h-.4153v.3973h5.6695v-.3973h-.5236a1.9692,1.9692,0,0,1-1.0833-.1986.9272.9272,0,0,1-.3612-.6319,14.7072,14.7072,0,0,1-.0722-1.8417V33.307a10.9741,10.9741,0,0,1,.09-1.86.7692.7692,0,0,1,.3611-.5417,2.9705,2.9705,0,0,1,1.1556-.1444h.4333v-.3972H55.8845l-4.2792,9.7684-4.3334-9.7684Zm132.0236.1986a1.3612,1.3612,0,0,1,1.0653.4514,1.6868,1.6868,0,0,1,.4153,1.1736c0,.82-.6151,1.5872-1.8237,2.2931a4.6424,4.6424,0,0,1-1.1013-2.4195,1.5054,1.5054,0,0,1,.3972-1.0653A1.3457,1.3457,0,0,1,175.7024,30.5625Zm-138.5056.09a3.295,3.295,0,0,1,2.3292.6861,2.8462,2.8462,0,0,1,.7222,2.1486,2.9751,2.9751,0,0,1-.4153,1.625,1.9536,1.9536,0,0,1-1.0472.8486,5.3681,5.3681,0,0,1-1.643.2167H36.294V30.6889A8.6386,8.6386,0,0,1,37.1968,30.6528Zm116.7485,2.2389a2.333,2.333,0,0,0-1.6973.6319,2.1726,2.1726,0,0,0-.6861,1.6251,2.4227,2.4227,0,0,0,.325,1.1916,2.48,2.48,0,0,0,.8487.9211,12.6476,12.6476,0,0,0,1.6611.8126,5.674,5.674,0,0,1,1.6791.975,1.5322,1.5322,0,0,1,.4515,1.1375,1.7335,1.7335,0,0,1-.5237,1.2277,1.9566,1.9566,0,0,1-1.4806.5417q-2.1259,0-2.69-2.8528H151.49v2.925h.3431a2.2371,2.2371,0,0,1,.325-.8847,3.1678,3.1678,0,0,0,2.4917,1.1375,2.91,2.91,0,0,0,2.0763-.7222,2.4833,2.4833,0,0,0,.7765-1.8958,2.5877,2.5877,0,0,0-.325-1.3,2.3267,2.3267,0,0,0-.8487-.8667,17.9975,17.9975,0,0,0-1.7152-.849,6.4816,6.4816,0,0,1-1.6793-.993,1.3585,1.3585,0,0,1-.4874-1.0472,1.4272,1.4272,0,0,1,.3791-.957,1.5018,1.5018,0,0,1,1.1917-.4333,2.2057,2.2057,0,0,1,1.5167.5958,3.0988,3.0988,0,0,1,.9027,1.607h.2889V33.0542h-.2889a1.4134,1.4134,0,0,1-.343.7944,2.7881,2.7881,0,0,0-1.0472-.7764A3.1971,3.1971,0,0,0,153.9453,32.8917Zm-88.8524.018a4.9736,4.9736,0,0,0-3.4848,1.2639A4.3467,4.3467,0,0,0,60.2,37.55a4.5165,4.5165,0,0,0,1.39,3.4487,5.4586,5.4586,0,0,0,7.1139,0,4.4741,4.4741,0,0,0,1.3542-3.3945,4.357,4.357,0,0,0-1.4264-3.4309A5.1518,5.1518,0,0,0,65.0929,32.91Zm20.9626,0a4.1276,4.1276,0,0,0-3.34,1.4625,5.151,5.151,0,0,0-1.2459,3.4129,4.4131,4.4131,0,0,0,4.532,4.5319,6.0187,6.0187,0,0,0,2.0945-.4333,4.0609,4.0609,0,0,1,1.3541-.3069,1.673,1.673,0,0,1,.2889.018v-.9569a8.6535,8.6535,0,0,1,.0722-1.4806.6775.6775,0,0,1,.307-.4514,2.0443,2.0443,0,0,1,.8847-.1264v-.3069H87.0847V38.58h.2167a2.1387,2.1387,0,0,1,.74.09.5338.5338,0,0,1,.2889.325,3.0245,3.0245,0,0,1,.1083.975,2.25,2.25,0,0,1-.2167,1.0292,1.5985,1.5985,0,0,1-.7583.6861A2.7776,2.7776,0,0,1,86.2,41.974a2.9444,2.9444,0,0,1-2.275-.9931,5.1055,5.1055,0,0,1-.9028-3.4306,4.6835,4.6835,0,0,1,.957-3.3586A3.046,3.046,0,0,1,86.2,33.2348a2.9435,2.9435,0,0,1,2.0944.8124A3.5922,3.5922,0,0,1,89.36,36.25h.3069V33.2167H89.36a3.2476,3.2476,0,0,1-.2889,1.0292A3.8745,3.8745,0,0,0,86.0555,32.91Zm118.2471,0a4.9725,4.9725,0,0,0-3.4847,1.2639A4.3474,4.3474,0,0,0,199.41,37.55a4.5017,4.5017,0,0,0,1.3723,3.4487,5.4586,5.4586,0,0,0,7.1139,0,4.4894,4.4894,0,0,0,1.3722-3.3945,4.3563,4.3563,0,0,0-1.4263-3.4309A5.1558,5.1558,0,0,0,204.3026,32.91Zm-58.7532.0181-2.6361,6.2836c-.19.4515-.3149.71-.3431.7765a5.2218,5.2218,0,0,1-.7042,1.39,1.475,1.475,0,0,1-.9028.4334v.3069H143.69v-.3069a1.1667,1.1667,0,0,1-.7222-.2167.7172.7172,0,0,1-.2708-.6139,5.8547,5.8547,0,0,1,.5236-1.625l.2347-.5778h3.4306l.7042,1.6792a3.8628,3.8628,0,0,1,.3069.8667.398.398,0,0,1-.2347.3972,2.7181,2.7181,0,0,1-.8847.09v.3069h3.5569v-.3069a1.3422,1.3422,0,0,1-.7041-.2347,1.26,1.26,0,0,1-.3792-.5056l-.4153-.9389L145.82,32.9278Zm-70.9231.0361c-.5075,0-1.1951.0163-2.0583.0542l-1.282.0541v.307H71.43a2.2079,2.2079,0,0,1,.9209.1264.595.595,0,0,1,.2708.4333,9.7714,9.7714,0,0,1,.0542,1.39v4.46a10.5131,10.5131,0,0,1-.0542,1.4445.6562.6562,0,0,1-.2889.4514,1.6009,1.6009,0,0,1-.8125.1445h-.2889v.3069h4.3514V41.83H75.15a1.5725,1.5725,0,0,1-.8486-.1626A.6989.6989,0,0,1,74.03,41.18a12.9829,12.9829,0,0,1-.0361-1.39V37.8031h.3611a.89.89,0,0,1,.5237.1264,4.1732,4.1732,0,0,1,.6319.6681c.3053.3735.6.7662.8848,1.1736a10.88,10.88,0,0,0,1.9861,2.3653h2.4195V41.83a2.3966,2.3966,0,0,1-1.3723-.4515,9.44,9.44,0,0,1-1.607-1.8055,7.172,7.172,0,0,0-1.8416-1.9681,3.2375,3.2375,0,0,0,1.9139-.7767,2.0688,2.0688,0,0,0,.65-1.5347,1.8553,1.8553,0,0,0-.5056-1.3,2.78,2.78,0,0,0-1.3-.7945A7.67,7.67,0,0,0,74.6263,32.9639Zm21.6126,0L93.5848,39.23c-.19.4514-.2954.71-.325.7764a5.2519,5.2519,0,0,1-.7222,1.4083,1.4157,1.4157,0,0,1-.8848.4154v.3069h2.7264V41.83a1.1567,1.1567,0,0,1-.7222-.1987.75.75,0,0,1-.2709-.6319,5.8334,5.8334,0,0,1,.5237-1.625l.2347-.5778h3.4306l.6861,1.6791a4.4782,4.4782,0,0,1,.325.8848.3708.3708,0,0,1-.2347.3791,2.7083,2.7083,0,0,1-.8848.09v.3069h3.557V41.83a1.3561,1.3561,0,0,1-.7042-.2167,1.2631,1.2631,0,0,1-.3791-.5056l-.4153-.957L96.51,32.9639Zm33.7284.09v.3069h.18a2.0178,2.0178,0,0,1,.8848.1264.6075.6075,0,0,1,.2708.4334,8.6257,8.6257,0,0,1,.0722,1.39v4.442a9.4228,9.4228,0,0,1-.0722,1.4626.6611.6611,0,0,1-.2889.4513,1.5986,1.5986,0,0,1-.8125.1445h-.2347v.3069h4.1167v-.3069h-.2347a1.5791,1.5791,0,0,1-.8487-.1625.7065.7065,0,0,1-.2708-.4875,11.2078,11.2078,0,0,1-.0542-1.4084V37.5684h4.7306v2.1847a10.4639,10.4639,0,0,1-.0541,1.4445.71.71,0,0,1-.2889.4694,1.5424,1.5424,0,0,1-.7944.1445h-.307v.3069h4.0987v-.3069h-.1987a1.5177,1.5177,0,0,1-.8305-.1625.7025.7025,0,0,1-.2709-.4875,11.7221,11.7221,0,0,1-.0542-1.4084v-4.442a8.4207,8.4207,0,0,1,.0723-1.4263.5874.5874,0,0,1,.2708-.4154,2.2724,2.2724,0,0,1,.8847-.1083h.1265v-.3069h-4.0987v.3069h.2347a2.031,2.031,0,0,1,.8847.1264.6039.6039,0,0,1,.2709.4334,9.8777,9.8777,0,0,1,.0541,1.39V37.117h-4.7306V35.3111a8.2984,8.2984,0,0,1,.0723-1.4263.5981.5981,0,0,1,.2889-.4154,2.1594,2.1594,0,0,1,.8666-.1083h.1806v-.3069Zm29.25,0v.3069a1.877,1.877,0,0,1,.8667.1264.6314.6314,0,0,1,.2709.4514,10.1436,10.1436,0,0,1,.0541,1.3722v4.442a10.9406,10.9406,0,0,1-.0541,1.4264.8063.8063,0,0,1-.2528.4514,1.3311,1.3311,0,0,1-.8487.1806h-.1985v.3069h7.475l.1986-2.8166h-.3069a4.4277,4.4277,0,0,1-.6681,1.5889,1.96,1.96,0,0,1-.8667.74,3.5214,3.5214,0,0,1-1.1736.1625h-.6681c-.6059,0-.9806-.1-1.1194-.2888a4.7323,4.7323,0,0,1-.1986-1.8959V37.46h.975a2.9786,2.9786,0,0,1,.8306.09.5839.5839,0,0,1,.3611.325,2.6679,2.6679,0,0,1,.1263,1.0111h.307V35.7987h-.307a3.1029,3.1029,0,0,1-.09.9027.5914.5914,0,0,1-.3431.3434,2.6172,2.6172,0,0,1-.9208.1083h-.9389v-3.792h1.2458a6.2036,6.2036,0,0,1,1.3542.1083,1.3158,1.3158,0,0,1,.74.4876,3.6331,3.6331,0,0,1,.5236,1.3541h.3069l-.2166-2.2569Zm-57.02.018v.307a2.6184,2.6184,0,0,1,.9389.1083.6478.6478,0,0,1,.307.4514,6.0744,6.0744,0,0,1,.1083,1.39V40.15a4.6875,4.6875,0,0,1-.0722,1.0292.7652.7652,0,0,1-.3972.4153,2.3681,2.3681,0,0,1-.975.2348v.3069h3.3583V41.83a2.1725,2.1725,0,0,1-1.0653-.1987.9035.9035,0,0,1-.4513-.4514,4.3806,4.3806,0,0,1-.0723-1.0292V33.8486l6.4459,8.5045h.2709V34.8417a2.5658,2.5658,0,0,1,.09-.8125.8406.8406,0,0,1,.4153-.4333,2.4034,2.4034,0,0,1,.9028-.2167v-.307h-3.2681v.307a2.571,2.571,0,0,1,.9028.1444.8715.8715,0,0,1,.5055.3792,2.0482,2.0482,0,0,1,.1265.8486v5.417l-5.3626-7.0962Zm-37.0864.1626a3.01,3.01,0,0,1,2.5278,1.1374,5.1813,5.1813,0,0,1,.8667,3.2323,5.13,5.13,0,0,1-.8847,3.2681,2.92,2.92,0,0,1-2.4014,1.1014,3.1127,3.1127,0,0,1-2.6-1.1014,5.1787,5.1787,0,0,1-.8666-3.2681,5.2235,5.2235,0,0,1,.8666-3.2684A2.9806,2.9806,0,0,1,65.1109,33.2348Zm139.21,0a3.0107,3.0107,0,0,1,2.5278,1.1374,5.1723,5.1723,0,0,1,.8666,3.2323,5.1291,5.1291,0,0,1-.8847,3.2681,2.9213,2.9213,0,0,1-2.4014,1.1014,3.1481,3.1481,0,0,1-2.618-1.1014,5.1774,5.1774,0,0,1-.8667-3.2681,5.2222,5.2222,0,0,1,.8667-3.2684A3.0153,3.0153,0,0,1,204.3207,33.2348Zm-129.7666.0541a2.67,2.67,0,0,1,2.0583.5778,2.352,2.352,0,0,1,.47,1.5347,2.6549,2.6549,0,0,1-.1445.9208,1.6186,1.6186,0,0,1-.3792.6139,1.5536,1.5536,0,0,1-.6319.3434,3.8246,3.8246,0,0,1-.9209.1445c-.352.018-.6813.0282-1.0111.0361V33.307C74.2054,33.2886,74.391,33.2889,74.5541,33.2889ZM145.17,34.607l1.5889,3.8281h-3.16Zm-49.31.018,1.5889,3.8462H94.2709Zm78.5967.957c.922,1.2046,2.029,2.77,3.3043,4.7128a3.1075,3.1075,0,0,1-2.3473,1.2639,2.7306,2.7306,0,0,1-2.0583-.993,3.1429,3.1429,0,0,1-.9028-2.1306,2.6854,2.6854,0,0,1,.5236-1.499A4.66,4.66,0,0,1,174.4565,35.582Zm36.5629,4.8211a.9864.9864,0,0,0-.9931.9931.9921.9921,0,0,0,.2889.7042.9233.9233,0,0,0,.7042.2889.97.97,0,0,0,.7041-.2889.9427.9427,0,0,0,.2889-.7042.9629.9629,0,0,0-.2889-.7042A.951.951,0,0,0,211.0194,40.4031Z" style="fill:#fff"/><rect id="rect2666" x="13.1827" y="23.3944" width="208.002" height="26.0005" style="fill:none"/></g><rect width="234.3674" height="72.7892" style="fill:none"/></g></g></svg>