<svg xmlns="http://www.w3.org/2000/svg" viewBox="0 0 234.3674 72.7892"><title>sponsor-case</title><g id="Layer_2" data-name="Layer 2"><g id="Text"><rect width="234.3674" height="72.7892" style="fill:none"/><polygon points="80.244 58.966 81.161 44.754 79.485 44.754 80.244 58.966" style="fill:#fff"/><polygon points="62.421 24.076 69.997 30.251 72.111 30.251 62.421 24.076" style="fill:#fff"/><polygon points="88.005 12.84 81.583 30.251 83.44 30.251 88.005 12.84" style="fill:#fff"/><polygon points="73.701 16.757 77.228 30.251 79.059 30.251 73.701 16.757" style="fill:#fff"/><polygon points="65.385 16.757 74.389 30.251 76.438 30.251 65.385 16.757" style="fill:#fff"/><polygon points="99.826 51.196 91.861 44.754 89.914 44.754 99.826 51.196" style="fill:#fff"/><polygon points="92.631 20.495 84.281 30.251 86.245 30.251 92.631 20.495" style="fill:#fff"/><polygon points="98.848 23.625 88.526 30.251 90.688 30.251 98.848 23.625" style="fill:#fff"/><polygon points="80.333 12.939 79.434 30.251 81.232 30.251 80.333 12.939" style="fill:#fff"/><polygon points="72.887 59.95 78.713 44.754 76.967 44.754 72.887 59.95" style="fill:#fff"/><polygon points="87.779 59.95 83.7 44.754 81.954 44.754 87.779 59.95" style="fill:#fff"/><polygon points="92.532 53.736 86.799 44.754 85.032 44.754 92.532 53.736" style="fill:#fff"/><polygon points="62.465 50.163 70.767 44.754 68.972 44.754 62.465 50.163" style="fill:#fff"/><polygon points="67.869 54.346 75.683 44.754 73.899 44.754 67.869 54.346" style="fill:#fff"/><path d="M68.6173,35.224l-.7418.4421s-.5151.336-1.0135-.3767a2.5692,2.5692,0,0,0-.2812-.3418,2.1408,2.1408,0,0,0-1.6019-.6968c-1.4313,0-2.2849,1.152-2.2849,3.1082,0,1.9429.88,3.0689,2.4161,3.0689a2.223,2.223,0,0,0,1.5234-.6032c.1683-.1505.2674-.298.4174-.4489a.8178.8178,0,0,1,.9468-.1851l.631.4511a.7966.7966,0,0,1,.2575,1.0432,2.805,2.805,0,0,1-.4536.52,3.6826,3.6826,0,0,1-.84.6429,4.6086,4.6086,0,0,1-2.4689.6163c-2.9937,0-4.8715-1.9691-4.8715-5.1047,0-3.0148,1.8647-5.0918,4.57-5.0918a4.5123,4.5123,0,0,1,3.375,1.1929,3.4473,3.4473,0,0,1,.5619.7306C69.162,34.9284,68.6173,35.224,68.6173,35.224Zm7.8133-2.7288a.8842.8842,0,0,1,.7722.5526l3.0231,8.5551a.3854.3854,0,0,1-.3811.5526H78.7a.8673.8673,0,0,1-.7646-.5563l-.2543-.75a.8675.8675,0,0,0-.7643-.5561H74.1828a.8669.8669,0,0,0-.7643.5561l-.2545.75a.8672.8672,0,0,1-.7648.5563H71.2545a.3874.3874,0,0,1-.3832-.5535l2.9877-8.553a.879.879,0,0,1,.77-.5538Zm-2.02,5.379a.3933.3933,0,0,0,.389.5568h1.4863a.392.392,0,0,0,.3876-.5562l-.9486-2.7871c-.1035-.3056-.2732-.3056-.3764.0009Zm15.5816-3.2423-.4738.4087s-.3606.3025-.9113-.2346c-.0509-.05-.1006-.1036-.1609-.159a2.8807,2.8807,0,0,0-2.0244-.6644c-1.2211,0-1.93.3884-1.93,1.0317,0,.59.4988.8576,2.0611,1.0985a9.1178,9.1178,0,0,1,2.7449.79,7.019,7.019,0,0,1,.7087.5092,2.4915,2.4915,0,0,1,.696,1.8361,2.93,2.93,0,0,1-.7747,2.0908c-.7485.79-1.7991,1.1246-3.5587,1.1246a5.129,5.129,0,0,1-3.6769-1.0716,3.2338,3.2338,0,0,1-.548-.6092.7017.7017,0,0,1,.1157-.9389l.5422-.5361a.543.543,0,0,1,.7376.1205,5.8621,5.8621,0,0,0,.4261.463,3.09,3.09,0,0,0,2.3775.83c1.3785,0,2.1272-.388,2.1272-1.0982,0-.6833-.6567-1.0457-2.2585-1.2463-1.8-.2412-2.2554-.3459-3.2547-1.2414a2.3776,2.3776,0,0,1-.6982-1.76,2.78,2.78,0,0,1,1.7858-2.7339,6.0844,6.0844,0,0,1,2.3375-.3746,4.9637,4.9637,0,0,1,3.401,1.085,3.1242,3.1242,0,0,1,.2964.3052C90.545,34.1351,89.9926,34.6319,89.9926,34.6319ZM99.48,32.4952a.4593.4593,0,0,1,.461.5762l-.1236.616a.7423.7423,0,0,1-.6922.5761H96.3785a.5849.5849,0,0,0-.5772.5888v.8331a.5849.5849,0,0,0,.5772.5881h2.4446a.5842.5842,0,0,1,.5768.5883v.592a.5849.5849,0,0,1-.5768.5891H96.3785a.5846.5846,0,0,0-.5772.588v1.168a.5845.5845,0,0,0,.5772.5885h2.852a.743.743,0,0,1,.692.5764l.1234.6159a.4591.4591,0,0,1-.4612.5758H94.0671a.584.584,0,0,1-.5767-.5879V33.0832a.5846.5846,0,0,1,.5767-.588Z" style="fill:#fff"/><path d="M34.6683,32.4952a.5841.5841,0,0,1,.5763.588v.82a.5842.5842,0,0,1-.5763.5888H32.8789a.5847.5847,0,0,0-.5767.5878v6.4882a.5837.5837,0,0,1-.5764.5879H30.5546a.5841.5841,0,0,1-.5768-.5879V35.0794a.5841.5841,0,0,0-.5763-.5878H27.6381a.5848.5848,0,0,1-.5765-.5888v-.82a.5847.5847,0,0,1,.5765-.588Z" style="fill:#fff"/><path d="M39.0024,32.4952a.5843.5843,0,0,1,.5766.588v2.5885a.5844.5844,0,0,0,.5766.5888h2.9567a.5845.5845,0,0,0,.5768-.5888V33.0832a.5847.5847,0,0,1,.5764-.588h1.1713a.5841.5841,0,0,1,.5763.588v8.4844a.5835.5835,0,0,1-.5763.5879H44.2522a.5841.5841,0,0,1-.5763-.5879V38.6712a.5843.5843,0,0,0-.5767-.5886h-2.97a.5847.5847,0,0,0-.5767.5886v2.8964a.5837.5837,0,0,1-.5763.5879H37.818a.5836.5836,0,0,1-.5762-.5879V33.0832a.5842.5842,0,0,1,.5762-.588Z" style="fill:#fff"/><path d="M54.9873,32.4952a.4588.4588,0,0,1,.46.5762l-.1231.616a.7428.7428,0,0,1-.6922.5761H51.8853a.5841.5841,0,0,0-.5763.5888v.8331a.5841.5841,0,0,0,.5763.5881h2.4453a.5839.5839,0,0,1,.5764.5883v.592a.5845.5845,0,0,1-.5764.5891H51.8853a.5838.5838,0,0,0-.5763.588v1.168a.5838.5838,0,0,0,.5763.5885h2.8521a.7431.7431,0,0,1,.6922.5764l.1233.6159a.4587.4587,0,0,1-.4606.5758h-5.518a.5839.5839,0,0,1-.5764-.5879V33.0832a.5845.5845,0,0,1,.5764-.588Z" style="fill:#fff"/><path d="M112.2137,32.4952a.4615.4615,0,0,1,.4634.577l-.1148.588a.7392.7392,0,0,1-.69.577h-2.8783a.5842.5842,0,0,0-.5768.588v1.101a.5845.5845,0,0,0,.5768.589h2.4317a.5838.5838,0,0,1,.5763.5884v.5782a.5843.5843,0,0,1-.5763.5885h-2.4189a.5843.5843,0,0,0-.5768.5886v2.7087a.5835.5835,0,0,1-.576.5879h-1.1583a.584.584,0,0,1-.5767-.5879V33.0832a.5846.5846,0,0,1,.5767-.588Z" style="fill:#fff"/><path d="M123.3723,33.5669a5.0623,5.0623,0,0,1,1.4445,3.7518,4.9184,4.9184,0,0,1-1.4052,3.7791,4.5533,4.5533,0,0,1-3.4535,1.3659,4.6149,4.6149,0,0,1-3.53-1.3931,4.94,4.94,0,0,1-1.3921-3.6712,4.7506,4.7506,0,0,1,4.8034-5.1586h.0655A4.6124,4.6124,0,0,1,123.3723,33.5669Zm-5.8814,3.7921c0,1.8893.9181,3.0284,2.4275,3.0284,1.5488,0,2.4561-1.1391,2.4561-3.0687,0-1.8354-.933-3.0008-2.4164-3.0008h-.04C118.3828,34.3575,117.4909,35.4833,117.4909,37.359Z" style="fill:#fff"/><path d="M127.7843,32.4952h1.0941a.5686.5686,0,0,1,.6228.5561v5.4868c0,1.26.5524,1.89,1.6945,1.89,1.2076,0,1.7991-.6294,1.7991-1.93v-5.5a.5106.5106,0,0,1,.5224-.5027h1.2169a.5381.5381,0,0,1,.5848.4939v6.1917c0,2.1716-1.3917,3.2829-4.1232,3.27a4.2035,4.2035,0,0,1-3.2434-1.0722,2.78,2.78,0,0,1-.7612-2.3578V33.096S127.2328,32.4952,127.7843,32.4952Z" style="fill:#fff"/><path d="M140.5833,32.4952A1.1263,1.1263,0,0,1,141.456,33l2.73,4.6576c.1632.2779.2964.24.2964-.0839V33.0832a.5845.5845,0,0,1,.576-.588h1.0669a.5849.5849,0,0,1,.5764.588v8.4844a.5843.5843,0,0,1-.5764.5879h-1.3814a1.1228,1.1228,0,0,1-.8714-.5049l-2.9162-5.0057c-.1632-.278-.2956-.2408-.2956.0828v4.84a.5837.5837,0,0,1-.5762.5879h-1.079a.5837.5837,0,0,1-.5764-.5879V33.0832a.5842.5842,0,0,1,.5764-.588Z" style="fill:#fff"/><path d="M150.733,32.4952h4.0932c2.4956,0,4.1109,1.9294,4.1109,4.917,0,2.9216-1.5766,4.7433-4.0706,4.7433H150.733a.6857.6857,0,0,1-.6872-.7064V33.2659S150.0069,32.4952,150.733,32.4952Zm1.6508,2.4433v4.6851a.5095.5095,0,0,0,.5383.5091h1.2219q2.3621,0,2.3636-2.7737c0-1.8358-.7621-2.8674-2.127-2.8674h-1.57A.4331.4331,0,0,0,152.3838,34.9385Z" style="fill:#fff"/><path d="M166.0786,32.4952a.8831.8831,0,0,1,.772.5526l3.024,8.5551a.3865.3865,0,0,1-.3816.553h-1.1451a.8682.8682,0,0,1-.7648-.5567l-.2543-.75a.8667.8667,0,0,0-.7643-.5561h-2.7331a.8676.8676,0,0,0-.7652.5561l-.2536.75a.869.869,0,0,1-.7652.5567h-1.1449a.3873.3873,0,0,1-.383-.5539l2.9877-8.553a.8778.8778,0,0,1,.7694-.5538Zm-2.02,5.379a.3935.3935,0,0,0,.3891.5568h1.4868a.3921.3921,0,0,0,.3874-.5562l-.9485-2.7871c-.1033-.3056-.2728-.3056-.3761.0009Z" style="fill:#fff"/><path d="M178.4531,32.4952a.5842.5842,0,0,1,.5762.588v.82a.5842.5842,0,0,1-.5762.5888h-1.79a.5839.5839,0,0,0-.5755.5878v6.4884a.585.585,0,0,1-.5771.5881h-1.1717a.5838.5838,0,0,1-.5756-.5881V35.0794a.5852.5852,0,0,0-.577-.5878h-1.7622a.5851.5851,0,0,1-.5772-.5888v-.82a.585.585,0,0,1,.5772-.588Z" style="fill:#fff"/><path d="M183.3411,32.4952a.5846.5846,0,0,1,.577.588v8.4846a.5843.5843,0,0,1-.577.5881h-1.1575a.5839.5839,0,0,1-.576-.5881V33.0832a.5841.5841,0,0,1,.576-.588Z" style="fill:#fff"/><path d="M195.2081,33.5669a5.0584,5.0584,0,0,1,1.4445,3.7518,4.9184,4.9184,0,0,1-1.4052,3.7791,4.55,4.55,0,0,1-3.4528,1.3659,4.6184,4.6184,0,0,1-3.5321-1.3931,4.94,4.94,0,0,1-1.3929-3.6712,4.7506,4.7506,0,0,1,4.807-5.1586h.0655A4.61,4.61,0,0,1,195.2081,33.5669Zm-5.8823,3.7921c0,1.8893.92,3.0284,2.429,3.0284,1.5492,0,2.4556-1.1391,2.4556-3.0687,0-1.8354-.9326-3.0008-2.4158-3.0008h-.04C190.2188,34.3577,189.3258,35.4833,189.3258,37.359Z" style="fill:#fff"/><path d="M201.187,32.4952A.8936.8936,0,0,1,202.06,33l2.73,4.6584c.1628.2779.296.24.296-.0839V33.0832a.5851.5851,0,0,1,.5769-.588h1.066a.5843.5843,0,0,1,.5764.588v8.4846a.5841.5841,0,0,1-.5764.5881h-1.3808a1.1244,1.1244,0,0,1-.8716-.5053L201.56,36.6449c-.1624-.278-.2948-.2408-.2948.0828v4.84a.584.584,0,0,1-.5768.5881H199.61a.5836.5836,0,0,1-.5762-.5881V33.0832a.5838.5838,0,0,1,.5762-.588Z" style="fill:#fff"/></g></g></svg>