<svg xmlns="http://www.w3.org/2000/svg" viewBox="0 0 18 14.629"><title>tweet</title><g id="Layer_2" data-name="Layer 2"><g id="Logo_FIXED" data-name="Logo — FIXED"><path d="M5.661,14.629A10.436,10.436,0,0,0,16.168,4.121c0-.159,0-.319-.01-.477A7.508,7.508,0,0,0,18,1.732a7.362,7.362,0,0,1-2.121.581A3.7,3.7,0,0,0,17.5.27a7.415,7.415,0,0,1-2.345.9A3.7,3.7,0,0,0,8.865,4.535,10.486,10.486,0,0,1,1.253.676,3.7,3.7,0,0,0,2.4,5.606,3.658,3.658,0,0,1,.723,5.144v.048a3.7,3.7,0,0,0,2.962,3.62,3.673,3.673,0,0,1-1.667.063,3.7,3.7,0,0,0,3.45,2.565A7.411,7.411,0,0,1,.881,13.021,7.538,7.538,0,0,1,0,12.97a10.458,10.458,0,0,0,5.661,1.659" fill="#1da1f2"/></g></g></svg>